<?xml version="1.0" encoding="UTF-8"?>
<svg id="Layer_2" data-name="Layer 2" xmlns="http://www.w3.org/2000/svg" viewBox="0 0 24 24">
  <defs>
    <style>
      .cls-1, .cls-2 {
        fill-rule: evenodd;
      }

      .cls-1, .cls-2, .cls-3 {
        stroke-miterlimit: 10;
      }

      .cls-1, .cls-3 {
        fill: #f5bd1c;
        stroke: #fff;
        stroke-width: .2px;
      }

      .cls-2 {
        fill: #1971a6;
        stroke: #000;
        stroke-width: .4px;
      }
    </style>
  </defs>
  <path class="cls-2" d="M12,22.56c-5.71,0-10.35-4.64-10.35-10.35S6.29,1.87,12,1.87c.48,0,.96.03,1.44.1.06,0,.11.04.15.09.04.05.05.11.04.16-.02.13-.03.26-.03.39,0,1.48,1.2,2.69,2.69,2.69.33,0,.65-.06.96-.18.09-.03.19,0,.25.07.06.07.06.18.01.26-.44.66-.67,1.42-.67,2.21,0,2.21,1.8,4,4,4,.41,0,.82-.06,1.2-.18.06-.02.14,0,.19.03.06.04.09.1.09.17,0,.18.01.36.01.54,0,5.71-4.64,10.35-10.35,10.35h0Z"/>
  <circle class="cls-3" cx="9.12" cy="6.89" r="1.54"/>
  <circle class="cls-3" cx="7.01" cy="13.9" r="1.54"/>
  <circle class="cls-3" cx="15.83" cy="17.32" r="1.54"/>
  <circle class="cls-3" cx="12.95" cy="10.59" r="1.54"/>
  <path class="cls-1" d="M7.41,9.19h-1.04c-.12,0-.22-.1-.22-.22s.1-.22.22-.22h1.04c.12,0,.22.1.22.22s-.1.22-.22.22Z"/>
  <path class="cls-1" d="M12.2,5.66c-.08,0-.15-.04-.19-.11l-.52-.9c-.06-.11-.02-.24.08-.3.11-.06.24-.02.3.08l.52.9c.06.11.03.24-.08.3-.03.02-.07.03-.11.03h0Z"/>
  <path class="cls-1" d="M11.38,16.27s-.07,0-.11-.03l-.9-.52c-.11-.06-.14-.2-.08-.3.06-.11.2-.14.3-.08l.9.52c.11.06.14.2.08.3-.04.07-.11.11-.19.11Z"/>
  <path class="cls-1" d="M6.81,19.3c-.08,0-.15-.04-.19-.11-.06-.11-.02-.24.08-.3l.9-.52c.11-.06.24-.03.3.08s.02.24-.08.3l-.9.52s-.07.03-.11.03Z"/>
  <path class="cls-1" d="M18.87,14.99s-.07,0-.11-.03c-.11-.06-.14-.2-.08-.3l.52-.9c.06-.11.19-.14.3-.08.11.06.14.19.08.3l-.52.9c-.04.07-.11.11-.19.11Z"/>
  <path class="cls-1" d="M11.52,20.62c-.08,0-.15-.04-.19-.11-.06-.11-.03-.24.08-.3l.9-.52c.11-.06.24-.03.3.08s.03.24-.08.3l-.9.52s-.07.03-.11.03Z"/>
  <path class="cls-2" d="M16.5,3.35c-.53,0-.95-.43-.95-.95s.43-.95.95-.95.95.43.95.95-.43.95-.95.95Z"/>
  <path class="cls-2" d="M19.99,5.98c-.9,0-1.63-.73-1.63-1.63s.73-1.63,1.63-1.63,1.63.73,1.63,1.63-.73,1.63-1.63,1.63Z"/>
  <path class="cls-2" d="M20.29,9.59c-.53,0-.95-.43-.95-.95s.43-.95.95-.95.95.43.95.95-.43.95-.95.95Z"/>
</svg>