<?xml version="1.0" encoding="UTF-8"?>
<svg id="Layer_2" data-name="Layer 2" xmlns="http://www.w3.org/2000/svg" xmlns:xlink="http://www.w3.org/1999/xlink" viewBox="0 0 24 24">
  <defs>
    <style>
      .cls-1 {
        fill: #aad8f7;
      }

      .cls-2 {
        fill: #154575;
      }

      .cls-3 {
        fill: #4a95c6;
      }

      .cls-4 {
        fill: #235994;
      }

      .cls-5 {
        fill: #9cb7d1;
      }

      .cls-6 {
        fill: #fae2a6;
      }

      .cls-7 {
        fill: #4b92bf;
      }

      .cls-8 {
        fill: url(#linear-gradient-2);
      }

      .cls-9 {
        fill: #174673;
      }

      .cls-10 {
        fill: #19476f;
      }

      .cls-11 {
        fill: #418bbe;
      }

      .cls-12 {
        fill: #dae6ed;
      }

      .cls-13 {
        fill: #316ea8;
      }

      .cls-14 {
        fill: #db9d46;
      }

      .cls-15 {
        fill: #17456d;
      }

      .cls-16 {
        fill: #fcda90;
      }

      .cls-17 {
        fill: #d9e3ed;
      }

      .cls-18 {
        fill: #69b0e4;
      }

      .cls-19 {
        fill: #8ec8f2;
      }

      .cls-20 {
        fill: #184776;
      }

      .cls-21 {
        fill: #81bce8;
      }

      .cls-22 {
        fill: #85c1ed;
      }

      .cls-23 {
        fill: #ccdeeb;
      }

      .cls-24 {
        fill: #174573;
      }

      .cls-25 {
        fill: #71b0dd;
      }

      .cls-26 {
        fill: #c5d6e4;
      }

      .cls-27 {
        fill: url(#linear-gradient-4);
      }

      .cls-28 {
        fill: #fbd581;
      }

      .cls-29 {
        fill: #fcda8e;
      }

      .cls-30 {
        fill: #d0dee9;
      }

      .cls-31 {
        fill: #e8f0f4;
      }

      .cls-32 {
        fill: #fbd887;
      }

      .cls-33 {
        fill: #225c98;
      }

      .cls-34 {
        fill: url(#linear-gradient-3);
      }

      .cls-35 {
        fill: #f7be51;
      }

      .cls-36 {
        fill: #235896;
      }

      .cls-37 {
        fill: url(#linear-gradient-5);
      }

      .cls-38 {
        fill: #e8f1f6;
      }

      .cls-39 {
        fill: #facf76;
      }

      .cls-40 {
        fill: #4690c2;
      }

      .cls-41 {
        fill: #79bae9;
      }

      .cls-42 {
        fill: #17466e;
      }

      .cls-43 {
        fill: #72afe0;
      }

      .cls-44 {
        fill: #317cb4;
      }

      .cls-45 {
        fill: #dc9c42;
      }

      .cls-46 {
        fill: #3781b7;
      }

      .cls-47 {
        fill: #78b4e0;
      }

      .cls-48 {
        fill: url(#linear-gradient-8);
      }

      .cls-49 {
        fill: #fbda8c;
      }

      .cls-50 {
        fill: #418dc0;
      }

      .cls-51 {
        fill: #c5d6e5;
      }

      .cls-52 {
        fill: #337cb4;
      }

      .cls-53 {
        fill: #225a97;
      }

      .cls-54 {
        fill: #235a94;
      }

      .cls-55 {
        fill: #2666a0;
      }

      .cls-56 {
        fill: #94cbf1;
      }

      .cls-57 {
        fill: #dc9f46;
      }

      .cls-58 {
        fill: #84bbe1;
      }

      .cls-59 {
        fill: #c7a26c;
      }

      .cls-60 {
        fill: #a5c1d8;
      }

      .cls-61 {
        fill: #fbeabd;
      }

      .cls-62 {
        fill: #24619b;
      }

      .cls-63 {
        fill: url(#linear-gradient-7);
      }

      .cls-64 {
        fill: #184575;
      }

      .cls-65 {
        fill: #184775;
      }

      .cls-66 {
        fill: #f6c055;
      }

      .cls-67 {
        fill: #95ccf3;
      }

      .cls-68 {
        fill: #c0d2e2;
      }

      .cls-69 {
        fill: #fbe9be;
      }

      .cls-70 {
        fill: #2b76af;
      }

      .cls-71 {
        fill: #a0d2f5;
      }

      .cls-72 {
        fill: #87c3ed;
      }

      .cls-73 {
        fill: #f7ba4a;
      }

      .cls-74 {
        fill: url(#linear-gradient-6);
      }

      .cls-75 {
        fill: #a7c1d7;
      }

      .cls-76 {
        fill: #3d89bb;
      }

      .cls-77 {
        fill: #e9f2f7;
      }

      .cls-78 {
        fill: #235a99;
      }

      .cls-79 {
        fill: #b5cbe0;
      }

      .cls-80 {
        fill: #2f69a1;
      }

      .cls-81 {
        fill: #a9c4d7;
      }

      .cls-82 {
        fill: #9fbdd5;
      }

      .cls-83 {
        fill: #194876;
      }

      .cls-84 {
        fill: #59a1da;
      }

      .cls-85 {
        fill: #7db6de;
      }

      .cls-86 {
        fill: #edf3f7;
      }

      .cls-87 {
        fill: #3984b9;
      }

      .cls-88 {
        fill: #82bae0;
      }

      .cls-89 {
        fill: #3470a5;
      }

      .cls-90 {
        fill: #9ed2f6;
      }

      .cls-91 {
        fill: url(#linear-gradient);
      }

      .cls-92 {
        fill: #f0f4f8;
      }

      .cls-93 {
        fill: #d8c393;
      }

      .cls-94 {
        fill: #fbe9bd;
      }

      .cls-95 {
        fill: #db9d49;
      }

      .cls-96 {
        fill: #92cbf3;
      }

      .cls-97 {
        fill: #f9e0a6;
      }

      .cls-98 {
        fill: #194671;
      }

      .cls-99 {
        fill: #184573;
      }

      .cls-100 {
        fill: #519bca;
      }

      .cls-101 {
        fill: #f3f8fa;
      }

      .cls-102 {
        fill: #a1bdd5;
      }

      .cls-103 {
        fill: #184673;
      }
    </style>
    <linearGradient id="linear-gradient" x1="515.33" y1="538.94" x2="515.26" y2="541.12" gradientTransform="translate(-495 -536)" gradientUnits="userSpaceOnUse">
      <stop offset="0" stop-color="#4c93c2"/>
      <stop offset="1" stop-color="#2870a9"/>
    </linearGradient>
    <linearGradient id="linear-gradient-2" x1="515.58" y1="543.99" x2="515.64" y2="544.98" gradientTransform="translate(-495 -536)" gradientUnits="userSpaceOnUse">
      <stop offset="0" stop-color="#5197c3"/>
      <stop offset="1" stop-color="#2a71ac"/>
    </linearGradient>
    <linearGradient id="linear-gradient-3" x1="511.66" y1="537.52" x2="511.69" y2="538.49" gradientTransform="translate(-495 -536)" gradientUnits="userSpaceOnUse">
      <stop offset="0" stop-color="#4a93c2"/>
      <stop offset="1" stop-color="#2b72aa"/>
    </linearGradient>
    <linearGradient id="linear-gradient-4" x1="514.34" y1="541.83" x2="513.97" y2="547.98" gradientTransform="translate(-495 -536)" gradientUnits="userSpaceOnUse">
      <stop offset="0" stop-color="#235085"/>
      <stop offset="1" stop-color="#428bbc"/>
    </linearGradient>
    <linearGradient id="linear-gradient-5" x1="503.98" y1="541.42" x2="504.07" y2="543.91" gradientTransform="translate(-495 -536)" gradientUnits="userSpaceOnUse">
      <stop offset="0" stop-color="#fadc97"/>
      <stop offset="1" stop-color="#f3b84e"/>
    </linearGradient>
    <linearGradient id="linear-gradient-6" x1="507.95" y1="545.25" x2="508.01" y2="547.71" gradientTransform="translate(-495 -536)" gradientUnits="userSpaceOnUse">
      <stop offset="0" stop-color="#fada95"/>
      <stop offset="1" stop-color="#f5b84a"/>
    </linearGradient>
    <linearGradient id="linear-gradient-7" x1="510.93" y1="551.87" x2="511.06" y2="554.72" gradientTransform="translate(-495 -536)" gradientUnits="userSpaceOnUse">
      <stop offset="0" stop-color="#f5ebc8"/>
      <stop offset=".44" stop-color="#f9cd72"/>
      <stop offset="1" stop-color="#f3ba46"/>
    </linearGradient>
    <linearGradient id="linear-gradient-8" x1="501.88" y1="548.68" x2="501.8" y2="551.15" gradientTransform="translate(-495 -536)" gradientUnits="userSpaceOnUse">
      <stop offset="0" stop-color="#fadb96"/>
      <stop offset="1" stop-color="#f5b749"/>
    </linearGradient>
  </defs>
  <g>
    <circle class="cls-103" cx="20.3" cy="4.06" r="1.9"/>
    <path class="cls-91" d="M21.77,3.9c.01.09.01.19,0,.28-.4,1.48-2.67,1.41-2.95-.07,0-.08,0-.16.01-.24.05-.04.03.09.02.09-.06-.02.13-.39.17-.45.71-1.05,2.32-.84,2.71.36l.03.02Z"/>
    <path class="cls-36" d="M21.77,4.18c-.06.78-.72,1.38-1.51,1.36s-1.42-.65-1.45-1.43l.21.45c.06.13.18.2.28.29.28.26.64.36,1.03.36.67,0,1.19-.44,1.44-1.03Z"/>
    <path class="cls-58" d="M21.77,3.9s0,.09-.03.13c-.11-.46-.42-.81-.84-1-.83-.38-1.78.08-2.04.95-.03-.03,0-.07-.03-.1.1-.74.73-1.3,1.48-1.29s1.38.57,1.46,1.31Z"/>
  </g>
  <g>
    <circle class="cls-98" cx="20.61" cy="8.51" r="1.19"/>
    <path class="cls-8" d="M21.36,8.33c.03.11.03.22,0,.32-.29.71-1.43.62-1.53-.16,0-.05,0-.1.02-.14.02,0,.04,0,.04,0,.01.06-.05.13,0,.01.2-.6,1.21-.62,1.45-.03h.03Z"/>
    <path class="cls-85" d="M21.36,8.33s0,.08-.02.12c-.11-.3-.41-.51-.74-.51s-.6.19-.74.51c-.02-.03,0-.06-.02-.1.07-.36.38-.61.75-.62s.68.24.77.59Z"/>
    <path class="cls-33" d="M21.37,8.65c-.07.4-.44.67-.84.63s-.7-.38-.7-.78c.07.12.09.27.21.37.3.26.72.31,1.04.08.11-.08.18-.2.29-.29Z"/>
  </g>
  <g>
    <circle class="cls-99" cx="16.68" cy="2.04" r="1.19"/>
    <path class="cls-34" d="M17.45,1.93c.01.07.01.15,0,.22-.25.67-1.37.66-1.54-.08,0-.06,0-.13.02-.19.06-.02,0,.09,0,.08.12-.68,1.31-.71,1.49-.04h.03Z"/>
    <path class="cls-54" d="M17.45,2.15c-.06.4-.41.68-.8.66s-.72-.34-.74-.74c.03.02.04.05.06.09.12.25.36.42.63.41.13.07.44-.05.55-.12.25-.16.13-.24.29-.3Z"/>
    <path class="cls-88" d="M17.45,1.93s-.01.02-.02.02c0,0-.02-.01-.02-.03-.22-.42-.75-.59-1.15-.32-.15.1-.26.21-.32.38-.03-.03,0-.07-.01-.1.08-.37.41-.63.78-.61s.69.29.74.66Z"/>
  </g>
  <g>
    <path class="cls-24" d="M22.91,11.63c.07,1.2-.06,2.38-.38,3.53-.51,1.85-1.52,3.52-2.88,4.86-1.05,1.04-2.3,1.84-3.67,2.38-1.96.77-4.09.94-6.16.52C4.66,21.87.97,17.3,1.07,12.01c.06-2.96,1.31-5.78,3.48-7.79.99-.91,2.12-1.65,3.37-2.15,1.77-.71,3.7-.95,5.59-.69.25.03.42.23.39.49-.1.84.17,1.68.78,2.26.73.69,1.8.88,2.73.54.17-.06.35.02.45.14.11.13.14.34.04.5-.59.9-.81,2-.57,3.04.52,2.28,2.85,3.6,5.07,2.9.24-.08.49.13.51.39Z"/>
    <g>
      <path class="cls-70" d="M21.9,12.13c.06-.03.07.01.08.07.04.41-.03.96-.09,1.37-.07.52-.19,1-.33,1.5-.12.43-.35,1.03-.58,1.41,0,.02-.02.03-.04.04l-.02.16c-1.93,3.84-6.27,6.12-10.47,5.38-1.59-.28-3.05-.85-4.33-1.79l-.02-.05c-.19-.07-.34-.22-.47-.36-1.57-1.2-2.69-3.01-3.24-4.9-.05-.18-.25-.87-.2-1,0-.02.02-.03.03-.05.02-.06.05-.03.11.09.28-.04.35.11.28.36.02.13.05.26.08.39.08.04.12.09.1.19.09.09.12.22.09.39h.07c.02-.32.37-.05.2.13.16.06.31.2.22.38.1.08.19.17.29.26-.05.12-.05.24,0,.34.13.02.2.12.21.29.07-.03.12.02.16.13.09.08.14.18.17.29.12.02.22.07.32.16,0,.17.05.32.15.44l-.06.16c.14.04.26.11.37.21.16.01.23.08.2.2.21.03.34.17.39.43.07.01.14.05.19.12l.27.08c.1.04.14.13.13.27.03.03.04.07.03.14.03.09.02.15-.03.19.12.35.41.49.76.31.25-.16.5-.31.76-.45.12-.08.23-.18.33-.28.07.1-.14.17-.05.25.04.04.1,0,.16.02-.02.07-.09.07-.12.13.02.09.21-.06.3.05-.02.06-.05.09-.07.14.03.04.09.04.14.05.08.02.1-.05.13-.1.03-.03.15-.01.18.02.04.06.02.2.1.23.06.03.1.06.1.13.08.05.19-.04.27-.07s.18,0,.26-.03c.05.05.06.1.09.14.14-.02.17.08.23.16.05.06.23.05.29,0s.14-.15.21-.1c.05.04.08.05.16.06.06,0,.11.1.19.08-.04.11-.16,0-.19.09-.05.13.46.09.53.07.04-.01.04-.11.1-.08.03.01.08.01.11.05l.02.06c-.07.14-.08.3-.02.47l-.04.04c.11.21.26.32.46.33.45-.15.87-.45,1.26-.73l.11-.15-.03-.04c.03-.1.04-.21.03-.33l.05-.03c.06-.03,0,.25.03.26.07-.05.02-.12.06-.19.05.07.24.3.3.2.01-.02,0-.05,0-.08,0-.06.1-.02.12-.04.35-.31.44.09.62-.25l.22.11s.01.09.04.1c.03.01.19,0,.22-.01.02-.01.01-.06.03-.07.06-.03.12-.08.18-.09.08-.02.39-.04.41-.19,0-.04-.06-.11,0-.15.08-.06.3-.07.27-.16l.09-.03c.66.15,1.35-.06,1.82-.54l.09-.02c.04-.12.12-.29.24-.34.1-.04.06.05.03.12l.04.05c0,.08.04.1.13.07.16-.18.33-.34.54-.47.06-.03.14-.04.22-.03-.02-.17.04-.26.19-.33.06-.1.1-.15.23-.17,0-.13.08-.2.21-.2,0-.09.03-.14.09-.16-.07-.06-.05-.14.07-.23.05-.13.11-.2.2-.21.02-.02,0-.04-.08-.04-.09-.16,0-.25.26-.25.01-.03.03-.07.04-.1.09-.04.13-.09.13-.16-.07-.08-.08-.15-.04-.21-.08-.16.11-.38.23-.19l.04-.07c.02-.19.08-.24.19-.16-.05-.17.03-.45.22-.48-.01-.06,0-.11.03-.14.08,0,.14-.03.18-.07-.19-.08-.11-.35.08-.24.02-.15.03-.29.02-.44l.06-.08c.13-.07.18-.16.16-.28l.24-.5c-.03-.13-.03-.34.13-.39,0-.04-.01-.04-.06-.03-.16-.19-.32-.53-.02-.67.05-.07.12-.12.22-.14v-.06c.07-.07.19-.06.27-.11Z"/>
      <path class="cls-78" d="M22.09,15.14c-.03.23-.11.44-.2.66l-.23.57-.14.29c-.19.4-.37.77-.61,1.14-.33.51-.69,1-1.1,1.45s-.85.87-1.34,1.25c-.62.48-1.09.78-1.79,1.13-1.38.69-2.88,1.08-4.43,1.11-.23,0-.42,0-.65,0-.94-.06-1.87-.2-2.77-.48.07.02-.21-.09-.21-.1-1.34-.49-2.64-1.25-3.63-2.31l-.04-.09s0-.06.07-.08c-.07-.03-.11-.09-.08-.16.06-.14.26,0,.31.09.13.07.26.15.38.24.03.07.07.11.13.12.06.06.12.12.18.18l.17.07c.06.01.09.06.15.09l.47.31c.52.34,1.52.82,2.11,1l.46.14c.58.17,1.16.26,1.76.35.13-.02.23.01.35.02.97.06,2.09-.03,3.03-.28l.49-.13.41-.15c1.22-.44,2.32-1.12,3.29-1.97.58-.51,1.06-1.07,1.51-1.7.31-.44.59-.89.81-1.37.14-.22.26-.44.36-.68l.07-.04s.25.1.27.08c.04-.04.22-.52.26-.61.02-.09.12-.25.17-.13Z"/>
      <path class="cls-52" d="M21.64,12.24c.18.17-.22.06-.19.31,0,.03.05.06.04.09,0,.02-.02.07-.05.08-.11-.01.07-.34-.07-.18-.01.01-.04.02-.05.06-.07.37.06.22.12.5l.1-.11c0,.1,0,.17.03.26-.02.02-.05.04-.06,0,0-.02-.01-.03-.02-.04,0-.02-.04,0-.05.02l-.06.18c.08.11,0,.2-.04.3-.06.11-.11.23-.17.35-.02.05.04.13-.02.18-.05.05-.16.11-.19.18,0,.1.04.48-.07.51-.02,0-.03-.05-.05-.06-.05-.04-.08.04-.09.07-.02.07.05.07.1.11.03.02,0,.08-.01.1-.07.07-.15,0-.19.07-.02.02.01.07,0,.1-.04.05-.15.04-.18.11-.17.42.02.32-.04.38-.02.02-.04.06-.08.02-.16-.16-.03.13-.22.24-.04-.02-.04-.09-.06-.1-.06-.01-.09.02-.11.07-.01.03-.03.05-.02.08,0,.03.06.02.09.05-.24.11.05.13-.04.31-.02.04-.06.07-.12.09-.04.02-.02.08-.04.1-.08.09-.28-.01-.3.12,0,.04,0,.08.05.1.03-.03.03-.07.06-.11.07.02.12,0,.19,0-.03.08-.11.05-.15.09-.03.04-.02.13-.06.13h-.07s-.05.18-.22.29c0,.06.09.08.14.1-.04.05-.1.03-.16.05v.14c-.08,0-.14,0-.18.04-.04.03-.04.09-.05.16-.05.03-.11.03-.16.05-.14.3-.25.04-.26.44-.05.06-.18,0-.22.05.04-.03-.42.33-.42.32l-.1.13s-.16.04-.23.02c0-.04.02-.09-.02-.12-.08-.06.07-.16,0-.16,0-.03-.01-.06,0-.09.17-.43.3-.79.19-1.27l.02-.04c.03-.16.14-.04.16.07h.04c.08-.09.19-.1.33-.03.08.1.11.04.08-.2,0-.07.06-.11.17-.12.02-.12.04-.21.19-.21.02-.13.09-.21.23-.25-.02-.13-.02-.33.16-.28.05-.1.07-.21.05-.33.05-.04.11-.07.18-.09-.04-.09-.05-.17-.04-.25.09-.03.2-.13.19-.23-.04,0-.04-.04,0-.11,0,0-.02-.01-.03-.02-.01-.01.14-.27.16-.29.02-.03.04-.04.08-.02.02-.07.05-.1.07-.07.05-.02.07-.05.08-.1.12-.12.15-.21.08-.26-.02-.05-.01-.11.03-.19l.03-.24c-.03-.07-.03-.13,0-.18-.03-.08.18-.14.25-.12.03-.12.05-.24.04-.36.02-.13.06-.26.13-.37-.08-.08-.04-.16.03-.24-.1-.07-.13-.12-.07-.15,0-.02.05,0,.07,0v-.02c.13,0,.25,0,.36-.03.03,0,.06-.02.09-.03l.28-.07c.06,0,.11-.01.15-.04.06-.02.14-.04.19-.06Z"/>
      <path class="cls-27" d="M21.95,11.78c-1.06.6-2.28.43-3.33-.12s-1.89-1.53-2.22-2.71c-.29-1.02-.15-2.11.38-3.02.03-.05.42-.35.5-.41-.46.96-.57,1.97-.33,3.02.06.24.14.46.24.68.61,1.39,1.88,2.35,3.39,2.57.46.07.91.04,1.38-.02Z"/>
      <path class="cls-1" d="M13.17,2.22c-.06,0-.12,0-.19,0-.08,0-.16,0-.24-.02-.09,0-.17-.01-.26,0-.21-.01-.41-.01-.62,0-1.5.04-2.97.44-4.31,1.1-.11.02-.22.03-.32.03-.03.08-.1.13-.2.16-.19.15-.38.25-.62.32-.03,0-.36.03-.38.03-.04-.01-.06-.03-.08-.07-.06.09-.21.19-.19.03.08-.05.2-.17.29-.21.1.02.15,0,.13-.06l.03-.05c2.02-1.39,4.66-1.99,7.09-1.68-.05.16-.1.3-.12.44Z"/>
      <path class="cls-90" d="M20.24,12.44c.11.01.22.02.33.03v.02s-.07,0-.07,0c-.02.01-.03.02-.05.03-.11.05-.67,0-.83-.03-.14-.02-.54-.07-.62-.15-.01-.01-.03-.03-.04-.05-.02,0-.04.01-.06.01-.12,0-.85-.32-.91-.41-.01-.02-.02-.03-.03-.05l-.12-.02c-.16-.1-.74-.54-.79-.68,0-.02-.01-.04-.02-.06-.02,0-.05-.01-.07-.02s-.04-.02-.06-.04c-.46-.48-.89-1.2-1.07-1.84,0-.02,0-.04,0-.07s0-.05.01-.07c-.08,0-.12-.16-.06-.21-.02-.02-.03-.03-.04-.05s-.02-.03-.03-.05c-.09-.53-.1-1.1,0-1.63.05-.29.13-.61.28-.85-.02.01-.04.02-.06.02-.24,0-.72-.15-.94-.25-.19-.09-.77-.39-.85-.55,0-.02-.01-.04-.02-.06l-.11-.03c-.26-.27-.48-.56-.65-.9-.15-.32-.3-.76-.33-1.11.04-.03.05-.06.03-.11,0-.02,0-.03,0-.05-.03-.03-.02-.35,0-.36,0,0,.02,0,.03,0,.02,1.77,1.5,3.22,3.33,3.11-.45.91-.57,1.84-.37,2.83.25,1.09.88,2.03,1.77,2.71.7.53,1.54.88,2.41.93Z"/>
      <path class="cls-7" d="M17.21,5.17c-.21.2-.41.31-.58.51-.87.11-1.74-.16-2.37-.77-.72-.69-1.05-1.73-.81-2.7.03.82.3,1.58.87,2.15.77.76,1.83,1.05,2.89.81Z"/>
      <path class="cls-84" d="M2.29,15.27s.07.09.09.15c.24.69.46,1.28.81,1.93s.71,1.18,1.16,1.72l.03.08.08.02c.12.15.24.28.37.41l.02.08c.07-.03.12.03.09.1.98,1.01,2.19,1.78,3.49,2.32.07.03.14.03.18.08-.76-.23-1.49-.6-2.18-1.02-2.13-1.33-3.72-3.38-4.46-5.76.02-.11,0-.17-.07-.26,0-.03-.02-.05-.03-.08.03-.02.16-.09.19-.07.09.03.11.17.12.26.03,0,.06.02.09.03Z"/>
      <path class="cls-71" d="M7.55,3.29c-.51.25-.99.59-1.46.93-.59.43-1.09.92-1.58,1.44-.09.05-.17.07-.29.07-.16.04-.32.08-.47,0,.58-.72,1.22-1.43,1.99-1.94.02,0,.04.04.06.04.05,0,.07-.11.14-.12.03,0,.05.06.07.08.1-.04.27,0,.38-.03s.23-.07.33-.13c.12-.07.25-.2.4-.24.03,0,.03-.08.05-.09.02-.02.32-.04.36,0Z"/>
      <path class="cls-56" d="M4.51,5.66c-.36.39-.65.84-.94,1.27-.01.06-.02.12-.05.17-.14.24-.28.49-.42.73-.03.05-.08.09-.12.13-.02.03-.06.04-.12.03-.07.15-.3.26-.44.13-.04-.04-.04-.05-.03-.12.35-.82.81-1.59,1.37-2.28.08-.05.17.01.24,0,.11-.02.21-.07.35-.05.05,0,.12-.07.16-.02Z"/>
      <path class="cls-41" d="M2.22,10.07v.09c-.09.55-.17,1.11-.22,1.66,0,.18-.02.34-.07.5-.06.21-.13.26-.3.09l-.03.16c-.03.06-.05.1-.09.03-.04-.8.05-1.59.19-2.37.03-.03.05-.07.05-.13l.05-.02c.02-.29.12-.26.34-.18.07,0,.09.05.08.16Z"/>
      <path class="cls-72" d="M2.98,7.95c.06.08,0,.16-.07.19-.25.58-.44,1.17-.61,1.78-.01.05-.04.1-.08.14-.03-.01-.02-.06-.03-.11-.08.03-.17-.08-.24-.06-.09.02-.11.17-.09.24-.04.02-.08,0-.09.01-.03.03-.05.16-.07.09.14-.77.38-1.51.69-2.23.03.07.12.13.2.12.29-.03.13-.26.39-.17Z"/>
      <path class="cls-18" d="M2.29,15.27s-.13.03-.14-.03c-.01-.08-.02-.18-.09-.23-.05,0-.13.08-.18.03-.25-.79-.33-1.61-.38-2.44.08.02.03-.13.1-.24.11-.02.11.1.18.1.09,0,.07-.12.15-.14.02.06.04.13.05.19.05.9.09,1.77.32,2.65v.1Z"/>
      <path class="cls-46" d="M21.02,12.41c-.06.07-.16.05-.26.05l.05.07c-.09-.03-.16-.07-.24-.05-.02-.06-.34.01-.33-.05.26.02.53.03.78-.03Z"/>
      <path class="cls-71" d="M6.04,3.57s.12-.08.16-.12c.02.05.04.11-.02.15-.05.03-.1.03-.14-.03Z"/>
      <path class="cls-18" d="M1.98,15.38c-.03-.08-.06-.17-.07-.26.05.02.09.05.1.09.02.06,0,.13-.04.17Z"/>
      <path class="cls-70" d="M21.45,12.3s0,.04,0,.07c-.05-.02-.09-.03-.14-.03.04,0,.11-.03.15-.04Z"/>
      <path class="cls-44" d="M7.29,18.37v.05s-.93.55-.93.55l-.09.09c-.03.08-.07.13-.12.15-.05.04-.05-.14-.07-.19-.03-.05-.3-.07-.37-.13-.06-.04-.08-.13-.18-.09-.07-.17-.07-.3-.23-.41-.05-.03-.13,0-.17-.05,0-.03.01-.07.01-.11-.04-.07-.14-.04-.2-.09-.11-.09-.21-.16-.36-.21-.04-.03,0-.14.05-.19-.13-.11-.14-.27-.14-.43-.06-.02-.12-.07-.17-.11-.04-.03-.11,0-.16-.04-.03-.03-.02-.11-.05-.15-.07-.09-.16-.16-.17-.28-.17.02.03.18-.09.23-.04.01-.07-.04-.09-.07-.04-.08.15-.13-.03-.41-.02-.03-.09,0-.11-.02-.07-.11-.06-.25,0-.37l-.23-.18s-.05-.05-.06-.07c-.03-.03.03-.06.03-.1-.01-.23-.13-.17-.18-.27l-.06.02s-.05-.05-.02-.07c.03-.03.07-.04.07-.07,0-.03-.03-.17-.12-.16-.05,0-.03.05-.04.1,0,.06-.16.07-.17.02.07-.47-.11-.28-.07-.45.01-.07-.08-.08-.1-.12-.05-.1-.02-.24-.06-.34-.05-.12.04-.2,0-.29-.03-.09-.14-.1-.23-.08-.12.02-.11-.2-.14-.14-.06-.02-.06-.04,0-.07,0-.08,0-.16.03-.23-.04-.04-.06-.09-.05-.15.01-.2,0-.39-.05-.58.03-.08.03-.16,0-.26.05-.09.06-.18.03-.27.02-.11,0-.19-.06-.25-.02-.07-.02-.14,0-.21l-.02-.18-.04-.09c.07-1.06.29-2.23.75-3.19.04-.03.05-.05.01-.03.04-.09.07-.17.09-.24.03-.06.04-.14.07-.19.19-.35.38-.69.6-1.02.03,0,.07-.03.11-.02.06.01,0,.08.04.12.01-.05.03-.08.1-.1.04-.01.04.04.03.08,0,.03-.04.03-.07.05-.09.05.07.18-.02.24-.03.02-.11-.03-.13,0-.03.05.03.12-.05.21-.01.02-.02.04,0,.06,0,0,.02.02.03.03.06,0,.07.07.06.11,0,.03-.08.08-.09.05l-.04-.13s-.09.01-.1.04c-.01.07-.05.27,0,.29.08.02.13-.18.29-.11.03,0-.02.27-.04.28-.02,0-.06,0-.08-.01-.04-.02.03-.14-.05-.13,0,0-.11.09-.08.13.06.07.1.18.02.24-.02,0-.06-.05-.08-.04-.03.02-.04.04-.06.07-.03.07-.04.11.03.19-.11,0-.19.17-.13.23.09.08.11.12.08.24-.02.08.06.21,0,.28-.02.02-.1,0-.08.05,0,.02.02.05.05.07.07.04-.03.12,0,.16.05.08.1.23-.01.29-.03.02-.09,0-.1.03-.03.06,0,.14-.05.15-.01,0-.04-.01-.05,0-.1.09-.06.21-.03.33.1.33-.03.36-.01.42.03.11.04.2,0,.29l-.06.17c-.02.07-.04.17-.04.24,0,.09.07.18.03.28-.05.12.02.21.08.32.02.05.02.18.12.12,0-.09-.03-.22.05-.31.15.15-.09.31.07.33.08.01.06-.18.12-.13.04.04.03.16-.02.19-.18.13,0,.12-.12.33.11.04.04.11.05.18.01.13.03.27.06.39.01.07.11.12.07.22,0,.02.04.06.02.08-.01.01-.03.02-.05.03-.05.03-.04.06-.02.09.02.04.06.02.11.01.03.03.1.11.1.16,0,.05-.06.09-.06.14,0,.1.18.07.21.45-.04.05-.11.06-.13.12-.01.03.02.06.04.08.03.02.06,0,.1,0,.05,0,.08.04.14.03.01-.05,0-.09.01-.14,0-.03.05-.03.07-.03.02,0,.03.02.04.04.03.08-.06.13-.09.18.12.38-.05.12.25.44-.08.1-.09.38-.05.41.03.02.14.04.19,0,.03-.02.02-.08.05-.09.06-.02.06.04.05.08-.01.09-.16.04-.07.12,0,0,.03,0,.05,0,.17.05.2.39.1.44.07.05.16.02.2.08.03.04.02.1.06.1h.1c.06-.02,0,.1,0,.14.06.06.18.08.28.07.03.08.1.16.1.23s-.02.17.07.21c.03.01.08,0,.09.03.03.05.04.29.19.25.03,0,.04-.09.09-.09.03.12.09.2.21.24.02.02-.02.07-.03.1.09.09.25.12.32.23.04.06.1.13.14.19.06.1.09.18.24.18.06,0,.05.12.08.14.05.04.14-.02.21,0,.14.01,0,.22.16.26.09.02.08-.14.14-.15.09-.02.02.1.11.09Z"/>
      <g>
        <path class="cls-87" d="M11.87,2.19c.21-.01.41-.01.62,0,.04-.08.22-.07.26,0,.08.01.16.02.24.02.04-.07.14-.07.19,0l-.06.38c-.03.05-.04.14-.03.25-.03.13-.03.25,0,.37.04,0,.04.03,0,.05,0,.02.01.12,0,.12-.02,0-.15-.14-.15-.16,0-.09-.02-.17-.06-.23-.03.03-.07.02-.11,0-.3.08-.62.15-.93.08-.19.03-.36-.02-.53-.15.01.12-.08.14-.27.06-.02.07-.08.08-.14.09-.13.14-.29.13-.46.1-.09.11-.16.12-.22.04-.1.04-.21.03-.33-.02.11.12,0,.27-.16.24-.2-.14-.36-.14-.47-.01l-.11.04c0,.18-.1.25-.31.2l-.06.02c.04.18-.08.24-.36.18v.04c.26.13.11.37-.12.21-.06.03-.13.03-.2.01,0,.04-.04.08-.07.1-.13.1-.35.23-.52.23-.03.1-.08.18-.19.18-.07.18-.21.26-.38.13-.05.13-.12.21-.26.21,0,.08-.05.13-.16.16-.06.08-.13.14-.2.2-.01.2-.15.3-.32.15-.02.05,0,.11.09.17.02.08-.02.11-.13.08-.01.14-.04.25-.2.25.06.09,0,.16-.18.2l-.05.13c-.09.07-.11.15-.07.24.07.08.14.18,0,.22-.14-.06-.22-.06-.25,0,.02.19-.04.3-.18.33.01.3-.03.59-.13.86-.07.11-.15.23-.21.35-.02.08-.05.14-.11.18l.08.19c.17.14,0,.44-.16.25-.04.16-.02.3.05.41,0,.04-.02.07-.03.11.11.13-.09.43-.21.24,0,.16,0,.3.04.44-.08.07-.08.14,0,.23,0,.25,0,.5.02.74,0,.13,0,.26.01.4.17-.09.18.23.1.33-.12-.04-.11.06-.07.15.21.16.2.33.03.5v.04c.22,0,.24.3.05.37.03.08.09.14.19.18.04.1.07.1.09,0,.19-.03.22.19.07.29-.04.27-.01.41.14.06.09-.04.09,0,.07.08l.02.04c-.26,1.05.41,2.14,1.47,2.36l.05.06.05.02.02.17c.17-.02.44.05.49.23.14.01.16.07.15.2.16.11.33.28.41.45.09-.02.17,0,.24.04.07.14.22.23.35.13.23-.01.4.1.3.35h.05c.08-.24.34-.16.38.07.18-.01.34,0,.38.2.22-.03.35.03.38.17.18.03.35.07.52.13l.03.07c.2.01.4.01.6,0,.12.06.25.1.39.13.12.1.26.14.4.11.15.1.25.08.39,0,.07.03.12.03.13-.02.09-.02.19-.04.29-.06.13.05.26.06.37.02.18-.14.39-.24.61-.12.1-.08.2-.11.3-.08.12-.13.29-.08.31.1.05-.01.08,0,.11.02l.07.05c.23.49.63.9,1.15,1.07l.06.07.05.03c-.07.08-.16.13-.29.16.07.18-.02.24-.18.3-.15.02-.29.06-.41.13-.03.14-.35.15-.35-.01l-.16-.08c-.08.12-.2.16-.37.1-.1.01-.18.06-.26.13-.07,0-.1.02-.09.07-.07.12-.18.09-.33-.07-.09.26-.13,0-.11-.13v-.05s-.07-.02-.07-.02c-.07-.2-.27-.35-.5-.31-.18.03-.82.44-1.01.56-.04.02-.08.05-.11.07-.05.06-.1.08-.15.07-.03.02-.07.02-.12,0-.04.13-.39.13-.5.1-.16-.04-.24-.11-.07-.22-.08-.03-.16-.07-.24-.11-.22.18-.42.25-.59-.03-.11-.02-.17-.04-.2-.16-.06.02-.13.03-.21.03-.19.12-.32.11-.37-.03-.1-.05-.16-.15-.17-.28-.09-.04-.11-.02-.15.06-.14.1-.39,0-.25-.19h-.05c-.14.05-.32,0-.17-.15-.2-.02-.12-.13-.04-.24l.03-.07s-.01-.01,0-.04l-.03-.05c.18-.43-.2-.81-.63-.61l-.06-.02c-.05.02-.09.03-.1-.03-.12.24-.3.14-.29-.11-.12.03-.22.02-.28-.04,0-.09-.04-.13-.11-.12l-.09-.05-.27-.37c-.11-.06-.21-.13-.29-.21l.02-.08c-.08-.04-.15-.1-.18-.19-.16.16-.28-.05-.3-.21-.14-.02-.2-.12-.18-.29l-.08-.16c-.14,0-.36-.03-.28-.22-.13.01-.15-.03-.19-.13-.09,0-.15-.04-.19-.09.07-.14.06-.39-.13-.41l-.05-.07c-.31.02-.24-.28-.17-.48-.16-.13-.2-.25-.23-.45-.04,0-.08-.01-.12-.03-.22.04-.27-.17-.06-.26-.02-.16-.09-.29-.21-.41v-.06c.07-.08.07-.15,0-.21-.16.03-.22-.14-.08-.22v-.1c-.12-.2-.17-.45-.14-.68-.05-.03-.06-.1-.02-.18-.02-.1.01-.19.11-.27-.04.06-.12.06-.17.01-.07.03-.1.04-.16-.02,0,0-.1-.23-.11-.24-.04-.12-.03-.17,0-.29-.06-.23-.04-.46.07-.69,0-.08,0-.15-.02-.23.06-.17.06-.34-.02-.53-.02-.11.02-.25.14-.26,0-.1.04-.17.14-.16.05-.06.05-.15-.02-.25.04-.08.04-.13-.01-.16-.05-.08-.02-.13.08-.17,0-.13-.01-.25-.03-.38-.14-.11-.1-.25.02-.36-.05-.11.05-.33.18-.24,0-.06-.01-.12-.06-.2l.03-.08c-.16-.02-.12-.41.04-.43.05-.08.07-.16.06-.25.02-.07.08-.1.18-.09-.03-.06-.04-.13-.03-.19-.05-.03-.06-.05-.05-.1-.05.01-.08,0-.09-.03,0-.02,0-.05,0-.07s0-.04.02-.06c.25-.38.5-.75.79-1.09.01-.02.03-.02.05-.04s.04-.02.06-.02c0-.03.02-.06.03-.08s.03-.05.04-.07c.79-.85,1.79-1.65,2.81-2.2l.15-.02s.04-.05.07-.07.05-.04.07-.05c1.28-.59,2.67-1,4.08-1.01l.09.03Z"/>
        <g>
          <path class="cls-76" d="M13.11,2.6c-.01.08,0,.18,0,.26-.02,0-.02.02-.02.05v.31s-.04-.02-.04-.04c0-.03.02-.05.02-.08v-.49s.05,0,.06,0Z"/>
          <path class="cls-44" d="M3.18,10.42c.13-.02.12.29.13.25,0,.02-.04.02-.06.03-.09.02-.03-.23-.07-.28Z"/>
          <path class="cls-76" d="M4.09,11.1s-.1.08-.11.05c-.04-.07.01-.17.06-.22.03.04.06.1.05.17Z"/>
          <path class="cls-76" d="M4.03,11.34s-.08-.04-.08-.07c0-.03.01-.1.04-.09.04.03.08.12.04.15Z"/>
          <path class="cls-76" d="M12.49,2.19c-.2.02-.41,0-.62,0-.01-.03.63-.03.62,0Z"/>
          <path class="cls-76" d="M4.26,9.48s-.02-.08-.01-.1c.01-.03.07-.03.08,0,0,.03,0,.06,0,.08,0,.02-.03.04-.07.02Z"/>
          <path class="cls-76" d="M4.06,11.6s-.07-.07-.07-.1c0-.04.04-.06.07-.08-.01.07,0,.12,0,.18Z"/>
          <path class="cls-44" d="M3.78,14.04s-.02-.1,0-.14c.05.01.05.06.05.08,0,.02-.03.07-.05.06Z"/>
          <path class="cls-76" d="M4.43,8.35s-.05-.05-.05-.07c0-.04.05-.02.07,0,.02.01,0,.09-.02.07Z"/>
          <path class="cls-44" d="M3.27,10.89s-.04.04-.05.03c-.03-.01-.03-.05,0-.07.02-.02.03-.04.05-.02.02.01.02.03,0,.06Z"/>
          <path class="cls-76" d="M12.98,2.21c-.08,0-.17.03-.24-.02.08,0,.17-.02.24.02Z"/>
        </g>
      </g>
      <path class="cls-62" d="M2.09,11.7c.02.1.02.19,0,.28.04.18.05.36.03.55,0,.31.03.62.07.93.03.12.04.24.02.37,0,.02,0,.05,0,.07.11.99.67,2.42,1.19,3.3.55.93,1.23,1.78,2.05,2.47l.49.41c.05.04.12.07.15.13-.07-.01-.13-.04-.21,0,0-.09-.04-.1-.09-.12l-.05-.09s-.06,0-.11,0c-.02-.04-.01-.08-.03-.14-.1.01-.13-.1-.19-.13-.12-.05-.23-.1-.32-.22-.04-.05-.13,0-.15.03,0,.05.09.06.1.1.02.07-.08.07-.11.09-.03-.03-.06-.07-.09-.1,0-.11-.02-.2-.07-.27-.1-.03-.12-.1-.07-.2-.14-.02-.19-.07-.28-.17.03.09,0,.14-.06.13-.4-.45-.76-.94-1.06-1.48-.43-.76-.8-1.56-1.02-2.4-.26-.96-.37-1.95-.36-2.94,0-.76.12-1.52.29-2.26.15-.66.41-1.3.69-1.92.1-.15-.1.31-.07.24-.14.28-.22.58-.32.88-.04.12-.09.22-.11.35-.03.18-.09.34-.12.51-.07.31-.1.62-.14.93-.03.22-.04.43-.05.64Z"/>
      <path class="cls-3" d="M14.13,5.42c.3.27.65.48,1.03.63.28.11.56.15.86.2-.37.84-.4,1.73-.24,2.6-.15.02,0,.22-.14.22-.05-.3-.12.06-.43-.24-.04.06-.08.11-.12.11-.05,0-.12.01-.14-.04s0-.13-.04-.16c-.04-.02-.11,0-.12-.04l-.03-.12s-.16-.02-.15-.09,0-.12-.02-.18c-.04-.1-.02-.22-.05-.33-.09,0-.18.02-.26,0s-.07-.14-.1-.2c-.11,0-.25.05-.34-.03-.08-.08.1-.09-.28-.18-.14-.03-.44.05-.51-.08-.02-.03-.07-.1-.01-.13.03-.02.07-.02.08-.04s0-.04-.03-.05c0,0-.35.1-.38.11-.2.08-.4-.05-.53-.03-.07.01-.25.03-.25-.06,0-.11.17-.07.23-.07.11.01.2-.02.29-.03.01,0,.02-.04.02-.05,0-.03-.29-.02-.29-.02-.32-.05-.36-.04-.64.05-.04-.16.15-.05.35-.21.02-.01.05,0,.04-.04,0-.01-.01-.03-.03-.03-.02,0-.03.03-.05.03-.1.03-.2,0-.31.01-.08.17-.17.13-.22.22-.02.04-.02-.04-.03-.05-.06-.03-.05.07-.08.09-.08.04-.13.08-.16.16-.04-.01-.08-.05-.11-.02-.02.02-.06.04-.07.06l-.03-.05c.13-.4.14-.83.02-1.23,0,.04,0,.05-.02.04l-.07-.06c-.11-.32-.3-.6-.56-.81l-.03-.08.25-.06c.06-.01.1-.07.16-.04.11.05.16-.03.23-.1.07-.07.42-.08.44-.04.02.03.06.08.02.11-.06.04-.13-.02-.2,0-.1.02-.19.07-.29.1.04.09.13.03.19.06.13.06.26.05.4.05.08,0,.16.08.24.04l.06.02c.2.45.71.59.99.13l-.04-.04.05-.2c-.01-.08,0-.15.03-.21,0-.04.04-.13.09-.1.09.05.03.17.03.24,0,.1.17.15.24.1.05-.04.09-.04.15-.03.03,0,.05.07.1.08.1.03.21-.03.33,0,.04-.08.02-.15-.02-.22.02-.04.02-.08.06-.11,0,.1.12.17.14.25,0,.1-.02.2.1.25.02,0,.07.05.08.03l.04-.08s.04,0,.05,0,.04,0,.03-.02Z"/>
      <path class="cls-3" d="M15.85,9.05c.22.77.62,1.47,1.19,2.04-.09.03-.1.13-.1.22v.4c.02.07.1.16.05.24-.04.03-.08-.04-.09-.08l-.07-.28c-.08.08-.03.18-.05.26-.03.1-.03.17-.02.26.02.14-.03.28,0,.41.03.11.06-.14.06.3,0,.06-.05.11-.11.09-.18-.05-.02.1-.21.3-.04.05,0,.14-.04.19-.19.28,0,.13-.14.41.02.03.09.03.09.06,0,.04-.03.07-.05.1,0,.04.05.05.06.08.01.04-.01.09-.04.11-.1.05-.22-.17-.26-.07s-.09.14-.16.21c-.05.05-.07.14-.19.13.03.06.04.1.03.14,0,.03-.04.08-.08.08-.06,0-.11-.05-.17-.02-.02.05,0,.1-.04.14l-.05-.09s-.09-.03-.11.01c-.02.05,0,.1-.01.14-.06-.03-.13-.02-.16.01-.03.02-.03.07-.01.13-.05.02-.12,0-.16.05-.03.04.02.1,0,.13-.04.13-.21.01-.21.15,0,.04.06.03.09.06.03.03-.06.12-.1.11-.03,0-.04-.03-.07-.02-.01,0-.03.04-.05.04-.08,0-.13.02-.18.11l-.03-.11c-.2.06-.03.36-.28.2.02.08.02.14-.03.19-.13.13-.19-.06-.32,0-.1.05-.02.1-.09.22-.03.04-.4.05-.48.06-.05.01-.06.09-.1.14-.13-.02-.26.02-.38-.02-.08-.03-.17-.11-.24-.02.06.04.12-.02.14.09-.11-.07-.17.06-.24.07-.14.02-.27,0-.42.04-.08.02-.14-.11-.17-.16l-.04-.05c.02-.19-.07-.36-.23-.46v-.06s0-.06,0-.06c.06-.02.07-.03.04-.05-.07.02-.14.02-.21,0l-.07.02c-.11-.06-.22-.13-.33-.21l-.02-.07c.04-.06.1-.09.18-.07.2.06.4.07.61.08.11,0,.21.04.32,0,.13-.03.27.03.39,0l.14-.02c.06,0,.15.05.2,0,.04-.04,0-.12.02-.17.1-.03.19.01.28,0,.08,0,.15-.04.22-.05.04,0,.06-.06.08-.09.09-.12.17.09.17-.08,0-.04-.2.02-.28-.04.09-.05.14-.12.23-.16.05.05.04.1.05.16l.27.02s.08.02.1-.02c.04-.05-.04-.13.02-.18.02-.02.17.07.18,0,.02-.08-.04-.14-.03-.22.09-.01.13-.1.2-.13.06-.03.15-.03.18-.11.04-.1.14-.1.22-.17l.14-.11s.02-.12.05-.13l.15-.06.04-.15s.11-.02.16-.05c0-.28.15-.08.06-.33l.16-.06c-.06-.14.02-.46.08-.59.03-.06,0-.14.12-.15.01-.06-.03-.12,0-.17.02-.02.07-.01.1-.03.03-.02.01-.07.03-.1.2-.26.04-.39.12-.62.04-.1-.02-.16-.05-.24-.07-.2-.05-.43-.05-.64,0-.15-.19-.04-.17-.22.01-.08.06-.07.14-.09.05-.01.05-.14.04-.2-.02-.07.03-.11.07-.15.02-.02-.03-.06-.05-.05-.01.01-.05.03-.07.03-.07,0-.06-.1-.1-.14-.12-.14-.03-.18-.08-.22-.04-.03-.13.01-.15-.02,0-.01,0-.26.01-.31,0-.07-.12-.11-.14-.17.12-.18.15.05.29-.06.05-.04.09-.08.15-.08Z"/>
      <path class="cls-50" d="M17.96,11.84c.31.19.66.33,1,.45,0,0-.04,0-.05.02,0,.01.03.03.04.04.05.1-.05.22.06.3.02.01.06-.03.09-.02.06.02.03.15-.02.17-.03.01-.05,0-.07,0-.05.03-.08.32-.08.31-.12.19-.09.41-.22.71-.03.07-.13.12-.09.22-.26-.1.04-.16-.08-.37-.01-.02-.05,0-.06,0-.01.01-.05.23-.05.25,0,.04.04.07.02.1l-.05.06s-.02.07,0,.1c0,.02.05.03.08.01.02,0,.02-.03.05-.05.03.12.13.2.08.24-.06.05-.21-.08-.21-.07-.03-.05-.01-.11-.06-.16-.09.05-.13.2-.05.27.02.01.08-.03.1,0,.02.03.02.06.01.1-.01.07-.08-.05-.14.16-.07-.04-.14-.1-.21-.06-.02.01-.09.29.02.29.02-.01.04-.05.05-.06.02,0,.06-.01.06.03.01.07-.03.18-.1.21-.05.02-.04-.09-.07-.11-.05-.03-.14,0-.17.05-.03.05-.07.16,0,.18l.13.05c-.01.13-.23.39-.24.39h-.1s-.03.08-.08.06c-.03-.01-.02-.09-.07-.09-.03,0-.01.08-.02.12,0,.04.07.04.08.07.03.07-.03.15-.05.22-.08-.01-.17-.08-.25-.04-.05.02.04.06.05.08.03.05.06.12.12.17.04.03.1.09.1.14l-.05.03c-.34-.39-.78-.66-1.3-.7l-.07-.05s.05-.02.03-.03c-.1-.09-.28.02-.39-.07-.05-.04.07-.14.12-.11l.19.11s.04-.06.06-.06c.03-.01.05.02.08.02.12,0,.21-.08.23-.19.03-.16.24-.18.2-.34-.04-.02-.13,0-.12-.06.01-.19-.19-.04-.19-.16,0-.04.02-.06.06-.07l.37-.12c0-.06-.02-.13.01-.16.25-.2.24-.06.34-.17.04-.05,0-.1,0-.16.07-.21.18-.24.15-.36,0-.02.02-.05.03-.06.01,0,.03,0,.05,0,.02,0,.02-.02.03-.03,0-.03-.07-.04-.06-.09s.1-.04.15-.1c.03-.04,0-.1.03-.14.02-.03.13-.02.12-.07,0-.11,0-.22-.01-.32-.01-.12.04-.17.09-.27.02-.05.03-.47.06-.52.04,0,.05.04.07.05.05,0,.1-.04.11-.08,0-.05,0-.14-.06-.14,0,.18-.2.08-.23.19-.05.16.07.48-.06.4-.14-.08-.04-.16-.05-.35,0-.08.02-.12.04-.19,0-.02-.03-.08,0-.1.09-.09.09,0,.28.02.02-.08.07-.1.13-.09Z"/>
      <g>
        <path class="cls-55" d="M22.28,14.33c-.08.24-.14.48-.17.74,0,.02-.02.04-.02.06-.11-.04-.15.26-.17.31-.03.07-.08.13-.11.22l-.12.29c-.18-.07-.18-.03-.3-.11-.05,0-.2.35-.22.4-.03.07-.1.12-.12.2-.01.05-.05.08-.09.08.08-.17.15-.35.24-.52l.26-.74c.29-.82.52-2.2.48-3.06,0-.03-.02-.06-.03-.07.08-.05.14-.1.24-.14.12-.05.2-.16.34-.22.05.47.02.93-.02,1.4-.04.4-.06.8-.18,1.17Z"/>
        <path class="cls-78" d="M22.11,15.07c0-.08-.03-.16.02-.24-.01-.09.03-.51.14-.5-.02.25-.08.5-.17.74Z"/>
        <path class="cls-78" d="M21.62,15.37s-.06.04-.08.03c-.02-.01-.02-.05,0-.09.04,0,.06.04.09.06Z"/>
      </g>
      <path class="cls-78" d="M4.86,19.66c-.18-.15-.32-.34-.48-.52.04-.05,0-.12-.02-.16.1-.07.18.07.22.13.05.03.2,0,.19.11,0,.02-.04.05-.04.09,0,.04.05.03.08.06.09.06.12.31.05.3Z"/>
      <g>
        <path class="cls-76" d="M13.08,3.26c.09.82.42,1.6,1.05,2.16.05.06,0,.06-.06.07-.12.18-.35-.06-.3-.24l-.08-.12c.01.07.03.16-.04.21-.02.02-.46.06-.45-.07h-.07c-.21.14-.42-.02-.33-.26v-.05s-.06.04-.1.05h-.06c-.19-.34-.38-.68-.58-1.02-.25-.32-.69-.24-.82.13l-.06.02c-.02.11-.01.23.03.34.14.25.28.51.42.77v.05c-.04.07-.12.07-.24.01-.15,0-.3,0-.45-.06-.07.02-.22-.02-.19-.11.03-.08.39-.17.49-.12-.07-.09-.29-.03-.4,0-.09.1-.17.16-.3.11-.13.07-.26.09-.38.06h-.09c-.9-.64-2.17-.32-2.66.67l-.07.05s-.03,0-.02-.01l-.07.19c-.21.69-.1,1.35.38,1.9l.02.08s.02.02,0,.02c.03.04.02.05,0,.09-.03.05-.18.15-.24.17l-.02.05h-1.23c-.32.03-.5.34-.38.65l-.04.05c.09.23.26.29.49.31h.91s.03.05.03.05c.03.03.02.06-.02.09.08.1.1.19.04.26.1.12.04.31-.12.2-.07.05-.11.11-.13.17.26-.1.39.36.09.33-.18-.18-.22.44-.08.51.11.09.15.15.11.29.03.07,0,.14-.09.22-.04.16,0,.22.12.18.07.04.06.12-.01.23.14.06.09.17-.05.15l-.02.03-.07.04c-.8-.04-1.54.46-1.8,1.22l-.07.05s-.05.05-.08.07c0-.02.02-.04-.02-.06-.1.15-.1.27-.21.23-.03-.01-.02-.06-.03-.1-.08-.33.15-.26.09-.41-.01-.03-.04-.07-.09-.07,0,.07-.02.12-.07.14-.04-.04-.04-.11-.08-.13-.1-.04-.19-.1-.19-.22.03-.04.1-.04.12-.1.02-.05,0-.16-.04-.19-.05,0-.11,0-.13-.06-.03-.09.02-.11.07-.16.1-.09.03-.26-.07-.33-.1-.07-.06-.21-.03-.34.04.03.03.08.09.1.03-.1.03-.2,0-.29-.05.02-.05.05-.08.08-.09-.06-.02-.26-.06-.33s.01-.13,0-.17c-.04-.16,0-.3,0-.45,0-.07-.03-.16,0-.24,0-.05-.09-.12-.08-.19,0-.04.03-.06.07-.09-.08-.09-.04-.2-.04-.3,0-.09-.05-.21.04-.28.02.08.04.17.1.18.23-.29-.04-.16.1-.36-.13,0-.06-.66.01-.56.02.03,0,.14.07.15.06.01.09-.07.1-.11.01-.06-.05-.09-.07-.14-.04-.08-.05-.16-.12-.23.1-.02.11-.08.13-.15.03-.08.11-.14.12-.22.03-.13.18-.09.21-.65,0-.1.04-.19.02-.3,0-.04,0-.09.03-.09l.08-.03c.1-.04.04-.22.09-.31.07-.14.28.04.31-.02.05-.09-.06-.03-.09-.25-.01-.08.04-.11.09-.17.04-.05.03-.14.1-.17l.19-.07s-.07-.06-.06-.09c.01-.06.13-.02.17-.07.02-.02.07-.2.03-.25.05,0,.07.02.08.02.22.12-.05-.09-.04-.15,0-.04.04-.11.09-.08s.1.09.16.06c.04-.01.09-.08.08-.12-.02-.11.08-.1.11-.15.06-.09.12-.17.25-.17.01-.04,0-.12.03-.12l.11-.02c.07-.01.17-.25.14-.25.02,0,.03-.01.04,0,.02.01.01.03.03.06.03.08.21.07.24-.01.09-.26.14,0,.24-.27.02-.06.12-.03.17-.05.11-.02.19-.12.28-.16.23-.1.04-.2.3-.15.05,0,.08-.05.12-.03.03.06.08.08.13.06.03-.01.07-.07.02-.11s-.16-.08-.11-.17c.05-.06.35.06.36-.04,0-.05-.03-.11,0-.14.1-.09.28.02.33-.06.03-.05,0-.12.04-.16.03-.03.11-.03.13-.06.05-.07.06-.09.15-.09.13,0,.22.03.33.1.04.02.12,0,.14-.03.01-.02.04-.08,0-.11-.04-.03-.1-.03-.1-.09.25-.03.28.12.46,0,.03.04.03.07.05.08.02,0,.05-.02.06-.04.12-.18.25.11.52-.15.03-.03.12,0,.13-.07-.07-.03-.12.02-.21.02,0-.06.1-.13.14-.1.03.02.38.14.36.08-.02-.03-.03-.07,0-.09.04-.03.06,0,.09.02l.25.13c.08.04.18-.02.26,0,.2.04.38.03.57-.02.1-.03.23-.02.32-.07.02-.01.07.05.09.02,0-.02.01-.05.03-.08s.05,0,.05.02c0,.01-.02.05-.01.06.05.07.05.17.06.25,0,.05.13.08.1.16.03-.04.01-.07.02-.1Z"/>
        <path class="cls-100" d="M6.77,11.52c-.06.03-.12.02-.17,0,0-.03,0-.05.01-.07.06,0,.09-.03.11-.08.06.04.06.09.05.16Z"/>
        <path class="cls-100" d="M6.71,11.7s-.07,0-.1,0c-.01,0,0-.06,0-.06.02,0,.06-.01.07.01,0,.02.04.05.02.06Z"/>
      </g>
      <path class="cls-70" d="M2.21,13.83c-.04-.14-.05-.3-.07-.46-.07-.51-.08-1.17-.05-1.67,0,.07.05.13.04.2,0,.04-.05.09-.03.11l.08.08c.06.06,0,.21.05.31.03.08-.05.15-.05.2,0,.08.08.17,0,.26.13.28-.04.56.1.72,0,.07-.05.17-.08.24Z"/>
      <g>
        <path class="cls-11" d="M14.13,16.9s.04.01.03.04c-.01.07-.03.12-.06.17l.02.02c-.07.36-.03.74.08,1.09l-.03.05s-.14.05-.15,0c-.02-.08-.03-.12-.1-.14-.05-.01-.09.01-.13.05-.05.05-.16-.03-.19,0-.06.05-.07.08-.14.09s-.11-.06-.17-.06c-.13,0-.29.06-.39.15-.13.11-.28.05-.43,0-.22.08-.24-.04-.31.14-.04-.02-.09-.09-.12-.06-.11.07-.24.11-.35.02-.07-.05-.15.01-.21-.01-.05-.02-.15-.06-.19-.09-.08-.06-.15-.03-.23-.07-.1-.04-.16-.11-.3-.09s-.5.03-.53,0c-.01-.01-.01-.07-.03-.08-.16-.06-.47-.08-.51-.12-.02-.02-.01-.07-.03-.1-.07-.1-.28-.01-.34-.07-.02-.02-.02-.08-.04-.11-.06-.1-.2-.07-.3-.07-.08,0-.08-.12-.11-.17-.03-.05-.17-.04-.2,0-.03.03-.01.11-.08.11-.03,0-.08.03-.12-.03.09-.09.07-.26-.04-.3-.06-.02-.14-.02-.2-.02-.02,0-.04.07-.06.06-.21-.07-.2-.04-.3-.19-.05-.07-.18-.02-.24-.03-.08-.25-.07-.09-.23-.33-.05-.07-.16-.09-.2-.17-.02-.03.03-.1,0-.13-.03-.02-.08-.02-.13-.02-.01-.13-.11-.17-.22-.2-.1-.02-.17-.09-.28.02.02-.12-.01-.2-.01-.29l.06-.04c.45.07.86-.03,1.25-.25l.05.03h.05c.14.12.28.26.42.39.25.02.26.2,0,.21l.05.08c.04-.06.09-.09.15-.08.08.06.17.12.26.18.21-.05.32,0,.33.19.12.05.16.1.2.22.02.02.45,0,.48-.05.01-.1.07-.14.16-.09.1.2.26.26.47.17.16,0,.3.19.11.24.07.01.12.06.17.13.06-.18.14-.23.23-.14.08-.08.16-.14.25-.03.11-.07.18-.04.27.04.13-.04.24-.02.33.05.02.08.05.13.09.16.07-.19.29-.27.48-.23.24-.06.43-.09.66.05.01-.15.05-.17.18-.08.06-.03.12-.04.18-.04,0-.13.03-.19.17-.15.16-.05.32-.07.47,0,.04-.09.15-.1.11,0Z"/>
        <path class="cls-40" d="M10.37,17.33s-.08.1-.09.07c-.05-.1-.06-.21-.06-.32.18.02-.04.23.15.25Z"/>
        <path class="cls-40" d="M13.53,17.19c-.02.07-.11.02-.18.01,0-.03.04-.05.06-.06.03-.02.13,0,.11.05Z"/>
      </g>
      <g>
        <path class="cls-2" d="M12.93,20.03v.21c0,.08-.01.14-.04.19-.14.18-.31.32-.54.43-.14.09-.55.35-.69.39-.24.08-.49-.06-.6-.27-.04-.21-.1-.4.05-.57.08-.09.15-.14.25-.2l.85-.49c.15-.08.32-.1.47,0,.1.06.21.18.24.32Z"/>
        <path class="cls-53" d="M11.07,20.98c.08.01.11.1.18.15.11.09.33.13.46.06l.63-.37c.2-.12.39-.24.56-.39-.03.05-.03.13-.08.18-.17.16-.95.62-1.15.71-.3.12-.55-.08-.6-.34Z"/>
        <path class="cls-81" d="M11.23,20.57s.05.02.01.04c.04-.12.08-.06.12.03.12,0,.22.03.31.08l.53-.32h.11s0-.05,0-.05c.06-.04.12-.08.19-.11.06-.11.14-.16.24-.16.06.15-.02.31-.16.39l-.93.54c-.12.07-.29.02-.37-.06-.1-.1-.11-.25-.05-.37Z"/>
        <path class="cls-92" d="M12.75,20.07s0,.06,0,.1c-.02-.02-.04-.05-.07-.05-.03,0-.05.04-.06.07-.06.12-.19.14-.28.19l-.09.02c-.22-.07-.42-.06-.59.05h-.08c-.19.03-.24.01-.16-.05l.87-.52c.1-.06.2-.07.31-.02.08.04.13.11.16.21Z"/>
        <path class="cls-17" d="M12.32,20.38c-.21.12-.42.26-.64.38-.25-.12-.38,0-.38-.19-.06.03-.01.08-.05.05-.02-.02-.02-.04-.01-.05.04-.08.09-.14.17-.16,0,.01,0,.04,0,.04.01,0,.04-.04.05-.04.28.06.18-.12.46-.09l.28.03s.08.05.12.04Z"/>
      </g>
      <g>
        <path class="cls-64" d="M8.01,19.05l-.14.18c-.28.2-.6.4-.9.56-.33.18-.7.13-.81-.26,0-.1-.04-.22,0-.32s.11-.24.21-.29l.28-.15.66-.39c.16-.09.35-.11.52-.02.29.16.3.44.2.71Z"/>
        <g>
          <path class="cls-4" d="M8,19.09c-.06.03-.06.12-.12.17-.2.19-.55.35-.78.5-.14.1-.27.19-.45.2-.3.02-.48-.19-.5-.44.05,0,.04.08.06.1.21.28.54.25.8.07.29-.2.62-.31.88-.54l.11-.1s0,.03,0,.04Z"/>
          <g>
            <path class="cls-101" d="M7.82,18.6s0,.07-.03.1c-.03.14-.12.32-.29.26-.25.03-.51.06-.76.09-.07,0-.15-.01-.1-.09l.77-.46c.16-.1.31-.02.41.1Z"/>
            <path class="cls-12" d="M7.5,18.96s.03.02,0,.02c0,.02.02.04,0,.05-.1.07-.75.45-.81.45-.13,0-.37-.1-.35-.25.04-.15.17-.21.29-.28,0,.12.74-.11.86,0Z"/>
            <path class="cls-102" d="M7.69,19.08c-.3.2-.61.37-.92.54-.11.06-.27.02-.35-.06-.1-.09-.11-.21-.08-.33.03.08.12.12.2.17.07.04.13.05.21,0l.74-.43c.07-.06.23,0,.19.09Z"/>
            <path class="cls-68" d="M7.69,19.08c-.06-.04-.12-.09-.19-.09-.02,0-.01-.01,0-.02.31-.11.15-.26.32-.36.13.16.07.41-.12.48Z"/>
          </g>
        </g>
      </g>
      <g>
        <path class="cls-46" d="M18.96,12.29c.49.18,1.02.19,1.54.19,0,.08.1.07.12.13.02.07-.08.07-.07.16,0,.03.03.06.08.1-.27.33-.09.5-.22.79l-.07-.03-.2.09h-.06c-.18-.3-.54-.33-.76-.06l-.39.67h-.06q-.03-.06,0,0c.03.07-.01.15-.09.16-.07.03-.11.1-.12.21.07.02.06.24-.01.26.01.06.04.12.07.17.07.11.13.2.26.25.28.09.42-.03.61-.2.01-.01.03,0,.04.01.03,0,.09.01.08.04-.07.04-.1.11-.14.17-.02.03-.09,0-.1.06-.01.06.13.2.02.27-.04.03-.1.01-.15.05.03.12.01.27-.06.35-.03.03-.07,0-.11,0-.09.04-.02.24-.05.27-.05.08-.22,0-.22.24-.04.04-.11.02-.15.05-.05.04-.02.13-.06.17-.04.04-.11.02-.16.06,0,.07.05.33-.07.33-.08,0,.03-.05-.17-.08-.03,0-.06-.04-.09-.03-.05.01-.09.1-.17.09-.08-.01-.04-.14-.1-.15-.02,0-.04.01-.06.03-.05-.2-.14-.41-.26-.57-.09.02-.2-.13-.12-.19-.11-.12-.22-.24-.32-.36.04-.09.14-.1.28-.04.03-.04.04-.08.04-.13-.17-.07-.09-.38.06-.2.03-.04.08-.05.14-.04.09-.09.15-.19.19-.31-.27-.05-.14-.4.1-.36-.11-.18-.01-.49.24-.32l.04-.07c.06-.03.08-.05.08-.07-.22.04-.2-.3-.02-.35.06-.07.08-.15.06-.22.01-.45.36-.31.17.04,0,0,.01.02.01.01.06-.08.11-.18.14-.28.03-.21.09-.4.17-.59,0-.13.03-.24.1-.33.12,0,.15-.12,0-.08-.08-.07-.1-.17-.07-.3-.05-.08-.06-.13.05-.1Z"/>
        <path class="cls-50" d="M19.16,13.23c-.14-.15-.07-.12-.09-.31,0,0,.03-.03.05,0,.05.06.04.15.03.22-.01.04.05.05.02.09Z"/>
        <path class="cls-50" d="M18.77,14.17s-.01.05-.04.05-.05-.01-.06-.05c0-.03,0-.05.01-.06.02-.02.04-.01.07,0,.01,0,0,.03.01.06Z"/>
        <path class="cls-50" d="M18.86,14.34s-.07-.05-.06-.08.04,0,.05.01c.01.01.02.05,0,.07Z"/>
      </g>
      <g>
        <path class="cls-9" d="M20.13,13.72c.09.2.04.42-.06.61.05.05-.05.21-.12.21-.05.07-.09.14-.12.22-.05.04-.06.1-.1.16l-.11.17c-.13.4-.76.45-.91.03-.04-.03-.07-.08-.08-.15v-.26c.02-.07.05-.21.13-.21.03-.05.06-.1.09-.16l.38-.66c.1-.17.27-.26.47-.25.17,0,.35.13.42.29Z"/>
        <g>
          <path class="cls-46" d="M19.91,14.69s-.02-.08.05-.15c.02-.08.08-.14.12-.21.03,0,.07,0,.08.02.01.03,0,.07-.01.1l-.11.17s0,.08-.04.09c-.03,0-.06.01-.08-.02Z"/>
          <path class="cls-50" d="M18.77,14.5l-.12.21c-.04-.1.06-.27.1-.25.01,0,.02.02.02.03Z"/>
          <g>
            <path class="cls-70" d="M19.63,15.2c-.07.04-.11.12-.19.17-.18.12-.43.12-.61-.01-.07-.05-.1-.15-.12-.22-.01,0,0-.01,0-.02.1.15.27.24.45.24s.35-.12.46-.27v.11Z"/>
            <path class="cls-70" d="M19.91,14.69s-.05.05-.07.07c0-.08.05-.17.12-.22-.01.05-.05.09-.05.15Z"/>
            <path class="cls-50" d="M18.71,15.12s.01.01,0,.02c-.08-.02-.08-.1-.07-.17.03.05.05.1.08.15Z"/>
            <path class="cls-77" d="M19.91,13.74s-.01.05-.04.07c.01.21-.12.44-.29.55-.19.16-.39.28-.62.36l-.07-.03.52-.93c.06-.1.16-.14.25-.15.13-.01.18.05.25.13Z"/>
            <path class="cls-5" d="M19.79,14.38c-.12.23-.24.44-.37.65-.09.14-.27.19-.41.12-.13-.06-.21-.21-.17-.35l.05.02c0,.06,0,.07.04.03.08.03.17.06.26.07l.32-.51.07-.03c.04-.09.25-.13.22,0Z"/>
            <path class="cls-26" d="M19.58,14.36s.02.02,0,.03c-.12.19-.21.4-.37.58-.07.02-.35-.07-.32-.09l-.03.03v-.1c0-.05,0-.1.04-.12.19-.06.39-.15.54-.29.05-.04.09-.09.15-.05Z"/>
            <path class="cls-79" d="M19.91,13.74c.21.23-.02.45-.12.64,0-.06-.18,0-.22,0v-.03c.08-.11.15-.23.22-.35.04-.07,0-.2.05-.24.02-.02.04-.02.07-.02Z"/>
          </g>
        </g>
      </g>
      <g>
        <path class="cls-40" d="M17.03,11.08c.28.28.59.55.93.76-.01.03-.04.05-.08.08.16.08.08.35-.11.29l-.04.43c-.04.07-.07.15-.09.22v.38c0,.05-.05.09-.12.1,0,.12-.05.19-.16.22.09.08.05.15-.07.16v.11c-.11.12-.16.25-.14.38-.03.09-.11.14-.23.14l-.14.09c0,.07,0,.12-.03.16l-.4.14c.13,0,.19.06.19.17.26.04.07.25-.05.35-.05.18-.15.33-.36.28.07.09.05.13-.03.12-.06.04-.14.06-.24.05l-.34.06c-.1.05-.19.06-.27.05-.1-.03-.13-.02-.09.03-.05.08-.12.15-.23.2-.09.1-.19.15-.3.17-.2.2-.35.44-.45.71-.02,0-.03,0-.04-.02,0-.03-.04-.03-.05-.01-.06.08.05.15-.04.2-.04-.04-.03-.1-.05-.15-.34-.12-.38.07-.54-.01-.04.05-.01.12-.06.17-.16,0-.18.12-.31-.03-.02.06,0,.14-.05.15-.09.03-.16-.08-.25-.09-.25-.02-.36.07-.47.05-.14-.03-.29.03-.37.14-.02.03-.02.08-.05.09-.14.02-.1-.15-.16-.19-.16-.1-.24.03-.32-.04-.03-.03-.05-.06-.08-.06-.05,0-.08,0-.12.05.06.04.12.11.08.19-.01.02-.06,0-.08,0,0-.04,0-.07,0-.08-.05-.06-.14,0-.16-.02-.01,0-.02-.04,0-.05.04-.02.09,0,.12-.04.01-.02-.02-.05-.03-.06-.1-.07-.14.2-.27.01-.06.07-.08.18-.13.26-.23-.32-.13-.07-.33-.21.06-.07.14-.04.21-.08,0-.06-.09-.16-.17-.13-.18.08-.39.04-.47-.16-.01-.03-.04-.03-.07-.03-.04,0-.02.04-.03.07-.04.09-.15.08-.23.08-.11,0-.22.03-.33,0-.04-.05-.05-.12-.09-.17-.26-.05-.04-.21-.23-.24-.07-.01-.16.04-.21,0-.06-.04-.12-.06-.16-.1-.03-.03-.05-.07-.09-.07-.1,0-.08.15-.15.12.04.02-.13-.21-.09-.2.04-.04.18,0,.2-.06,0-.02-.03-.06-.05-.05-.13.02-.16-.06-.22-.13-.03-.03-.3-.24-.34-.32.27-.18.49-.43.67-.71.24-.03.05-.09.24-.2.05-.03.1-.15.18-.15.06,0,.09.16.04.19-.04.02-.14.04-.11.1.05.09.19.07.27.03.06-.03.08.03.11.04.11.04.17.1.24.2.02.03.09-.03.11-.01.06.04-.02.14,0,.17.08.08.22,0,.28-.07l.16.03v.06c-.09.15-.1.33-.04.49l-.03.06.08.12c.31.22.65.43.98.62.35.2.58.12.77-.22-.08-.02-.03-.14.04-.14h.05c.04.12.12.14.24.09.15.01.27-.01.37-.08-.01-.15.1-.17.33-.06h.28c.03-.06.07-.1.12-.13.16,0,.31-.02.46-.05.01-.15.07-.24.18-.24.19.09.27.05.25-.13.03-.04.07-.05.15-.01.02-.13.09-.31.23-.2.08-.03.15-.06.22-.08.09.04.13-.02.02-.07-.03-.1.03-.16.19-.19-.03-.14.01-.21.13-.22.02-.12.08-.18.21-.17-.02-.13.09-.22.2-.13.03-.08.11-.1.24-.05l.02-.04c-.02-.05-.02-.1-.01-.14.11-.05.2-.13.28-.24.04-.11.09-.15.16-.14.13.1.25.16.13-.06l.04-.09c-.09-.03-.1-.1-.03-.22-.02-.12.03-.2.1-.3,0-.11.04-.21.11-.3.01-.18.09-.25.21-.2.05-.06.04-.26-.03-.31-.02-.17-.03-.4-.02-.57,0-.07.04-.39.08-.41.08-.04.11.06.12.13v-.41c-.02-.1.02-.26.13-.2Z"/>
        <g>
          <path class="cls-50" d="M16.26,15.21s-.09-.01-.12-.03c-.03-.03-.05-.09,0-.12.05-.03.09,0,.11.04.01.03.05.09,0,.11Z"/>
          <path class="cls-50" d="M17.45,13.28s-.07.02-.1.02c-.05,0-.06-.15-.05-.18.01-.02.08-.03.09,0,.02.06.01.1.06.15Z"/>
          <path class="cls-3" d="M16.92,12.42c.02.06-.02.08-.02.02-.05-.09-.07-.18,0-.27.05.07.05.15.03.24Z"/>
          <path class="cls-3" d="M15.24,15.8s-.07.02-.09.03c-.02,0-.05.01-.05,0,0,0,0-.02,0-.05,0-.05.06-.04.09-.04s.06.03.06.06Z"/>
          <path class="cls-50" d="M15.61,15.58s0,.04-.01.05c-.02.01-.06,0-.08-.05.01-.02.04,0,.09,0Z"/>
        </g>
      </g>
      <path class="cls-100" d="M11.58,15.73c-.05-.03-.12-.04-.17-.1-.17.02.27-.08.18-.06.06-.01.1.06.16.1-.06.01-.11.03-.17.06Z"/>
      <g>
        <path class="cls-20" d="M12.7,5.02c.05.17,0,.31-.04.45-.21.4-.76.32-.95-.06l-.48-.87c-.05-.12-.07-.25-.04-.37.05-.21.21-.36.4-.39.21-.04.42.04.53.23l.49.84c.04.07.05.13.1.18Z"/>
        <g>
          <path class="cls-89" d="M12.65,5.47c-.02.09-.03.14-.11.2-.22.18-.56.18-.75-.07-.07-.09-.14-.18-.19-.28-.07-.16-.15-.29-.23-.43l-.17-.3c-.08-.13-.06-.3-.02-.43-.03.17.05.32.14.48l.43.75c.09.15.21.26.36.28.26.05.37-.05.55-.21Z"/>
          <path class="cls-86" d="M12.41,4.9c.05.21-.13.13-.21,0l-.23-.15c-.28-.07-.52-.35-.49-.65-.02,0-.03-.03-.02-.07.08-.08.18-.1.28-.08.09.02.17.07.22.17l.44.79Z"/>
          <path class="cls-30" d="M12.41,4.9c.05.08.08.13.1.21-.01.17-.25.27-.4.2-.08-.04-.34-.48-.38-.58l.02-.05c-.27-.1-.43-.36-.31-.64.01-.01.02-.02.02-.02.03.01.05.03.06.04.02.03-.02.08-.01.11.04.16.12.34.26.45.05.04.37.05.57.36.02.02.09-.06.07-.09Z"/>
          <path class="cls-75" d="M11.76,4.68l.15.25c.07.11.11.25.21.33.13.1.34-.07.39-.15.04.16,0,.31-.17.38-.13.05-.31.03-.39-.11-.15-.23-.28-.46-.4-.7,0-.13.13-.06.2,0Z"/>
          <path class="cls-23" d="M11.76,4.68c-.07-.02-.14-.05-.2,0-.13-.17-.31-.49-.11-.64,0,.57.19.44.31.64Z"/>
        </g>
      </g>
      <g>
        <g>
          <path class="cls-10" d="M10.15,5.21c.32.24.55.57.66.95.02,0,.03.02.04.03.17.4.03,1.11-.18,1.48-.52.89-1.66,1.2-2.56.7-.15-.08-.37-.2-.41-.37-.15-.03-.27-.24-.34-.38-.26-.47-.32-1.19-.07-1.68,0-.01.02-.02.04-.03.23-.52.69-.9,1.24-1.04s1.13-.02,1.59.32Z"/>
          <g>
            <path class="cls-96" d="M10.85,7.41l-.17.35-.17.23c-.62.86-2.08.96-2.89.11,0,0,0-.02,0-.02-.06-.07,0-.13.07-.07.6.61,1.54.73,2.28.29s1.08-1.32.84-2.14c.01-.01.01-.02.01-.04,0,0,.01-.02.02,0,.15.31.11.97,0,1.29Z"/>
            <path class="cls-21" d="M7.32,5.92c-.32.7-.17,1.53.37,2.08-.04,0-.07.04-.07.07-.27-.25-.42-.6-.5-.97-.09-.41-.01-.84.17-1.23.02,0,.02.03.02.05Z"/>
            <path class="cls-37" d="M9.9,5.65c.25.14.4.36.54.6.13.03.2.09.22.18.02.17.03.35.02.53-.02.15-.08.29-.14.43-.13.06-.26.1-.4.14-.59.67-1.6.67-2.21.04-.09-.08-.18-.11-.28-.04-.02-.02-.05-.05-.07-.08-.01,0-.03,0-.03,0-.15-.21-.23-.74-.17-.99,0-.01.01-.02.03-.02.02-.05.06-.08.14-.07l.04-.04c.14-.3.34-.53.6-.68-.06-.09.2-.18.28-.2.31-.08.54-.14.86-.07.14.03.44.12.53.22.02.02.03.05.03.08Z"/>
            <path class="cls-95" d="M10.54,7.38s-.06.08-.07.12c-.04.04-.07.09-.08.15-.3.45-.84.71-1.38.71s-1.09-.27-1.36-.74c-.04-.06-.06-.12-.06-.19l.06.04c.19-.17.39.13.56.24.31.21.66.31,1.02.25s.66-.22.89-.49l.27-.08s.09-.02.11-.08l.04.07Z"/>
            <path class="cls-69" d="M10.47,5.87s0,.07-.05.06l-.15-.15c-.12.06-.25.02-.37-.12-.42-.31-.99-.36-1.48-.15-.09.04-.17.06-.23.13-.09.05-.18.12-.27.19l-.19-.03c-.06.08-.12.1-.15.06.24-.48.75-.78,1.29-.82.59-.04,1.21.17,1.49.67l.1.17Z"/>
            <path class="cls-49" d="M10.47,5.87c.21.37.27.66.21,1.09-.04-.04,0-.3-.03-.44-.04-.28-.2-.09-.3-.3-.11-.23-.29-.39-.45-.57.08.06.2.1.29.11.03,0,.06-.06.1-.03.11.08.16.21.18.14Z"/>
            <path class="cls-49" d="M8.19,5.63c-.08.12-.02-.03-.19.17-.13.15-.24.31-.34.49-.02.04-.07.1-.1.1l-.15.03s-.02-.01-.02-.01c.02-.11.04-.22.07-.32.03-.08.05-.18.13-.23.03-.02.06-.02.09-.07.07-.11.22.08.35-.06.05-.05.11-.08.17-.09Z"/>
            <path class="cls-93" d="M7.41,6.42c-.03.23-.04.47.04.71.04.11.06.22.13.31.04.05.04.13.06.19-.32-.43-.4-1.05-.19-1.54l-.05.34Z"/>
            <path class="cls-66" d="M10.39,7.65c-.03-.06.03-.12.08-.15-.02.06-.05.09-.08.15Z"/>
          </g>
        </g>
        <g>
          <path class="cls-83" d="M7.39,8.36c.32.11.44.43.33.74-.09.23-.26.29-.49.31-.21.02-.99.03-1.17-.02-.16-.04-.27-.13-.33-.29-.05-.18-.1-.34.02-.51.08-.12.22-.24.4-.24h1.24Z"/>
          <path class="cls-13" d="M7.72,9.09c-.02.05-.02.11-.04.14-.13.18-.33.21-.52.21h-1c-.08,0-.15-.04-.21-.06-.16-.06-.18-.17-.22-.29.12.16.28.26.5.26h1.06c.19,0,.32-.13.43-.26Z"/>
          <path class="cls-38" d="M7.56,8.74c0,.12-.07.21-.2.28h-1.11c-.24-.02-.36-.1-.33-.35.06-.09.15-.14.26-.14h1.07c.15,0,.27.09.31.21Z"/>
          <path class="cls-82" d="M7.56,8.74c.04.11.03.21-.04.31-.05.06-.14.13-.25.13h-1.11c-.13,0-.24-.09-.28-.2s-.04-.23.04-.31c0,.01,0,.03.02.04,0,0,.03,0,.05,0,0,.04-.02.09,0,.13.04.1.18.14.3.14h1.08s.14-.15.14-.15c.03-.03.05-.05.06-.09Z"/>
        </g>
      </g>
      <g>
        <path class="cls-65" d="M11,15.38c.14.09.27.2.42.26.07,0,.17.02.17.1.22.13.32.34.28.57,0,.05-.05.1-.04.14-.17.32-.39.38-.71.23l-.96-.56c-.07-.05-.12-.11-.16-.19-.1-.22-.07-.45.07-.62.42-.34.6-.05.93.07Z"/>
        <path class="cls-80" d="M11.82,16.45s-.01.06-.03.09c-.12.25-.39.35-.64.24-.15-.07-.27-.16-.41-.25-.21-.13-.43-.23-.63-.37-.08-.06-.13-.14-.13-.23.06.02.09.1.15.14l.98.58c.18.11.39.1.54-.04l.15-.15Z"/>
        <path class="cls-31" d="M11.63,16.04c-.01.08-.09.11-.24.07-.22.04-.37,0-.57-.09l-.04.03-.55-.31s-.05.05-.09.01c-.05-.13-.01-.26.07-.34s.24-.12.35-.06l.95.55c.06.04.08.09.11.13Z"/>
        <path class="cls-60" d="M10.82,16.02c.19.08.39.16.57.25.08,0,.16-.03.23-.12l.05.02c.01.13-.05.24-.13.29-.08.05-.22.08-.31.02l-.97-.57c-.07-.04-.11-.11-.12-.17.01,0,.02-.01.03-.02,0-.01,0-.03,0-.06.09,0,.15.07.23.11l.43.24Z"/>
        <path class="cls-51" d="M11.63,16.04c.04.06.04.08.05.14-.11.06-.15.22-.38.11-.17-.08-.32-.18-.47-.27.08-.03.16.05.25.06.16,0,.31-.03.47,0,.03,0,.06-.05.09-.04Z"/>
      </g>
      <g>
        <path class="cls-100" d="M15.78,8.84c.01.07.04.14.06.21-.04.08-.16.17-.25.16-.15-.08-.15-.04,0,.13v.31c.14-.02.16.04.17.17l.11.19c.18-.08.21.05.09.18.03.12.01.21-.06.28-.18.03-.15.13.01.17.04.11.05.24.03.39,0,.18.04.35.12.52-.04.15-.05.31-.03.46l-.13.34-.11.05c.02.1,0,.17-.09.2-.07.17-.11.34-.13.52.03.14,0,.22-.13.24.04.09,0,.13-.06.19-.01.13-.04.18-.17.18-.03.14-.06.19-.21.23-.03.11-.1.2-.22.26-.1.03-.17.09-.21.18-.12.06-.24.14-.35.22.06.18.04.32-.18.24.03.11.03.16-.09.2l-.28-.02c-.02.11-.07.12-.16.08-.12.2-.39.19-.59.16,0,.09-.02.15-.07.18-.28,0-.55,0-.83,0-.3,0-.6-.04-.89-.1-.04.02-.09.03-.13.03l-.05.03c-.18-.12-.37-.2-.57-.22l-.17.06c-.05.05-.1.06-.15.05-.04.04-.08.04-.14.02-.14.15-.41.15-.33-.1-.08.02-.15-.02-.22-.13-.1-.09-.19-.12-.26-.08-.16.02-.35,0-.22-.19.09.01.12-.14.08-.14-.02,0-.25.21-.25.27-.04.06-.14.12-.18.03.1-.15.13-.33.18-.5v-.11c.05-.25.03-.49,0-.74-.02-.11-.05-.29-.12-.33l-.07-.05c-.25-.6-.81-1.01-1.45-1.09l-.07-.05s-.08,0-.15-.03c.08-.06.24.01.26-.08-.05,0-.09,0-.09-.04-.02-.12.1-.12.06-.2-.04-.02-.16.02-.17-.04s0-.14,0-.2c.02-.06.08-.08.12-.14-.08-.06,0-.17-.03-.22-.03-.05-.09-.08-.13-.14-.04-.08-.13-.1-.05-.4.02-.07.02-.22.14-.19.05.01.07.07.12.04.06-.04.06-.07.04-.14-.01-.05-.04-.09-.08-.12-.04-.02-.09.02-.14.01-.04,0-.03-.07-.02-.1,0,0,.14-.16.16-.17.03-.01.06.04.1.04.04,0,.03-.09.02-.13-.02-.05-.07-.04-.14-.08.04-.05.09-.02.14-.03.03-.08-.05-.13-.07-.21-.01-.04.05-.07.07-.1l.04-.05c.23,0,.44-.09.53-.31l-.03-.05c.08-.25-.03-.52-.27-.62l-.02-.06c.03-.12.2-.14.23-.26l.09.02c1,.94,2.61.57,3.08-.7h.06c.04-.11.09-.15.15-.12.05-.06.1-.1.16-.13,0-.05.03-.1.09-.1.1.03.19-.08.24-.16.09-.02.18-.02.27-.01.2-.09.27.05.07.15.2.01.39.02.59.04.06.02.12.07.06.13-.04.04-.2.05-.26.06-.38-.04-.32.07.02.03.11.03.23.05.34.05l.49-.14c.08.03.09.08.04.15-.17.05-.02.14.1.15.22-.03.42,0,.61.11.02.13.13.17.33.12.05.03.09.1.12.2.09,0,.19,0,.28,0,.04.08.05.18.05.28.04.09.05.18.04.27.12.02.16.06.18.18.12,0,.17.07.17.21h.09c.05-.07.1-.1.15-.09.06.06.14.1.22.11.08-.03.14-.02.18.03.02-.07.06-.16.13-.09Z"/>
        <path class="cls-40" d="M9.94,15.15s.04,0,.05,0c.02.02,0,.04-.01.07-.01.02-.05.02-.06-.01,0-.02,0-.05.02-.07Z"/>
        <g>
          <path class="cls-10" d="M14.71,9.78c.2.38.23.86.12,1.27,0,.03-.03.05-.06.06-.08.48-.47.88-.89,1.1-.56.29-1.24.29-1.8,0-.51-.27-1.02-.92-1-1.52,0-.01.01-.03.03-.04-.01-.09-.01-.18,0-.26-.04-.04-.02-.18.03-.21.18-.79.81-1.39,1.61-1.49.85-.1,1.61.35,1.96,1.1Z"/>
          <g>
            <path class="cls-47" d="M14.74,11.37c-.06,0,.13-.31.03-.26.15-.44.1-.9-.06-1.33.07.14.18.26.19.46.03.39.03.8-.17,1.13Z"/>
            <g>
              <path class="cls-67" d="M11.14,10.16c-.01.06,0,.16-.03.21-.02.09-.02.17,0,.26.07.88.75,1.6,1.62,1.72s1.74-.4,2.04-1.25c.01-.05.05-.06.06,0l-.09.27c-.18.52-.77.98-1.32,1.1-.7.16-1.39-.06-1.87-.58-.7-.76-.51-1.8-.44-1.77,0,0,.01.03.02.04Z"/>
              <path class="cls-74" d="M13.91,9.52c.05.04.11.08.16.11.1.13.2.26.28.4.09.01.16.04.22.1.06.21.09.43.07.66-.02.11-.11.38-.17.5-.05.06-.07.02-.07-.11-.08.02-.15.05-.22.09-.34.41-.81.65-1.36.6-.23-.02-.82-.24-.92-.46,0-.02,0-.05,0-.07-.11-.06-.17-.15-.22-.26-.05-.13-.11-.24-.2-.32.01.1.02.2.02.31l-.04.04c.06.05.05.11-.03.09,0-.02-.02-.06-.03-.07-.03-.11-.06-.22-.07-.33-.05-.14-.05-.63.1-.7.04-.02.08,0,.11.03.15-.26.29-.5.57-.63,0-.02,0-.04,0-.06.03-.07.53-.23.63-.24.29-.04.96.04,1.14.28.02.02.02.04,0,.07Z"/>
              <path class="cls-57" d="M11.92,11.32c.09.11.2.19.32.27.55.36,1.29.25,1.73-.19.24-.24.14-.21.49-.31.06,0-.05.19.02.17-.29.59-.91.94-1.57.91-.63-.03-1.22-.42-1.46-1.01.01-.02.04-.06.03-.09.04-.05.08-.02.11.03.05.1.12.14.21.12l.11.08Z"/>
              <path class="cls-94" d="M14.35,9.57c-.09.03-.19.05-.29.07l-.16-.12c-.16-.18-.61-.32-.88-.31-.18,0-.37,0-.54.09-.12.06-.26.1-.36.18l-.2.14c-.06,0-.12-.02-.18-.04-.15.14-.25.31-.3.52-.04.04-.07.06-.08,0,.06-.2.12-.39.26-.57.65-.85,1.9-.91,2.61-.12.05.05.09.11.11.17Z"/>
              <path class="cls-32" d="M14.35,9.57c.27.28.35.83.29,1.2-.01.01-.02,0-.02-.02v-.41c0-.15-.11-.25-.25-.26-.08,0-.1-.12-.14-.17-.09-.1-.14-.2-.23-.29l-.09-.1s.06.03.09.05c.12.09.26-.1.35,0Z"/>
              <path class="cls-32" d="M12.13,9.47c-.26.23-.37.37-.54.69-.04.01-.09-.05-.11-.04-.21.03-.12.51-.14.66,0,.02-.01.02-.02,0-.06-.24-.02-.46.05-.69.03.08.11-.25.16-.34s.14-.16.22-.25c.23.13.21.03.38-.03Z"/>
              <path class="cls-39" d="M11.42,11.11c-.06-.07-.07-.25-.09-.33h.02c.05.1.07.22.07.33Z"/>
              <path class="cls-100" d="M11.11,10.64c0-.09-.05-.17,0-.26v.26Z"/>
              <path class="cls-35" d="M11.92,11.32c-.08-.03-.15-.06-.24-.02-.09-.09-.11-.18-.2-.21-.03-.06-.02-.12-.01-.2,0-.07-.06-.14.02-.22.04.04.11.08.14.14.09.19.18.36.3.51Z"/>
            </g>
          </g>
        </g>
      </g>
      <g>
        <path class="cls-22" d="M14.15,17.11l.03.09c-.25,1.79,1.88,2.83,3.15,1.55l.09-.03c.07-.02.08.03.02.14-.49.55-1.26.79-1.99.59-.6-.17-1.04-.63-1.28-1.18-.11-.25-.15-.92-.07-1.16.03-.09.06-.1.05,0Z"/>
        <g>
          <path class="cls-15" d="M16.09,15.64c.52.03,1.01.27,1.35.68.02.03.05.04.07.05,0,.08.07.13.12.19.35.7.32,1.56-.21,2.16-.78.88-2.19.86-2.91-.08-.34-.44-.47-1-.36-1.53.07-.34.26-.63.48-.9.17-.13.33-.27.52-.38,0-.07.05-.08.09-.03.27-.12.56-.17.85-.15Z"/>
          <g>
            <path class="cls-3" d="M14.62,16.21c0,.09-.05.17-.13.25l-.22.39c-.02.11-.06.19-.13.25,0,0,0-.02,0-.03,0-.01-.02-.02-.02-.01,0,.02-.01.04-.03.04.02-.07.04-.14.03-.21,0,0,.04,0,.04-.02.04-.11.34-.69.45-.67Z"/>
            <g>
              <path class="cls-43" d="M17.89,17.13c.11.48.03.98-.21,1.4-.07.12-.15.23-.24.34-.01-.05.02-.11-.02-.14v-.09c.47-.56.5-1.34.2-1.98v-.09s.08.02.08.02c.08.1.2.35.22.48l-.03.07Z"/>
              <path class="cls-63" d="M17.61,17.94s-.05.06-.06.12c0,0,0,.01,0,.01-.06.08-.17.13-.3.14-.66.79-1.78.88-2.47.05l-.25-.12c.04.07.06.18-.04.12-.05-.1-.08-.2-.12-.31-.03-.14-.11-.7.05-.75.05-.01.08,0,.12.02.17-.17.43.04.54.18l.14.03c.19.17.43.18.67.17.28-.02.65-.05.89-.2.11-.13.24-.23.38-.31h.1s.23.11.27.09c.01,0-.08-.23-.16-.14-.12-.02-.25-.11-.21-.24-.07-.12-.2-.23-.34-.27-.13-.11-.29-.18-.45-.24l-.04-.06s-.07-.03-.1-.03c-.31-.02-.74.03-.99.2,0,.05-.05.1-.13.13l-.32.27c-.06.04-.14.04-.21.01-.06.09-.12.17-.19.25.05.06-.03.08-.03,0,.16-.74.87-1.25,1.64-1.24.52,0,1,.26,1.3.64.33.42.42.96.29,1.46Z"/>
              <path class="cls-28" d="M17.18,16.8c.05.07.08.17.19.19.04,0,.08-.03.11-.01.12.08.17.39.13.51-.02-.1-.02-.25-.13-.27-.06-.01-.11,0-.15-.04-.13-.15-.36.14-.49.26-.04.03-.11.06-.15.08-.12.08-.26.07-.38.08l-.22.03c-.14.02-.25.03-.39.02-.15-.01-.27,0-.46-.15-.05-.04-.15,0-.19-.06-.06-.09-.14-.14-.24-.19-.09-.04-.15-.05-.23.03-.03.03-.1-.03-.13-.01-.15.11-.1.47-.05.64,0,.03,0,.07-.02.06-.11-.29-.07-.6,0-.89,0,.03.02.01.03,0,.06-.09.11-.16.21-.07.13-.16.28-.28.44-.36.12-.02.2.05.24.2.06.09.15.08.26-.02.09-.02.17,0,.25.08.02-.02.06-.02.09-.02.18.02.56.03.7-.09.07-.06.15-.17.21-.25.13-.03.31.14.38.26Z"/>
              <path class="cls-14" d="M17.56,18.07c-.22.73-.98,1.18-1.75,1.1-.57-.06-1.05-.4-1.3-.9.09,0-.08-.14-.02-.23-.05.03.31.16.34.2.25.27.5.46.87.54.49.1.98-.06,1.34-.41.06-.06.13-.1.18-.18.04-.04.23-.04.34-.11Z"/>
              <path class="cls-14" d="M17.61,17.94s0,.1-.06.12c0-.04-.02-.08,0-.12.02,0,.04,0,.06,0Z"/>
              <path class="cls-16" d="M16.35,16.23c.18.06.35.13.51.25.1.08.33.2.33.32-.07-.1-.32-.3-.36-.22-.03.07-.08.11-.13.16-.06.06-.09.13-.2.14l-.34.05c-.12.02-.23-.05-.36,0l-.16-.09c-.06-.03-.14.08-.21.09-.16.03-.2-.15-.23-.24-.23-.14-.42.25-.57.33-.04,0-.08-.05-.12-.04-.03.01-.06.04-.09.06.01-.04.15-.32.19-.3.12.04.18.01.27-.07l.2-.18c.05-.05.13-.08.19-.11.25-.17.69-.23.99-.2.04,0,.07,0,.1.03Z"/>
              <path class="cls-6" d="M16.35,16.23c-.12-.04-.23-.02-.36,0-.29.02-.5.05-.74.17.04-.1.16-.08.27-.16.1,0,.2-.03.3-.05h.43s.08.02.1.05Z"/>
            </g>
          </g>
        </g>
      </g>
      <g>
        <path class="cls-19" d="M5.05,13.41l.02.09c-.5,2.37,2.82,3.22,3.52.91l.06-.06c.05-.02.07.02.05.12.05.08-.01.25-.05.33-.02.08-.06.14-.13.17,0,.02,0,.04,0,.05,0,.13-.49.64-.62.65-.02,0-.04,0-.05,0-.17.12-.68.3-.88.29-.16-.01-.33,0-.48-.03-.2-.05-.4-.1-.59-.2-.46-.26-.82-.69-.96-1.2-.1-.36-.07-.72,0-1.06,0-.04.04-.08.06-.13.03.02,0,.04.02.05Z"/>
        <g>
          <path class="cls-42" d="M6.99,12.1c.72.06,1.34.52,1.59,1.2.02,0,.03.02.04.03.09.19.18.82.08,1,0,.01-.02.02-.04.03-.14.67-.65,1.21-1.3,1.4s-1.37,0-1.85-.48-.66-1.2-.46-1.86c.26-.84,1.06-1.39,1.94-1.31Z"/>
          <g>
            <path class="cls-25" d="M8.71,14.48s0-.09-.05-.12c.08-.35.05-.72-.08-1.06.02-.03.05-.01.06,0,.15.38.19.8.08,1.18Z"/>
            <g>
              <path class="cls-48" d="M7.08,12.65c.16.03.32.07.46.15.07.04.35.22.36.27,0,.02,0,.03,0,.05.14.11.25.24.36.39.1.07.16.16.19.27h.02s.03.26.03.26v.05c0,.38-.19.7-.43.97-.04.02-.03.01-.02-.03l-.03-.05c.07-.1.13-.2.18-.31h.05s-.03-.08,0-.13c0-.2-.08-.16-.25.14l-.22.17v.06c-.38.37-.99.49-1.5.28-.13-.05-.34-.14-.37-.28-.23-.14-.35-.32-.49-.54-.06-.02-.09.02-.09.08l-.04.04c-.08.04-.14-.32-.12-.31.03.02,0,.04-.03,0l-.02-.12c0-.14.02-.28.04-.43l.03-.02c.03-.1.07-.14.18-.11.09-.08.16-.16.22-.27l.2-.16c-.04-.09.1-.17.18-.19.19-.13.4-.21.63-.24.04-.1.31-.07.41-.05l.04.05Z"/>
              <path class="cls-61" d="M8.25,13.07l-.05.02c-.09-.07-.19-.09-.32-.06-.25-.18-.49-.34-.8-.38-.15-.01-.3-.04-.45,0-.16.03-.32.08-.47.14-.17.13-.23.14-.42.08l-.24.19c-.05,0-.06-.01-.04-.05.49-.74,1.51-.94,2.28-.45.21.13.4.3.5.51Z"/>
              <path class="cls-59" d="M5.33,14.5c.07.01.07.03.02.07.12.16.24.31.37.47.68.71,1.61.64,2.29,0h.05s.02.03.02.03c-.33.38-.83.6-1.35.56-.81-.06-1.46-.65-1.56-1.44.02,0,.03-.02.05-.02,0,.13.04.24.1.33Z"/>
              <path class="cls-97" d="M6.63,12.65c-.04.05-.12.04-.18.06-.2.05-.49.21-.63.37-.13.16-.24.2-.33.11-.11.09-.17.2-.2.35l-.07.09c-.03.15-.03.31-.07.45-.05-.4.1-.75.31-1.07,0,.03.01.03.03,0,.04-.05.1-.06.15-.12.17-.21.25.1.44-.08.14-.14.5-.15.55-.17Z"/>
              <path class="cls-97" d="M8.25,13.07c.18.21.22.5.26.77v.21c-.02.09-.04-.33-.05-.26-.05-.18-.12-.35-.2-.51l-.08-.08c-.08.06-.17.03-.26-.08-.23-.24-.52-.39-.83-.48.31.02.46.09.71.29.08.06.13.04.23.02.06-.01.18.05.23.11Z"/>
              <path class="cls-59" d="M8.51,14.1v-.05s0-.21,0-.21c.01.09,0,.17,0,.26Z"/>
              <path class="cls-45" d="M5.94,14.93c.44.36,1,.43,1.53.18.14-.07.26-.13.35-.25.06-.06.4-.35.45-.23,0,.01,0,.03,0,.04-.06.21-.07.11-.21.37-.05.09-.15.14-.23.21-.13.11-.26.17-.41.23-.62.24-1.34.09-1.76-.43l-.23-.29-.08-.18c.06-.01.12,0,.18.05l.42.31Z"/>
              <path class="cls-29" d="M8.45,13.79c-.21-.31-.06-.02-.37-.43l-.17-.23.09.05c.06.03.12.02.15-.04.23.14.23.34.25.38.04.1.06.17.05.27Z"/>
              <path class="cls-29" d="M5.82,13.08c-.09.11-.19.22-.27.35-.03.05-.1.08-.13.13-.09-.03-.16,0-.19.06.03-.15.1-.45.28-.5.03.02.05.06.07.07.1.03.17-.11.24-.12Z"/>
              <path class="cls-73" d="M5.94,14.93c-.14-.12-.32-.17-.43-.26-.05-.04-.13-.04-.17-.1,0-.02-.01-.05-.02-.07-.01-.06,0-.14.06-.16.08-.03.11.01.16.08l.15.23c.07.11.17.19.25.27Z"/>
              <path class="cls-73" d="M8.27,14.67s-.1-.02-.14.02c-.04.03-.09.03-.13.05-.06.04-.11.1-.17.12.12-.12.23-.25.31-.41.03-.06.08-.08.13-.07.07.02.08.07.08.14s-.05.1-.06.15Z"/>
            </g>
          </g>
        </g>
      </g>
    </g>
  </g>
</svg>