<?xml version="1.0" encoding="UTF-8"?>
<svg id="Layer_2" data-name="Layer 2" xmlns="http://www.w3.org/2000/svg" viewBox="0 0 24 24">
  <defs>
    <style>
      .cls-1 {
        fill: #639bc8;
      }

      .cls-2 {
        fill: #609dd0;
      }

      .cls-3 {
        fill: #3b66a3;
      }

      .cls-4 {
        fill: #596fa9;
      }

      .cls-5 {
        fill: #7d98d3;
      }

      .cls-6 {
        fill: #8e949b;
      }

      .cls-7 {
        fill: #6baad8;
      }

      .cls-8 {
        fill: #274572;
      }

      .cls-9 {
        fill: #93959c;
      }

      .cls-10 {
        fill: #233a6b;
      }

      .cls-11 {
        fill: #4b62a6;
      }

      .cls-12 {
        fill: #5b83b6;
      }

      .cls-13 {
        fill: #b6b6b7;
      }

      .cls-14 {
        fill: #7c93d1;
      }

      .cls-15 {
        fill: #334e92;
      }

      .cls-16 {
        fill: #8cc0e1;
      }

      .cls-17 {
        fill: #8cc0e0;
      }

      .cls-18 {
        fill: #2b4799;
      }

      .cls-19 {
        fill: #3b6a95;
      }

      .cls-20 {
        fill: #77b3da;
      }

      .cls-21 {
        fill: #5490c3;
      }

      .cls-22 {
        fill: #c6cacd;
      }

      .cls-23 {
        fill: #2c4898;
      }

      .cls-24 {
        fill: #e1e2e1;
      }

      .cls-25 {
        fill: #c8c9c9;
      }

      .cls-26 {
        fill: #e5e5e5;
      }

      .cls-27 {
        fill: #95989f;
      }

      .cls-28 {
        fill: #96c5e5;
      }

      .cls-29 {
        fill: #8f949b;
      }

      .cls-30 {
        fill: #647bb0;
      }

      .cls-31 {
        fill: #bfc0c0;
      }

      .cls-32 {
        fill: #82aede;
      }

      .cls-33 {
        fill: #b6b7b7;
      }

      .cls-34 {
        fill: #2d448a;
      }

      .cls-35 {
        fill: #90959c;
      }

      .cls-36 {
        fill: #c4c4c4;
      }

      .cls-37 {
        fill: #386b9b;
      }

      .cls-38 {
        fill: #cbced3;
      }

      .cls-39 {
        fill: #c9cfd2;
      }

      .cls-40 {
        fill: #6aa9d7;
      }

      .cls-41 {
        fill: #7c97d1;
      }

      .cls-42 {
        fill: #285186;
      }

      .cls-43 {
        fill: #3c6994;
      }

      .cls-44 {
        fill: #649ac8;
      }

      .cls-45 {
        fill: #e1e1e2;
      }

      .cls-46 {
        fill: #4f83b3;
      }

      .cls-47 {
        fill: #3d70b1;
      }

      .cls-48 {
        fill: #4576b1;
      }

      .cls-49 {
        fill: #3b6a94;
      }

      .cls-50 {
        fill: #7f96cc;
      }

      .cls-51 {
        fill: #8dbedf;
      }

      .cls-52 {
        fill: #e2e3e3;
      }

      .cls-53 {
        fill: #76b1d9;
      }

      .cls-54 {
        fill: #c0c9d1;
      }

      .cls-55 {
        fill: #3c5497;
      }

      .cls-56 {
        fill: #e3e4e3;
      }

      .cls-57 {
        fill: #2b4387;
      }

      .cls-58 {
        fill: #c9ccd3;
      }

      .cls-59 {
        fill: #2b4797;
      }

      .cls-60 {
        fill: #6d83b5;
      }

      .cls-61 {
        fill: #a4a6a8;
      }

      .cls-62 {
        fill: #6276aa;
      }

      .cls-63 {
        fill: #223969;
      }

      .cls-64 {
        fill: #386e9e;
      }

      .cls-65 {
        fill: #386a99;
      }

      .cls-66 {
        fill: #3c6b94;
      }

      .cls-67 {
        fill: #7082b3;
      }

      .cls-68 {
        fill: #94979c;
      }

      .cls-69 {
        fill: #e4e4e4;
      }

      .cls-70 {
        fill: #bdbfc0;
      }

      .cls-71 {
        fill: #d6d9dd;
      }

      .cls-72 {
        fill: #558ebd;
      }

      .cls-73 {
        fill: #4364a6;
      }

      .cls-74 {
        fill: #a7a8aa;
      }

      .cls-75 {
        fill: #69aad9;
      }

      .cls-76 {
        fill: #96cdf0;
      }

      .cls-77 {
        fill: #f6f7f7;
      }

      .cls-78 {
        fill: #aaacae;
      }

      .cls-79 {
        fill: #528dc4;
      }

      .cls-80 {
        fill: #cbcccb;
      }

      .cls-81 {
        fill: #6ba4d0;
      }

      .cls-82 {
        fill: #b5b6b6;
      }

      .cls-83 {
        fill: #243b6d;
      }
    </style>
  </defs>
  <path class="cls-26" d="M17.59,15.65s.01-.02.02,0c.06-.01.06.04,0,.06.04.02.05.04,0,.05.09.13.32.17.48.18h4.05c.37-.03.58-.22.55-.61v-5.82l-.03-.07c0-.09-.02-.18-.04-.26.05-.05.18.27.18.25.02.1.06.2.06.32v5.72c0,.25-.17.47-.37.56-.21.09-.42.05-.64.07-.17.02-.33.03-.5.02h-.25c-.38-.05-.66.02-.85,0h-2.07c-.1,0-.49-.05-.54-.15-.04-.09-.03-.2-.03-.29l-.02-.03Z"/>
  <path class="cls-69" d="M7.01,15.82h.07l.2.07c.08,0,.14.03.19.06h3.43c.37-.03.56-.11.69-.48-.07-.02-.04-.18.02-.19l-.03-.02c.01-1.9.01-3.79,0-5.69l-.04-.21s-.01-.1-.04-.14c.14-.05.23.39.23.45v5.76l-.06.17c-.05.13-.15.25-.26.33-.2.14-.59.16-.82.14-.13-.01-.28,0-.41,0h-1.15c-.16,0-.32-.02-.48-.02l-.64.02c-.09,0-.17-.03-.26-.02-.21.01-.42,0-.61-.1-.05-.03-.02-.12-.02-.15v.02Z"/>
  <path class="cls-56" d="M12.52,9.29s.02.12,0,.16c-.02.11-.04.23-.04.35v5.41c-.07.44.08.71.53.75h3.54c.15-.02.29-.05.44-.09l.02.03s0,.07-.02.1-.07.02-.11.03c-.17.06-.33.06-.5.07h-.72s-.93,0-.85,0c-.1.01-.17,0-.26,0h-.26c-.19.02-.22,0-.38,0-.17.01-.39,0-.56,0h-.39c-.24-.02-.6-.26-.6-.55v-5.9l.03-.14c.02-.09.05-.19.13-.2v-.02Z"/>
  <path class="cls-52" d="M1.31,17.68s-.03.06-.03.1v1.48c.03.32.1.48.44.51h2.21c.44-.04.47-.34.44-.73l.02-1.28-.03-.09c0-.06-.02-.12-.02-.2v-.06c.1,0,.19.25.19.35v1.29c0,.27,0,.7-.32.8-.25.09-.51.07-.77.05h-1.53c-.16,0-.31,0-.43-.04-.33-.12-.33-.38-.35-.67-.02-.24.02-.37,0-.56l-.02-.22v-.71c.02-.15.08-.3.2-.37,0,.11-.02.22-.02.32l.02.03Z"/>
  <path class="cls-45" d="M19.65,17.44v.13c0,.06-.01.12-.02.17l-.02.09v1.55c.04.24.19.38.43.39.72.01,1.44.02,2.16,0,.25-.02.41-.07.48-.34v-1.76s0-.08-.02-.11c0-.07,0-.15-.02-.22.1.08.19.16.19.31v.85c.01.06.01.1.01.16v.69c-.01.17-.1.35-.24.45-.12.08-.25.1-.39.1-.2-.01-.38,0-.58,0-.15,0-.3-.01-.46,0-.11.01-.2,0-.31,0h-.22l-.77-.02c-.22,0-.38-.22-.4-.41-.02-.16-.03-.29,0-.44,0,.01,0-.67,0-.72v-.64c0-.07.08-.26.17-.24h0Z"/>
  <path class="cls-71" d="M12.52,9.44h.01v6c-.02.24.23.47.47.44,1.11.01,2.23.01,3.35,0,.16,0,.31-.01.46-.05.09-.06.16-.07.2-.03v.07c-.19.02-.27.11-.49.09-.24-.02-.36.02-.57,0-.28,0-.55-.04-.83,0-.08-.03-.16,0-.24,0-.13-.02-.24,0-.37,0h-.32c-.12,0-.24.01-.35,0h-.66c-.28,0-.53,0-.68-.3-.03-.06-.06-.11-.06-.17-.01-.2-.01-.38-.01-.58v-5.14l.05-.35h.03v.02Z"/>
  <path class="cls-78" d="M7.01,15.69v-.26c.05.07.09.16.17.2.04.04.1.08.16.09.16,0,.32,0,.47.03.14-.02.29-.03.45,0,.73-.02,1.45-.02,2.16,0,.2-.03.4-.03.6,0,.12,0,.22-.09.32-.17.04-.06.11-.11.15-.17.05.01.05.03.04.07-.03.21-.27.39-.47.43h-3.33c-.27.04-.56.06-.72-.2v-.02Z"/>
  <path class="cls-25" d="M12.57,15.45c.03.13.16.35.34.36.57.02,1.15.03,1.73.03.58-.02,1.16-.02,1.75,0,.23.02.4-.05.59-.14l.03.04v.08c-.07,0-.13.05-.21.07-.22.06-.45.04-.68.04h-1.31c-.2,0-.39-.02-.59.01.04,0-.5,0-.52,0h-.7c-.1-.01-.22-.04-.3-.09-.07-.05-.12-.14-.16-.2-.08-.12-.06-.22-.03-.35.02-.11.03-.27,0-.37-.03-.09.02-.11.02-.19v-5.29c0-.05.01-.11,0-.16h.03v5.93c0,.07-.02.18.02.24h-.01Z"/>
  <path class="cls-82" d="M12.74,15.62c-.08.22.63.16.78.16.12,0,.23.04.35,0,.03,0,.07.02.11.02h1.32c.11,0,.21-.02.33,0,.18.02.36,0,.55,0,.22.01.43.03.64-.07.08-.04.12-.12.2-.15,0,.05.01.1,0,.16-.06-.01-.25.12-.33.12-.16,0-.32.02-.47.02h-1.14c-.13,0-.26-.02-.39.02-.06.02-.12-.02-.18-.02-.22.03-.44,0-.67,0h-.9c-.17-.01-.28-.14-.34-.29-.02-.05-.06-.1,0-.13.05.06.1.14.17.17h-.03Z"/>
  <path class="cls-80" d="M11.6,15.28l-.02.19c-.12.36-.34.46-.69.48h-3.43c-.16,0-.31-.04-.45-.13v-.13c.15.05.21.2.46.18.35-.02.78,0,1.14,0h.22l2.22-.02c.25,0,.46-.25.44-.46,0-.04.04-.08.04-.11,0-.06.05-.06.06,0h0Z"/>
  <path class="cls-24" d="M1.33,9.28s.04.21-.02.24l-.03.1v5.4l.02.3c-.06.34.25.56.56.6h4.16c.14-.01.3-.06.38-.17-.06-.03-.04-.05,0-.09-.06,0-.05-.06,0-.09-.05,0-.04-.05,0-.07h.02v.3s-.02.08-.03.12c-.16.1-.35.11-.54.11h-2.1c-.27,0-.48,0-.74-.01h-.24c-.26.02-.53,0-.79,0s-.5-.05-.67-.26c-.11-.14-.15-.27-.16-.45,0-.19-.03-.37,0-.56v-.35c.02-.27,0-.53,0-.8v-3.26c0-.09,0-.16,0-.24-.02-.19-.02-.79.19-.85v.03Z"/>
  <path class="cls-58" d="M17.62,15.76h.03c.27.13.57.18.89.13h3.69c.3-.06.41-.24.41-.54v-5.91s.07.07.07.14v5.76c0,.36-.19.64-.58.64h-2.59c-.15,0-.3-.02-.45,0-.16.01-.31.01-.47,0-.25,0-.49.02-.73-.03-.09-.02-.16-.07-.24-.1-.04-.02-.04-.05-.04-.08h0Z"/>
  <path class="cls-13" d="M17.62,15.71v-.12c.15.13.32.2.53.19.07,0,.13.02.2.02h.95c.2,0,.4.02.6,0,.12-.01.22-.02.35,0,.18.03.35,0,.53,0h.3c.2,0,.4.02.6,0,.1-.01.19-.03.29-.02.14.01.5.03.49-.18.05-.02.09-.07.13-.1.02,0,.04,0,.04.02-.02.24-.25.34-.46.36h-4.03c-.19,0-.39-.05-.52-.18h0Z"/>
  <path class="cls-36" d="M17.62,15.76v-.05c.06,0,.1.05.15.08.17.1.54.11.73.08.1-.02.19.02.29,0,.23-.03.47,0,.7,0h2.45c.18,0,.37.03.56-.13.06-.05.12-.16.1-.24.02-.05.03-.11.06-.15,0,.02.04.04.03.07-.03.25-.17.45-.45.49h-4.1c-.2,0-.36-.04-.51-.15h-.01Z"/>
  <path class="cls-22" d="M1.31,17.68v1.51c0,.06,0,.13.04.17.08.26.18.31.43.33h2.2c.16-.04.27-.15.31-.3l.04-.13v-.32c0-.42,0-.84.03-1.26.03,0,.06.06.06.1-.02.27,0,.52,0,.79v.22c-.02.17-.03.32,0,.49.01.06-.02.11-.03.16-.05.23-.23.37-.46.37H1.64c-.23-.04-.39-.21-.39-.45v-1.58s.02-.1.06-.09h0Z"/>
  <path class="cls-33" d="M1.46,19.48c.03.1.15.17.27.17h2.13c.14,0,.34-.06.33-.17l.11-.08c.09.1-.15.34-.34.34h-1.95c-.16,0-.32.02-.47-.04-.08-.03-.25-.22-.19-.33.03.04.07.07.11.11Z"/>
  <path class="cls-38" d="M19.63,17.75c0,.51.01,1.01.02,1.52v.04c.02.19.14.37.34.4.69.01,1.38.02,2.08.01.31.02.51-.05.57-.39,0-.04.01-.08.01-.13v-1.62s.07.06.07.11v1.72c0,.19-.22.39-.37.4-.06,0-.15.03-.21.02-.11-.02-.21.02-.31,0-.17-.02-.32,0-.49,0h-.95c-.13,0-.27,0-.41-.01-.28-.01-.43-.28-.42-.53v-1.44s.03-.07.05-.09h.02Z"/>
  <path class="cls-70" d="M19.79,19.47c.01.11.13.2.25.2h.59c.18,0,.35.01.53,0-.12,0,.63,0,.57,0h.47c.11.01.35-.08.31-.18.05-.05.1-.09.13-.16.03.06,0,.11-.02.18-.05.14-.15.23-.31.24l-.24.02h-1.79c-.08,0-.14-.02-.21-.01-.25.02-.49-.25-.41-.44.03.06.07.12.13.16h0Z"/>
  <path class="cls-39" d="M7.46,15.95s.07-.03.12-.01c.04.02.06-.01.1-.01h3.39c.21-.04.38-.19.46-.38.01-.03.02-.05.05-.07-.02.19-.16.38-.36.44-.12.04-.25.06-.38.06h-.23c-.17-.02-.34-.01-.52,0h-2.63v-.03Z"/>
  <path class="cls-61" d="M6.4,15.52v.07c-.13.22-.32.24-.55.25-1.33,0-2.66,0-3.99-.01-.08,0-.28-.04-.28-.13l.03-.03.2.06h4.23c.07-.01.14-.03.18-.09.13-.06.04-.02.16-.15v.04h.02Z"/>
  <path class="cls-31" d="M1.37,15.41c.07.21.22.39.46.41,1.41.01,2.8.02,4.19,0,.13-.02.24-.07.34-.17l.03.02v.09c-.18.08-.08.08-.35.15H1.85c-.1,0-.21-.04-.28-.09-.12-.08-.36-.35-.24-.49,0,.02.03.06.04.08Z"/>
  <path class="cls-74" d="M1.48,15.54c.06.05.1.1.1.15.02.01.03.05.08.06l.17.05h.64c.29.01.56,0,.85.01.14,0,.28,0,.43-.01.09,0,.16.01.24.02.28.01.35-.02.67,0h.43c.22-.01.43,0,.65,0,.04,0,.08.03.12.02.05-.02.11,0,.16,0,.28-.05.27-.24.36-.22v.09c-.08.03-.19.17-.34.17h-.57c-.08,0-.15.03-.23,0-.09-.02-.17,0-.26,0h-.64c-.27,0-.54-.02-.82,0-.15.02-.29,0-.43,0h-.65c-.19,0-.38-.01-.56-.01s-.34-.08-.46-.23c-.05-.06-.09-.13-.06-.2.04.04.08.08.11.13v-.03Z"/>
  <g>
    <path class="cls-49" d="M4.34,17.43s.05.05,0,.06v1.45h.03s.01.28,0,.32c0,.04-.03.14-.08.13.02.06-.05.13-.11.08-.04.06-.11.09-.2.08H1.71c-.11.01-.19-.02-.25-.08-.07.04-.11-.05-.11-.11h-.05c-.03-.55-.03-1.1,0-1.66l.02-.03c-.07-.09-.05-.23.02-.32.04-.07.09-.13.17-.18l1.13-.71c.11-.07.25-.08.36-.01l1.18.73c.09.06.14.14.16.23v.02Z"/>
    <g>
      <path class="cls-35" d="M4.19,19.48c.1.09-.09.18-.18.2-.77.02-1.54.02-2.31.01-.07,0-.15-.03-.2-.08-.04-.04-.1-.1-.04-.13.07.03.14.03.23.04h2.28c.09,0,.16-.02.22-.04Z"/>
      <g>
        <path class="cls-40" d="M4.04,17.29c.07.04.12.08.13.15.02.24.01.48-.02.72-.08.04-.13.03-.16-.03h-.04v.88c0,.07-.06.12-.13.13-.38,0-.76.01-1.14.02l-.02-.03c-.18.01-.36.01-.54,0-.03.03-.11.02-.15,0,0,.04-.03.06-.09.06-.09-.02-.15,0-.2.05-.03.06-.07.09-.12.09-.03-.02-.08-.04-.08-.09l.02-1.8.04.02v.18c.1,0,.14.06.13.2v-.29c.05-.12.16-.21.31-.28.26-.17.51-.32.77-.47h.14c.34.18.67.37.99.58.05-.04.11-.07.16-.1h0Z"/>
        <path class="cls-28" d="M4.04,17.29c-.01.06-.1.13-.17.14l-.87-.53c-.1-.06-.18-.1-.29-.03l-.45.28c-.16.1-.31.19-.46.3-.05.04-.09.06-.08.14v1.39c-.06-.02-.03-.08-.03-.13l-.06-1.14s-.1-.02-.11,0v-.26s.03-.09.07-.12l1.17-.73s.12-.04.17,0l1.12.7h-.01Z"/>
        <path class="cls-72" d="M1.57,19.33c.19-.3.23-.13.41-.19.03.01.09.02.18.03h1.63c.09,0,.15-.05.17-.15v-.85l.04-.03s.13,0,.17-.03v-.67c.05.21.02.43.02.65v1.13s-.03.09-.05.11-.06.03-.1.03H1.63s-.05-.02-.07-.03h.01Z"/>
        <path class="cls-33" d="M4.36,17.68c-.02.42-.02.84-.02,1.26v-1.45l.02.2h0Z"/>
        <path class="cls-64" d="M4,18.14v.84c0,.13-.09.22-.22.22h-1.39s-.39-.03-.4-.04,0-.02,0-.03c.04-.01.11,0,.15,0,.17.02.37.02.54,0l1.12-.03c.08,0,.11-.06.11-.13l.03-1.37c.04.07,0,.15.05.22-.04.11.02.21.02.3v.02Z"/>
        <path class="cls-72" d="M2.67,19.14s0,.02-.02.02h-.5s-.03-.01-.02-.02h.54Z"/>
      </g>
    </g>
  </g>
  <g>
    <path class="cls-63" d="M22.64,17.36c.05.07.1.16.02.22l.02.04c.01.56.01,1.13,0,1.69l-.04.02c0,.07-.05.19-.13.16-.03.05-.09.08-.17.07h-2.4c-.07,0-.12-.02-.15-.08-.09.06-.13-.09-.13-.16-.05,0-.05-.02,0-.04-.02-.56-.02-1.13,0-1.69-.07-.02-.06-.11,0-.13.02-.12.08-.2.19-.27l1.14-.7c.12-.08.24-.08.37,0l1.15.72c.07.04.1.11.14.16h-.01Z"/>
    <g>
      <path class="cls-27" d="M22.51,19.48s.05.03.04.07c-.03.08-.17.13-.25.15-.03,0-.53.02-.54,0-.01-.06-.02-.06-.01,0h-.57s-.03-.03-.05,0c-.39,0-.77,0-1.15-.01-.1-.02-.28-.15-.18-.23.04.02.09.04.15.04h2.38c.08,0,.13,0,.19-.02h-.01Z"/>
      <g>
        <path class="cls-59" d="M21.76,17.17h.06c.11.1.19.09.24-.03h.05l.29.17c.07.04.11.11.1.2v1.69c0,.07-.04.15-.12.15h-2.44s-.08-.02-.1-.04c-.03-.03-.01-.07-.01-.11s.03-.07.09-.08c.06-.04.09-.1.08-.19l.03-.02v-1.35s-.01-.08.03-.11l.96-.59c.09-.04.15-.06.25,0,.17.1.33.21.49.33v-.02Z"/>
        <path class="cls-30" d="M22.11,17.13s-.08.14-.13.16c-.09-.01-.15-.08-.22-.12-.17-.13-.36-.25-.57-.36h-.08c-.37.2-.73.42-1.09.66l-.04-.02c-.06.03-.11-.06-.06-.1l1.16-.73c.07-.04.15-.04.21,0l.82.52h0Z"/>
        <path class="cls-55" d="M19.97,17.44s.03.02.03.04c-.02.17-.03.35-.02.53v-.43l.05-.02v1.26c0,.1,0,.18-.03.28-.05.06-.12.09-.19.11l-.02-1.72c0-.07.05-.12.1-.14l.06.1h.02Z"/>
        <path class="cls-70" d="M19.65,19.27c-.05-.5,0-1.01-.02-1.52,0-.06-.01-.13.02-.17v1.69Z"/>
        <path class="cls-14" d="M21.76,17.17c-.17-.09-.33-.18-.5-.29-.07-.05-.15-.04-.22,0l-.92.57s-.07.07-.07.1l-.03,1.37c-.06-.45-.07-.91-.07-1.37,0-.04.02-.08.03-.11l1.06-.65c.21-.13.51.23.73.35.02,0,.02.03,0,.03h-.01Z"/>
      </g>
    </g>
  </g>
  <g>
    <g>
      <path class="cls-10" d="M22.27,8.94c.16,0,.27.12.35.24.06.06.13.2.04.26l.02.05c.01,1.94.01,3.89.01,5.83l-.04.03c.01.05,0,.16-.06.15-.01.06-.06.16-.13.1-.03.09-.12.09-.2.1h-4.32c-.16-.02-.31-.09-.33-.27,0-.08-.02-.17-.02-.26v-4.05s-.03-.1.04-.16l2.04-2c.08-.07.17-.09.29-.04.77,0,1.54,0,2.3.01h0Z"/>
      <g>
        <path class="cls-36" d="M17.62,15.43c.04.07.04.13,0,.16.03.03.04.06,0,.06h-.02v-.48c.04.08.01.17.02.26Z"/>
        <path class="cls-9" d="M22.47,15.6c.12.14-.18.22-.3.22-1.28,0-2.55,0-3.84.02-.13,0-.35-.02-.46-.06-.09-.03-.24-.1-.25-.2-.02-.05,0-.11,0-.16.07.13.18.23.35.23h4.28c.09,0,.16-.02.22-.06h0Z"/>
        <g>
          <path class="cls-18" d="M22.44,9.2s.03.08.01.12l-.4.4c.04.15.03.31-.01.47.02.42.02.84.02,1.26-.06.1-.06.21,0,.33-.04.11-.04.2,0,.28-.03.81-.03,1.62-.02,2.43,0,.1-.03.41-.08.48-.03.04-.1.06-.15.07-.37,0-.73,0-1.09.04-.3-.04-.59,0-.89.05-.38-.02-.76-.03-1.13-.01-.09-.03-.17-.03-.25.01-.08.02-.26,0-.26-.1-.03-.02-.07-.08-.07-.12-.03-.28-.02-.59,0-.87l.04-.07h-.02v-2.46c0-.1.04-.2.12-.27l1.55-1.57h.05c0-.07.06-.09.12-.12.38-.05.8-.04,1.19-.03,0,0,.01,0,.02.02l.51-.02v-.03h.22l.34-.35h.07c.07,0,.1.04.13.07h-.02Z"/>
          <path class="cls-34" d="M17.79,15.38l.02-.07c.11-.1.21-.2.31-.31h.07c.3.16.27-.04.42.02.1.04.37-.03.54,0,.1.02.18,0,.28.01h.36c.11.02.19,0,.29-.03s.21,0,.31-.01c.08-.02.16-.03.24,0,.09.03.18,0,.27,0h.21c.22-.03.44-.02.66-.01.05,0,.12-.01.15-.04.03-.03.04-.07.05-.12l.04-.33c.02-.23,0-.68,0-.95v-.21c0-.24-.01-.22,0-.48v-.21c0-.2,0-.39.03-.58-.12-.15.04-.19-.02-.34-.04-.09-.04-.19.02-.28v-1.03c0-.13-.04-.23,0-.36.04-.1,0-.23,0-.34.12-.12.22-.24.35-.36.05-.04.09-.09.07-.14.03.04.05.06.05.12v5.93c0,.18-.12.26-.29.26h-4.28c-.08,0-.13-.06-.14-.11v-.03Z"/>
          <path class="cls-73" d="M18.11,11.29h.03c-.02.14-.04.28-.05.42l.04.59v1.62l.03.02c0,.31-.05.61,0,.93,0,.04.07.09.03.13-.13.13-.24.28-.39.39-.03-.03-.04-.06-.04-.11v-4.08s.02-.05.04-.07c.04,0,.08.02.12.08l.09.06c.07-.03.11-.02.11.03h-.01Z"/>
          <path class="cls-60" d="M19.82,9.13c.13-.03.14-.01.17.1.02.06.04.17-.01.2.04.06-.08.15-.13.11-.02.03-.03.06-.03.09l-1.65,1.67h-.05s-.08.02-.13,0c-.08-.04-.15-.11-.19-.18l1.92-1.91s.07-.07.11-.08h-.01Z"/>
          <path class="cls-4" d="M22.31,9.11l-.4.4h-.75.02s-1.19-.03-1.19-.03l-.02-.04c-.02-.09-.02-.18-.05-.27-.01-.04-.08-.02-.1-.03.05-.03.09-.04.15-.04h2.26s.06,0,.09.01h-.01Z"/>
          <path class="cls-41" d="M19.85,9.65l-1.57,1.59c-.08.08-.1.16-.11.28v2.42s-.03.02-.05.02v-.97l-.02-.63c0-.31-.1-.63-.02-.93l.04-.14.51-.52,1.22-1.22s.04.05,0,.11h0Z"/>
          <path class="cls-5" d="M21.17,9.52l-1.04.02c-.11,0-.21.03-.28.11-.04-.02,0-.07,0-.11.04-.04.09-.06.13-.11l1.08.04c.22,0,.42-.02.63.02-.18-.01-.36.02-.52.03Z"/>
        </g>
      </g>
    </g>
    <g>
      <path class="cls-8" d="M14.91,8.98s.05.02.07.01l1.99,1.97.03.09v4.37c-.02.18-.18.25-.35.27h-3.74c-.1,0-.16-.02-.18-.08-.03.03-.07.03-.11-.02-.05-.05-.07-.1-.07-.15h-.04s0-.19-.01-.58c.01-1.86.02-3.72.01-5.58v-.02c.01-.2.24-.35.42-.35h1.78c.06,0,.14.01.17.05l.03.02Z"/>
      <g>
        <path class="cls-68" d="M17.01,15.58c-.1.24-.42.26-.65.26h-2.39c-.08-.01-.17-.01-.25,0-.29,0-.58-.01-.87-.04-.09-.04-.23-.1-.11-.18.06.02.12.03.2.03h3.7c.17,0,.28-.1.37-.23v.15h0Z"/>
        <g>
          <path class="cls-47" d="M15.8,10.71l.09.02.42.39c.09.07.14.14.14.23.06-.01.06.01.02.05l.02.02c.01,1.14.01,2.28,0,3.42-.02.13-.04.18-.18.23-.69.02-1.4.03-2.09.03-.02,0-.02-.01-.03-.03-.25.01-.51.01-.76,0-.01.03-.05.03-.06,0,0,.02-.02.05-.04.05-.06,0-.12-.01-.19-.03-.08.07-.15.14-.22.22-.06.06-.17.12-.22.03v-.05c.05-.11.13-.21.23-.31.06-.05.11-.1.16-.14-.03-.03-.04-.07-.03-.13-.02-1.69-.02-3.4,0-5.1.04-.1.11-.14.22-.15l1.28-.02,1.23,1.24v.03h.01Z"/>
          <path class="cls-3" d="M12.7,15.34c.2.03.26-.19.43-.29.07,0,.16.04.23.02t.02.02c.94.05,1.94.04,2.9.02.11,0,.19-.13.2-.23l.05-1.93c-.02-.51-.04-1.01-.06-1.51,0,.02-.02.01-.02-.03-.02,0-.01-.03-.02-.05-.01-.06,0-.06.04-.02,0-.02.03-.03.09-.02l.03-.05.21-.04s0-.05.04-.07l.02,4.11c0,.15-.11.24-.26.24h-3.69c-.11,0-.2-.1-.22-.18h0Z"/>
          <path class="cls-12" d="M16.86,11.17s.01.08,0,.1c-.09.04-.19.04-.27.06-.04,0-.07,0-.09.02l-.04.02c-.08-.1-.17-.2-.27-.29-.13-.11-.25-.24-.37-.36-.01-.02-.02-.03,0-.03-.41-.4-.81-.81-1.2-1.23l-.1-.02-1.25.03c-.09.02-.17.08-.19.17l-.03,1.64-.04.02c-.01.07-.23.14-.28.09v-2.03c.01-.14.09-.26.24-.26h1.84l2,1.97s.06.07.07.1h-.02Z"/>
          <path class="cls-48" d="M13.09,14.85s0,.07-.05.1c-.13.09-.23.27-.34.35v-3.91l.29-.09h.04c.01,1.14.02,2.26.03,3.38,0,.08,0,.13.03.17Z"/>
          <path class="cls-32" d="M15.8,10.71l-.95-.92-.3-.31-1.25.02c-.08,0-.21.05-.21.15v3.48l-.02,1.58v.13s-.03,0-.03-.01c0-.04-.03-.69-.02-.79.01-.13.02-.25.01-.38l-.04-.42-.02-1.95.02-.91v-.71c.02-.17.14-.25.3-.26l1.19-.03c.05,0,.12,0,.15.05l.49.53.68.71s0,.05-.01.04h.01Z"/>
          <path class="cls-42" d="M13.37,15.06h.06c.25.02.51.02.76,0l2.07-.03c.09,0,.19-.09.19-.18v-3.45h.04s.01.04.01.06l.07,1.04c.03.39,0,.76-.01,1.15l-.03,1.21c0,.14-.11.27-.26.28-.76.03-1.5,0-2.25-.02-.09,0-.16,0-.24-.02-.15-.02-.46.03-.41-.05h0Z"/>
          <path class="cls-3" d="M14.19,15.07s0,.02-.02.02h-.71s-.03-.01-.02-.02h.76,0Z"/>
          <path class="cls-47" d="M16.58,11.32s-.06.02-.09.02c-.01-.02-.04-.05-.01-.09.04.03.06.06.1.06h0Z"/>
        </g>
      </g>
    </g>
  </g>
  <path class="cls-43" d="M7.29,5.23c.06.04.11.09.15.15.03.06.07.1.13.13.05.04.1.08.13.13.01,0,.02.04.04.04.06.03.1.08.13.13,0,.03.05.05.07.07.51.48,1.03.99,1.48,1.52.03.05.03.1,0,.13.07.04.06.22-.02.23,0,.06,0,.15-.08.16-.03.07-.07.14-.13.19l-2.14,2.13h-.05s.01.03-.02,0c-.17.08-.36.09-.51-.02h-.07c-.77-.75-1.53-1.53-2.28-2.31v-.05s-.04,0-.03-.02c-.03,0-.05-.02-.04-.08-.09-.05-.06-.2,0-.29.03-.08.05-.15.12-.23l2.23-2.27c.18-.18.45-.18.64-.02.1.08.18.19.28.26l-.03.02Z"/>
  <g>
    <path class="cls-77" d="M7.87,5.82s-.1-.08-.13-.13c.07-.01.13.06.13.13Z"/>
    <g>
      <path class="cls-77" d="M7.44,5.38c-.07-.03-.1-.11-.15-.15.08.01.12.08.15.15Z"/>
      <path class="cls-77" d="M7.7,5.65s-.1-.08-.13-.13c.06.01.12.07.13.13Z"/>
      <path class="cls-46" d="M9.23,7.51c.03.12,0,.24-.08.33l-2.19,2.21c-.15.15-.34.16-.49,0l-2.21-2.24c-.06-.06-.08-.14-.08-.2.03-.06.25-.08.26,0h.16s.02-.03.05-.02c.04.02.19.22.16.27l1.71,1.74c.05.04.19.12.17.04.02-.05.12-.07.13,0l.07-.03c.64-.6,1.26-1.24,1.86-1.9.04-.05.04-.1.03-.16-.05-.06.04-.11.08-.05.01-.04.05-.06.12-.05.08,0,.24-.03.27.04l-.02.02Z"/>
      <path class="cls-51" d="M6.84,5.05s.04.04.04.07c.02.08-.01.22-.03.3l.1.08,1.09,1.14.17.16c.04.05.02.11-.04.06-.04.02-.1,0-.16-.09-.07-.04-.1-.09-.08-.14h-.08l-.8-.79c-.17-.01-.34-.03-.51-.06l-.08-.04-.91.9h-.06l-.07.13-.77.74-.02.1c-.07.01-.14.01-.21,0-.08-.02-.18.01-.26,0,0-.11.03-.2.1-.27l2.21-2.24c.1-.1.25-.12.36-.06h.01Z"/>
      <path class="cls-44" d="M9.23,7.51h-.39c-.07.03-.1-.01-.06-.07-.05-.07-.05-.12,0-.15.14.02.09-.08.02-.16-.11-.14-.24-.26-.39-.35-.09-.15-.2-.25-.33-.3-.13.03-.08.06.15.11.02.02.27.33.27.35.02.05,0,.17-.06.16-.12,0-.26-.14-.28-.26.09.02-.08-.11-.1-.13l-1.04-1.1c-.08-.08-.14-.14-.24-.2.05-.13.04-.26.04-.39.03.02.06.03.09.05l1.28,1.29.95.96s.07.1.08.15v.04Z"/>
      <path class="cls-79" d="M7.94,6.64l.24.22c.09.09.18.18.28.26h.06l.24.24.02.08s.03.06.06.08c-.03,0-.07.03-.08.05.02.11-.04.22-.16.31-.58.59-1.16,1.18-1.75,1.76h-.03s-.09.03-.13,0c-.04.04-.09.02-.16-.04-.59-.57-1.16-1.15-1.72-1.74-.07-.07-.11-.16-.18-.24-.08,0-.13,0-.19-.02h.17s.02-.08.02-.12c.29-.28.57-.58.87-.84.09-.04.2-.04.31,0,.62.02,1.23.02,1.84-.01l.23-.03.06.03h0Z"/>
      <path class="cls-65" d="M6.81,9.65l1.29-1.33.64-.64s0-.09.02-.12c.1.1-.08.29-.16.38-.43.49-.89.93-1.37,1.38l-.33.32h-.09Z"/>
      <path class="cls-37" d="M6.68,9.66s.03.02.03.03c0,.06-.14.05-.25-.05-.18-.16-.33-.32-.5-.5l-1.1-1.17s-.07-.05-.06-.09l.7.67,1.05,1.04s.09.06.13.08h0Z"/>
      <path class="cls-81" d="M7.94,6.64c-.11.03-.22.04-.34.05l-.35.02c-.12,0-.21.01-.33,0-.41-.04-.95.04-1.24-.04-.06-.02-.14.03-.19-.01.08-.11.2-.2.3-.3l.68-.68c.03.08.08.07.14.08l.22.02c.08,0,.15.05.24.02l.86.84h.01Z"/>
      <path class="cls-1" d="M8.78,7.44c-.1-.11-.23-.2-.33-.33.05-.25.02-.07-.15-.39-.11-.21-.26-.03-.34-.22.09-.11.24-.05.31.03.17.18.13.22.3.3.07.03.08.08.12.12.06.06.31.27.19.37-.02.02-.09-.01-.1.02v.09h0Z"/>
    </g>
  </g>
  <path class="cls-83" d="M17.73,5.01l2.19,2.23c.35.37-.03.72-.03.72-.69.71-1.63,1.66-2.36,2.39-.1.1-.25.1-.36,0-.48-.46-1.79-1.71-2.38-2.31-.03-.04-.42-.37-.06-.84.74-.77,1.49-1.52,2.26-2.26.42-.37.73.07.73.07h.01Z"/>
  <g>
    <path class="cls-23" d="M18.44,6.55h.03l.15.13h.05c.21.21.42.42.63.64.03.04.12.15.11.2,0,.02-.02.04-.04.05.02.04-.03.14-.05.18-.13.18-.32.34-.5.47-.31.34-.62.68-.94,1.02l-.13.1c-.14.22-.43.54-.65.22-.34-.35-.68-.68-1.03-1.01-.24-.25-.49-.49-.75-.72.02.2-.11.3-.23.12-.06-.09-.04-.12.02-.19.03-.07-.26-.11-.32-.12l-.03-.04c0-.07,0-.1.03-.15l.04-.04c.14.03.27.03.38,0l.04.02c.33-.36.68-.71,1.04-1.05h.05s.09,0,.13.08l.5.05c.45-.02.9-.03,1.35,0l.09.04h.03Z"/>
    <path class="cls-15" d="M19.84,7.62c-.07.05-.41.04-.48-.05.01-.15-.26-.37-.37-.49-.08-.08-.14-.16-.23-.23,0,0-.14-.17-.15-.17-.39-.38-.78-.76-1.15-1.16-.05-.02-.07-.05-.06-.08l-.04-.04c.03-.11.04-.21.05-.32l.04-.04s.08.05.12.08l1.15,1.16,1.05,1.07c.08.08.09.17.09.27h-.02Z"/>
    <path class="cls-62" d="M16.45,6.14l.02.04c-.39.42-.79.84-1.19,1.25-.1.1-.3.03-.47.03.02-.04.02-.07.05-.1l1.33-1.33.05-.02.2.08v.05h.01Z"/>
    <path class="cls-67" d="M17.44,5.04c.02.14-.03.27-.05.4-.04.03-.09.04-.15.04l-.06.02c-.24.21-.47.42-.69.66h-.05c-.09-.05-.18-.06-.26-.12l.89-.92c.1-.1.24-.13.36-.08h0Z"/>
    <path class="cls-11" d="M18.44,6.55c-.12.01-.23,0-.35,0h-.94c-.06.01-.11.02-.17.02l-.5-.05s-.07-.09-.11-.11l-.02-.04.79-.8c.13-.1.23-.1.36,0l.95.97v.03-.02Z"/>
    <path class="cls-50" d="M17.4,5.44c.07.02.14.08.19.15l1.02,1.1c-.06-.03-.13-.08-.18-.13l-.98-.97c-.09-.09-.22-.07-.3.01l-.79.81-1.09,1.03s.02-.05.04-.07l1.13-1.23.62-.61c.09-.09.22-.13.33-.09h0Z"/>
    <g>
      <path class="cls-57" d="M19.84,7.62c-.01.19-.13.26-.28.42l-2.06,2.06c-.1.1-.26.07-.36.01-.07-.04-.11-.09-.15-.14l.03-.04c.11.03.18-.02.19-.17l-.2-.07c-.19-.24-.27-.26-.25-.06.07.07.08.12.04.15-.05-.04-.07-.08-.12-.12l-1.81-1.82c-.07-.07-.08-.15-.09-.22.08-.02.15.02.24.04.07.01.17.04.14.13-.01.03-.09.08-.05.13.03.05.09.08.13.12.05-.07.01-.16.04-.23s.08.02.11.04c.11.07.17.15.26.24l.45.45c.06.06.13.1.19.16.25.3.41.37.6.61.07.09.14.16.23.23.06.04.08.12.15.13.08,0,.15,0,.21-.06s.15-.12.19-.2c.04-.07.06-.1.13-.14.09-.06.14-.17.22-.24.07-.06.13-.13.19-.2l.26-.28c.06-.06.12-.1.18-.17l.13-.16c.05-.06.11-.08.16-.12.11-.11.23-.21.33-.33.05-.06.05-.15.11-.19h.05c.12.04.26.04.39.02l.04.03h-.02Z"/>
      <path class="cls-23" d="M16.99,9.97c-.07-.07-.12-.14-.19-.19-.02-.12-.16-.11-.05-.33.17-.04.2.16.3.21.07.03.14.03.2.09-.02.06-.02.15-.07.21-.05.05-.13.01-.19.02h0Z"/>
      <path class="cls-23" d="M16.5,9.15c.04.11.22.21.15.28-.02.02-.07.04-.1.01-.11-.11-.23-.2-.34-.32-.05-.05-.08-.12-.15-.16-.04-.03-.04-.09-.01-.12.09-.12.28.14.3.16.05.05.11.08.14.15h.01Z"/>
      <path class="cls-23" d="M15.79,8.48c.01.06.08.09.04.16-.02-.04-.05-.06-.09-.05-.05,0-.29-.2-.27-.34.12.09.28-.04.33.23h0Z"/>
      <path class="cls-23" d="M15.41,8.14s-.06-.03-.07-.05c-.02-.03-.03-.07.03-.08.03,0,.06.02.06.04s.02.08-.02.1h0Z"/>
    </g>
  </g>
  <g>
    <g>
      <path class="cls-19" d="M9.28,8.94c.61-.02,1.25-.02,1.86,0,.16,0,.29.15.35.29.06.02.1.11.04.14l.04.21c.01,1.89.01,3.78,0,5.67l-.03.03s.01.11-.04.11c-.02.07-.06.19-.15.17-.1.1-.21.15-.35.15h-3.6c-.08,0-.16-.01-.21-.08-.1.07-.16-.11-.17-.2v-4.38l.04-.09c.48-.47.95-.94,1.43-1.41l.11-.05c-.02-.07.06-.15.13-.13.1-.16.25-.35.44-.41,0-.06.09-.05.13-.02h-.02Z"/>
      <g>
        <g>
          <path class="cls-77" d="M9.15,8.96l-.44.41c.15-.33-.01-.14.19-.31.08-.07.14-.13.25-.1Z"/>
          <g>
            <path class="cls-77" d="M11.14,8.94h-1.86s.01-.02.02-.02h1.82s.03.01.02.02Z"/>
            <path class="cls-75" d="M11.27,9.2v.06l-.27.28c-.04.06-.08.11-.14.13-.01.1-.01.21-.01.33-.04,1.56-.04,3.11-.02,4.67,0,.16-.08.29-.25.29h-2.98c-.07,0-.45.04-.44,0l.02-.04h.29l.02-.95.04-.03h-.02c-.02-.88,0-1.76.02-2.63l1.69-1.65c.13-.18.19-.2.43-.22.37-.03.77-.05,1.14-.02h.02c.09-.08.18-.18.26-.28l.06-.02c.06,0,.12.03.15.09h-.01Z"/>
            <path class="cls-21" d="M10.86,9.67c.01-.12.33-.36.4-.47.09.07.11.18.11.3v5.53c0,.24-.1.45-.37.45h-3.7c-.2,0-.16-.26-.15-.41l3.43-.03c.24,0,.35-.21.35-.41v-1.24c.01-1.2.02-2.37-.04-3.57,0-.07.02-.14-.03-.18v.03Z"/>
            <path class="cls-16" d="M11.12,9.12c-.07.14-.19.24-.31.35-.14-.05-.27-.03-.41-.02-.31.01-.62.01-.93.05-.1,0-.16.13-.23.19l-.88.87-.81.78v.51l-.03,1.18v.91c-.03.08-.09.03-.09-.04l-.02-2.55-.23-.03-.03-.04s-.03-.11.01-.15l2.07-2.03h1.82s.05,0,.07.02Z"/>
            <path class="cls-20" d="M7.52,13.94l-.02,1.02h-.35v-3.68c.1,0,.19.02.31.03l.02,2.57v.05s.02.02.04.01Z"/>
          </g>
        </g>
        <path class="cls-39" d="M11.6,15.28h-.06v-5.76c0-.07-.02-.11,0-.16.02.1.08.21.08.33v4.46c0,.13-.03.73-.02.78.03.13,0,.23,0,.35Z"/>
        <path class="cls-29" d="M11.33,15.56c-.2.3-.36.19-.52.21-.1,0-.21-.03-.31,0-.09.03-.17,0-.25,0h-.93c-.21,0-.41.02-.61.01-.22,0-.43.02-.65,0-.09,0-.17-.03-.25,0-.22-.08-.56.08-.63-.16.08.03.14.04.24.04h3.57c.14,0,.25-.04.35-.11h-.01Z"/>
      </g>
    </g>
    <g>
      <path class="cls-66" d="M6.4,11.08v4.4c0,.07-.11.19-.17.15-.02.04-.07.07-.13.08H1.86c-.14-.01-.29-.04-.37-.17-.07.02-.11-.07-.11-.13-.05,0-.05-.04-.04-.08-.02,0-.04-.02-.04-.04,0-.08,0-.15-.02-.23,0-1.84,0-3.67.02-5.51l.02-.03c0-.08,0-.17.02-.24.06-.22.26-.35.5-.35h2.27c.12,0,.19.05.27.13l1.92,1.89s.07.1.11.13h-.01Z"/>
      <g>
        <path class="cls-54" d="M1.33,15.33c-.04.29.23.51.5.55,1.4,0,2.81.01,4.21,0,.12,0,.22-.07.32-.14l.04.02v.05c-.19.18-.56.13-.8.13h-2.02c-.1.01-.18.01-.29.01h-1.43c-.24-.01-.42-.15-.54-.34-.05-.08-.04-.14-.05-.23l-.02-.32v-.19c0-.22,0-.44,0-.66,0-.12.04-.25,0-.37-.03-.09,0-.18,0-.27,0-.29,0-.57,0-.87v-1.04c0-.18,0-.93,0-1.06v-.97s.03-.1.07-.11v5.49c0,.12,0,.21.02.31h0Z"/>
        <path class="cls-6" d="M6.23,15.63c.03.08-.15.13-.16.13H1.81l-.23-.06c-.06-.03-.07-.1-.1-.15.12.07.24.13.39.13h4.15c.09,0,.14,0,.2-.04h.01Z"/>
        <g>
          <path class="cls-31" d="M6.42,11.1v4.42s-.01.02-.02,0c-.02,0-.03-.01,0-.04l-.04-.02v-4.36l.05-.03.02.02h-.01Z"/>
          <path class="cls-7" d="M4.39,9.31l1.82,1.78s.04.05.04.08l-.03.07-.27.17c-.03,1.12-.04,2.24-.02,3.37,0,.11-.02.17-.09.2l-2.08.02h-1.35c-.03.06-.17.02-.24,0-.04-.01-.08-.03-.12-.05-.14.13-.28.25-.43.37h-.07s-.07-.1-.07-.17c.02-.04.04-.08.07-.11.13-.13.31-.27.47-.35h-.02c-.02-1.32-.03-2.65-.02-3.97l.04-.03v-.32s-.05-.01-.06-.03c0-.19-.02-.58.12-.72.1-.1.49-.09.65-.08l.03.04c.41-.01.84-.02,1.26,0,.02,0,.05-.01.07,0,.09.04.56.53.65.63,0,0,.01.02.01.03t.02-.02c-.23-.21-.45-.43-.67-.66v-.05c-.09-.08-.02-.25.09-.27l.2.06h0Z"/>
          <path class="cls-21" d="M2.41,15c.16.04.33.01.51.03.27.03.53,0,.82.01l2.52.04c.02.11.02.41-.13.41H1.79c-.12,0-.18-.11-.24-.17.17-.14.34-.26.49-.44.12.1.24.09.37.12Z"/>
          <path class="cls-17" d="M4.39,9.31c0,.08-.17,0-.22-.02-.05.07-.09.15-.06.23-.03.02-.06.02-.1-.01-.58,0-1.16,0-1.74.02-.22.02-.28.17-.29.38-.02.44-.03.89-.04,1.33l-.03.1-.02.04-.25.07c-.08.02-.13.01-.16-.03v-1.97c0-.17.12-.36.31-.36h2.39c.09.07.15.15.22.22h-.01Z"/>
          <path class="cls-53" d="M1.91,11.34h.04s0,1.12.04,3.32c0-.03.02,0,.03.03-.17.16-.35.32-.54.46v-3.72c.25,0,.25-.07.43-.08h0Z"/>
          <path class="cls-2" d="M6.25,11.17l.02,3.8c-.15.01-.29,0-.42,0,.03-.06.05-.13.05-.22v-3.38s.36-.22.36-.22v.02Z"/>
          <path class="cls-76" d="M4.11,9.52l.51.53c.06.06.1.14.15.19.03.03.02.04-.02.02-.13-.13-.27-.23-.41-.36-.11-.11-.21-.22-.33-.3-.42-.02-.85-.02-1.26,0h-.5c-.32,0-.25.58-.26.78v.32l.02,2.57v1.42s-.06,0-.06-.02l-.06-3.32c0-.44,0-.89.02-1.34,0-.23.05-.51.34-.52l1.66-.03c.08,0,.13.01.18.06h.02Z"/>
          <path class="cls-17" d="M4.75,10.25l.02-.02.51.52c-.13-.06-.19-.16-.29-.26l-.24-.24Z"/>
          <path class="cls-17" d="M4.02,9.59h-1.26s0-.03.02-.03c.42.03.83-.03,1.23.03h0Z"/>
          <path class="cls-17" d="M2.02,10.69s0-.31,0-.32c.03-.04,0,.31,0,.32Z"/>
        </g>
      </g>
    </g>
  </g>
</svg>