<?xml version="1.0" encoding="UTF-8"?>
<svg id="Layer_2" data-name="Layer 2" xmlns="http://www.w3.org/2000/svg" xmlns:xlink="http://www.w3.org/1999/xlink" viewBox="0 0 24 24">
  <defs>
    <style>
      .cls-1 {
        fill: #8bcaf3;
      }

      .cls-2 {
        fill: #1d4e78;
      }

      .cls-3 {
        fill: #77b1dc;
      }

      .cls-4 {
        fill: #78b5de;
      }

      .cls-5 {
        fill: #95cef3;
      }

      .cls-6 {
        fill: #1f4f78;
      }

      .cls-7 {
        fill: #3e8dbe;
      }

      .cls-8 {
        fill: #3c83b6;
      }

      .cls-9 {
        fill: #28659b;
      }

      .cls-10 {
        fill: url(#linear-gradient-2);
      }

      .cls-11 {
        fill: #2c7bb2;
      }

      .cls-12 {
        fill: #3a80b3;
      }

      .cls-13 {
        fill: #1c4d78;
      }

      .cls-14 {
        fill: #1d4e79;
      }

      .cls-15 {
        fill: #6eafda;
      }

      .cls-16 {
        fill: #1b4f7b;
      }

      .cls-17 {
        fill: #8fcaf3;
      }

      .cls-18 {
        fill: #3b8bbd;
      }

      .cls-19 {
        fill: #3382b7;
      }

      .cls-20 {
        fill: #3989bd;
      }

      .cls-21 {
        fill: #498aba;
      }

      .cls-22 {
        fill: #337eb0;
      }

      .cls-23 {
        fill: #23527b;
      }

      .cls-24 {
        fill: #2d7cb3;
      }

      .cls-25 {
        fill: #74b6e4;
      }

      .cls-26 {
        fill: #74b1db;
      }

      .cls-27 {
        fill: #73b2dc;
      }

      .cls-28 {
        fill: #87c4e8;
      }

      .cls-29 {
        fill: #92cdf2;
      }

      .cls-30 {
        fill: #29649b;
      }

      .cls-31 {
        fill: #7ebae1;
      }

      .cls-32 {
        fill: #3887ba;
      }

      .cls-33 {
        fill: #24639d;
      }

      .cls-34 {
        fill: #91cbf0;
      }

      .cls-35 {
        fill: #67a8d8;
      }

      .cls-36 {
        fill: #307fb5;
      }

      .cls-37 {
        fill: #367fb0;
      }

      .cls-38 {
        fill: #a3d5f7;
      }

      .cls-39 {
        fill: #8cc7ec;
      }

      .cls-40 {
        fill: url(#linear-gradient-3);
      }

      .cls-41 {
        fill: #4487b5;
      }

      .cls-42 {
        fill: #4a97c7;
      }

      .cls-43 {
        fill: #2768a0;
      }

      .cls-44 {
        fill: #22537c;
      }

      .cls-45 {
        fill: #4c9ac8;
      }

      .cls-46 {
        fill: #65aadb;
      }

      .cls-47 {
        fill: #3a7eb0;
      }

      .cls-48 {
        fill: #2c68a0;
      }

      .cls-49 {
        fill: #4293c3;
      }

      .cls-50 {
        fill: #4c9cca;
      }

      .cls-51 {
        fill: #60a6dc;
      }

      .cls-52 {
        fill: #2e7aac;
      }

      .cls-53 {
        fill: #215077;
      }

      .cls-54 {
        fill: #377db1;
      }

      .cls-55 {
        fill: #27649d;
      }

      .cls-56 {
        fill: #72b2de;
      }

      .cls-57 {
        fill: #62a6d9;
      }

      .cls-58 {
        fill: #215078;
      }

      .cls-59 {
        fill: #8dccf3;
      }

      .cls-60 {
        fill: #4291c1;
      }

      .cls-61 {
        fill: #4286b8;
      }

      .cls-62 {
        fill: #3282b7;
      }

      .cls-63 {
        fill: #397ca9;
      }

      .cls-64 {
        fill: #23619c;
      }

      .cls-65 {
        fill: #21527c;
      }

      .cls-66 {
        fill: #3276a9;
      }

      .cls-67 {
        fill: #99d1f6;
      }

      .cls-68 {
        fill: #6daad6;
      }

      .cls-69 {
        fill: #4895c5;
      }

      .cls-70 {
        fill: #97cff3;
      }

      .cls-71 {
        fill: #82c0e9;
      }

      .cls-72 {
        fill: #22527b;
      }

      .cls-73 {
        fill: #184e7c;
      }

      .cls-74 {
        fill: #204f7a;
      }

      .cls-75 {
        fill: #73afd9;
      }

      .cls-76 {
        fill: #1c4f7a;
      }

      .cls-77 {
        fill: #85c1e7;
      }

      .cls-78 {
        fill: #63a7d8;
      }

      .cls-79 {
        fill: #54a2c9;
      }

      .cls-80 {
        fill: #3482b6;
      }

      .cls-81 {
        fill: #7ebde5;
      }

      .cls-82 {
        fill: #80bee5;
      }

      .cls-83 {
        fill: #7fbee9;
      }

      .cls-84 {
        fill: #4891bf;
      }

      .cls-85 {
        fill: #6dadd8;
      }

      .cls-86 {
        fill: #72b2dc;
      }

      .cls-87 {
        fill: url(#linear-gradient);
      }

      .cls-88 {
        fill: #28659c;
      }

      .cls-89 {
        fill: #387db1;
      }

      .cls-90 {
        fill: #337cae;
      }

      .cls-91 {
        fill: #1d4d77;
      }

      .cls-92 {
        fill: #235179;
      }

      .cls-93 {
        fill: #3a82b5;
      }

      .cls-94 {
        fill: #24629c;
      }
    </style>
    <linearGradient id="linear-gradient" x1="538.63" y1="483.5" x2="540.47" y2="681.01" gradientTransform="translate(.2 -.11) scale(.02)" gradientUnits="userSpaceOnUse">
      <stop offset="0" stop-color="#3c83b4"/>
      <stop offset=".43" stop-color="#4f9cc3"/>
      <stop offset="1" stop-color="#3574ad"/>
    </linearGradient>
    <linearGradient id="linear-gradient-2" x1="707.36" y1="475.19" x2="812.67" y2="643.51" gradientTransform="translate(.2 -.11) scale(.02)" gradientUnits="userSpaceOnUse">
      <stop offset="0" stop-color="#3a7fb0"/>
      <stop offset=".36" stop-color="#4e98c1"/>
      <stop offset="1" stop-color="#3376aa"/>
    </linearGradient>
    <linearGradient id="linear-gradient-3" x1="385.05" y1="479.15" x2="272.75" y2="642.89" gradientTransform="translate(.2 -.11) scale(.02)" gradientUnits="userSpaceOnUse">
      <stop offset="0" stop-color="#397cad"/>
      <stop offset=".51" stop-color="#4e9ac3"/>
      <stop offset="1" stop-color="#3176ab"/>
    </linearGradient>
  </defs>
  <g>
    <path class="cls-14" d="M12.78,15.56c-.19.18-.41.17-.58,0l-1.52-1.51c-.11-.11-.13-.26-.02-.38.14-.15.28-.29.43-.43.09-.08.21-.11.31-.02l.53.5v-2.99c0-.15.11-.26.25-.27.21-.01.42,0,.64,0,.14,0,.24.13.24.27v3.01s.51-.49.51-.49c.1-.1.23-.09.33,0l.4.4c.15.14.11.31-.03.44l-1.48,1.47Z"/>
    <g>
      <path class="cls-87" d="M12.73,10.76l.04.03c.02,1.08.03,2.16.02,3.24.01.05.04.1.09.14l.19-.06.6-.61c-.02-.08,0-.14.04-.19.01,0,.02.02.03.02.04.04.05.1.04.18.13.1.23.21.3.34l-.02.05-1.49,1.47c-.09.06-.14.03-.21-.03l-1.46-1.43c-.09.02-.16,0-.19-.05,0,0,0-.02,0-.02.04-.05.1-.06.19-.05l.3-.31h.08s.63.62.63.62l.09.04c.05,0,.1,0,.15,0,0-.04,0-.09.02-.15v-3.22s.04-.03.04-.03c0-.02,0-.04.02-.05.05,0,.41,0,.46,0l.03.05Z"/>
      <path class="cls-55" d="M10.71,13.87h.21s.73.72.73.72l.44.44c.1.09.2.17.29.27.03.04.11.11.17.05l1.48-1.46s-.02-.09-.04-.11l-.25-.24c-.01-.07,0-.14,0-.2.08,0,.31.26.4.34.05.05.15.14.12.23l-1,1c-.14.14-.29.26-.41.42-.07.09-.33.3-.44.22l-.35-.28c-.11-.14-.24-.26-.37-.39l-.14-.14-.8-.79s-.04-.05-.02-.08Z"/>
      <path class="cls-88" d="M12.94,14.05c.03.06,0,.11-.07.11-.07,0-.13-.05-.13-.14v-3.17s-.04-.07-.01-.09c-.04-.06.06-.14.12-.15.02.01.05.03.06.06v3.35s0,.04.03.03Z"/>
      <path class="cls-86" d="M12.13,10.62c.07.05.1.09.09.14v3.25c0,.08-.03.11-.07.14-.07.04-.18-.05-.14-.12.02,0,.03-.02.03-.05v-3.25c0-.07.04-.11.08-.12Z"/>
      <path class="cls-28" d="M12.01,14.03s.08.09.14.12c-.08.08-.21.05-.3-.03l-.62-.61-.32.33h-.21s0-.04.02-.05c.14-.16.29-.3.44-.45.04-.04.1-.05.14,0l.7.69Z"/>
      <path class="cls-81" d="M13.71,13.31v.2s-.6.61-.6.61c-.07.07-.17.09-.24.04.02-.04.04-.08.07-.11l.68-.69s.05-.05.08-.05Z"/>
      <path class="cls-38" d="M12.85,10.61c0,.06-.08.1-.12.15h-.51s-.15-.1-.09-.14c.03-.04.68-.04.72,0Z"/>
    </g>
  </g>
  <g>
    <circle class="cls-74" cx="17.78" cy="17.54" r=".5"/>
    <path class="cls-93" d="M17.64,17.19c.1-.03.15-.06.26,0,.06.03.1.05.13.12.07.17.08.35-.04.5-.11.14-.32.14-.45.03v-.03c-.19-.21-.13-.47.1-.62Z"/>
    <path class="cls-26" d="M17.64,17.19s.01.02,0,.02c-.01,0-.01.02-.02.03-.38.3.11.66-.08.6-.12-.09-.17-.23-.14-.38.02-.13.11-.23.24-.27Z"/>
  </g>
  <g>
    <circle class="cls-6" cx="10.32" cy="21.76" r=".5"/>
    <path class="cls-8" d="M9.97,21.89c-.05-.07-.05-.16-.01-.22.1-.19.29-.22.47-.19.13.02.22.08.25.23.01.08.04.17-.03.23-.19.26-.51.24-.67-.04Z"/>
    <path class="cls-26" d="M9.97,21.89s.06.03.08.06c.15.17.4.16.56,0,.01-.01.03-.04.04,0-.06.16-.21.24-.37.22-.14-.01-.27-.12-.3-.26Z"/>
  </g>
  <g>
    <circle class="cls-72" cx="11.26" cy="22.29" r=".31"/>
    <path class="cls-47" d="M11.09,22.39c-.07-.08-.04-.19.06-.24.05-.03.14-.06.19-.03.09.05.12.2.06.28-.09.09-.22.09-.31,0Z"/>
    <path class="cls-68" d="M11.09,22.39c.1.05.21.06.31,0-.04.07-.1.1-.16.1-.07,0-.11-.05-.15-.1Z"/>
  </g>
  <g>
    <circle class="cls-65" cx="7.3" cy="18.78" r=".31"/>
    <path class="cls-90" d="M7.44,18.63c.08.07.08.17.03.25-.04.07-.16.13-.22.07l-.11-.12c-.05-.05-.03-.11,0-.15.08-.11.19-.09.3-.05Z"/>
    <path class="cls-56" d="M7.44,18.63c-.12.03-.11-.07-.3.05.03-.08.09-.1.15-.1.07,0,.11.01.15.06Z"/>
  </g>
  <g>
    <circle class="cls-92" cx="6.28" cy="17.09" r=".31"/>
    <path class="cls-63" d="M6.43,16.98c.03.05.06.08.04.14-.02.04-.13.21-.26.13-.05-.03-.11-.05-.12-.1,0-.06-.02-.11.02-.15.09-.1.23-.12.32-.02Z"/>
    <path class="cls-75" d="M6.43,16.98c-.1-.06-.22-.04-.32.02.03-.08.1-.12.17-.12.07,0,.11.04.15.1Z"/>
  </g>
  <g>
    <circle class="cls-23" cx="17.26" cy="18.47" r=".31"/>
    <path class="cls-54" d="M17.16,18.3c.08-.04.19-.02.24.06s.05.18-.01.25-.17.08-.25.03c-.09-.1-.08-.24.02-.33Z"/>
    <path class="cls-3" d="M17.16,18.3c-.07.1-.07.22-.02.33-.06-.04-.09-.1-.09-.17s.04-.13.1-.16Z"/>
  </g>
  <g>
    <circle class="cls-44" cx="10.24" cy="20.6" r=".31"/>
    <path class="cls-22" d="M10.07,20.7c-.06-.05-.04-.16,0-.22.04-.08.14-.07.22-.05.07.02.12.06.14.11.02.06.02.12-.01.16-.11.09-.23.12-.34,0Z"/>
    <path class="cls-85" d="M10.07,20.7c.09.07.24.1.31,0,0-.05.04-.04.03,0-.04.05-.1.1-.17.1s-.14-.04-.17-.1Z"/>
  </g>
  <g>
    <circle class="cls-53" cx="18.95" cy="17.46" r=".31"/>
    <path class="cls-37" d="M18.84,17.29c.09-.08.23-.06.28.04.01.02-.01.27-.1.31-.06.02-.14.03-.18-.01,0-.03.03-.01.03-.01,0,0-.03,0-.04-.01-.1-.07-.09-.24,0-.32Z"/>
    <path class="cls-15" d="M18.84,17.29c-.08.11-.07.27.05.33h-.05c-.07-.04-.1-.11-.1-.18,0-.07.05-.11.1-.15Z"/>
  </g>
  <g>
    <path class="cls-76" d="M11.08,21.07c.08-.36-.04-.72-.29-.95-.48-.46-1-.2-1.1-.26-.03-.02-.05-.06-.05-.11-.06-.93.35-1.8,1.07-2.36.95-.75,2.26-.81,3.28-.16,1.49.96,1.74,3.05.54,4.35-.63.67-1.52,1.02-2.45.9-.25-.03.06-.4-.35-.76-.35-.31-.69-.04-.78-.15s.06-.21.12-.49Z"/>
    <g>
      <path class="cls-32" d="M12.16,21.95c0-.06-.05-.12-.04-.18-.08-.33-.39-.51-.71-.57.04-.16.06-.33.06-.5-.02-.09-.02-.16,0-.23,0-.04-.03-.14.04-.12s.27.56.2.67c.06-.09.13-.08.23,0,.08.04.17.04.28.02.23.07.46.03.69-.12h.13c.18-.11.33-.22.43-.4.1-.06.18-.15.24-.26l-.04-.11c.11-.26.16-.61-.02-.85-.04-.34-.38-.64-.69-.77-.24-.1-.55-.22-.77-.04-.22.06-.52.17-.69.33-.07.07-.08.11-.08.21-.06.06-.08.13-.08.22-.09.09-.13.19-.13.28.05.11.05.2,0,.28.13.11.15.17.06.18h-.04c-.18-.22-.47-.41-.75-.42-.01,0-.03-.01-.04-.02,0-.05.01-.1.07-.14l.05-.12c-.04-.17.03-.31.16-.42.13-.28.28-.53.53-.73.16-.12.46-.33.65-.3.3-.15.62-.13.91.02.18-.06.31-.07.47.06.25.05.49.14.6.38.21.06.27.2.32.39.16.17.27.39.24.62.09.08.09.14.01.24.04.19.04.37-.02.54.03.12,0,.32-.1.4.03.05.04.09.05.14-.24.36-.54.74-.92.94l-.27.04c-.12.08-.24.13-.37.15-.17-.03-.32-.02-.47.02-.02.04-.05.07-.1.06.03.11-.04.24-.08.08Z"/>
      <path class="cls-19" d="M12.39,22.25c-.05-.01-.06-.07-.03-.16-.05-.04-.09-.04-.12,0h-.06s-.01-.15-.01-.15c.02,0,0,.04.03.05.02-.07-.02-.12,0-.19.03,0,.06,0,.07,0,.02,0-.04-.15.48-.09.13.01.2-.03.3-.1.04-.03.22-.09.33-.08.13.01.18-.1.25-.14.11-.07.16-.11.24-.22.1-.14.26-.24.34-.4.03-.06.05-.11.11-.15-.01-.06-.06-.09-.05-.14,0-.04.06-.05.08-.09.11-.51-.05-.07.06-.46.04-.12-.04-.27-.02-.4.02-.05.06-.07.06-.12-.19-.19.01-.06-.09-.28-.04-.07-.01-.17-.07-.24s-.16-.15-.18-.25c-.03-.15-.09-.25-.23-.29-.11-.03-.12-.19-.2-.24l-.2-.1c-.08-.04-.21-.03-.28-.09-.24-.19-.35.07-.49-.07-.05-.05-.33-.07-.38-.08-.15-.04-.24.06-.44.1-.23-.03-.21.04-.49.21-.17.1-.15.1-.3.24-.23.23-.2.3-.36.57-.36.34.04.33-.32.65-.09.02-.18,0-.26,0-.02-.06.01-.08.06-.09.02-.1.01-.2-.02-.3-.13-.15-.13-.23.06-.32.11-.16.21-.34.3-.53l.37-.38c.12-.05.22-.11.3-.2.13-.04.25-.09.37-.15.11,0,.21-.04.29-.12.16.02.33,0,.47-.08.1-.01.21,0,.31.05.62,0,1.2.32,1.63.75l.05.11c.19.13.27.38.33.6.14.48.24,1.19-.06,1.62.03.12,0,.18-.08.27.02.16-.07.27-.19.36.08.1,0,.16-.1.1.01.09-.05.16-.19.2.01.13.01.22-.15.23,0,.08-.07.11-.14.12-.02.12-.11.11-.21.09-.09.06-.19.11-.29.15-.15-.07-.24-.04-.28.07l-.05.04c-.12-.05-.21-.04-.27.02-.08,0-.12.01-.09.05-.02.07-.19.09-.21.01Z"/>
      <path class="cls-11" d="M12.6,22.24s-.03,0-.06,0,0-.03,0-.04c0-.01.03-.03.05-.03.14.02.02-.15.34-.03.04-.05.06-.14.11-.15.08-.02.15.01.21.03.04-.02.1-.06.15-.07.06-.01.1-.09.17-.09.04,0,.1.05.13,0,0-.02-.02-.05,0-.07.03-.03.11-.03.14-.06.01-.01-.01-.05,0-.07.04-.03.14-.01.15-.07.01-.05-.03-.13.02-.18.05-.05.14-.03.17-.1.01-.02-.03-.07,0-.09.03-.02.06-.02.09,0,.13.06-.03-.06,0-.1,0,0,.11-.03.19-.2.02-.05-.02-.12.02-.17s.1-.1.07-.17c-.04-.1.06-.13.07-.2.02-.08.08-.18.09-.25l.02-.32c0-.09-.05-.5-.07-.62l-.05-.26-.15-.42c-.03-.08-.18-.14-.2-.23-.03-.15-.12-.16-.22-.23-.11-.08-.19-.18-.32-.25.14.07-.53-.29-.37-.18-.08-.06-.17-.04-.25-.07-.15-.06-.26-.08-.43-.07-.1,0-.25-.11-.36-.04-.07.04-.12.06-.2.07-.07,0-.12.04-.2,0-.06-.02-.11.1-.17.1-.14,0-.23.06-.34.12-.06.03-.15.01-.2.09-.06.09-.19.09-.26.16-.05.05-.12.12-.17.17l-.19.2c-.05.05-.08.16-.11.22l-.11.22c-.05.09-.11.12-.19.16s.02.13.05.18c.06.09.04.26.02.37-.04.03-.07.03-.1.06-.08.02-.16.03-.23.06-.02.01-.04.02-.06,0-.06-.05.02-.44.03-.53.23-1.19,1.33-2.13,2.58-2.11s2.35.98,2.54,2.23l.03.03c.06.05.07.12,0,.16-.02.08-.02.17,0,.26.07.04.06.19-.02.21-.02.07-.04.14-.05.21.04-.01.05,0,0,.03,0,.02.02.03.02.05.04.12-.26.85-.38.91-.02,0-.03.01-.05.02v.09c-.45.59-.96.97-1.69,1.09-.07.01-.27.04-.3-.03Z"/>
      <path class="cls-64" d="M14.02,17.4c.57.41,1.01,1.11,1.08,1.82l-.04.04s-.02.03-.04.04c-.06-.3-.14-.59-.29-.85-.12-.21-.24-.42-.42-.58-.11-.09-.19-.2-.3-.29-.9-.68-2.07-.73-3-.07-.5.35-.71.67-.97,1.22-.04.1-.21.87-.12.9-.05.03-.1.07-.17.08-.05-.21.06-.85.16-1.05l.12-.27c.28-.6.86-1.1,1.46-1.34.57-.22,1.16-.23,1.73-.07.31.09.55.22.78.41Z"/>
      <path class="cls-67" d="M12.18,22.25c.02-.06.19-.07.21,0,.07,0,.14-.01.21-.01h.18c.74-.03,1.38-.54,1.81-1.15.05-.04.12.01.1.07-.55.83-1.53,1.32-2.55,1.19,0-.04.03-.08.05-.11Z"/>
      <path class="cls-66" d="M11,20.18c-.24-.33-.61-.49-1.03-.46.17-.1.36-.09.55-.04.56.15.92.68.83,1.25,0,.03-.04.05-.05.05-.15.03.07-.31-.29-.8Z"/>
      <path class="cls-78" d="M15,20.12s0-.02,0-.03c0-.07.03-.14.05-.21.02-.07.02-.13.02-.21-.02-.08-.02-.17,0-.26,0-.05,0-.11,0-.16,0-.03-.02-.06-.03-.09-.09-.72-.48-1.32-1.02-1.77.07,0,.1.06.14.09.82.64,1.17,1.68.95,2.67-.03.07-.11.03-.11-.04Z"/>
      <path class="cls-1" d="M10.46,19.58s.04-.03.07-.02c.32.11.52.19.72.44.09.01.16.16.2.25s.04.12.03.21c.06.23.03.46-.03.71.27.04.5.19.64.43.03.06.05.1.04.16-.13-.33-.43-.52-.79-.52.17-.38.14-.75-.07-1.11-.16-.27-.46-.49-.8-.55Z"/>
      <path class="cls-61" d="M11.11,21.46c.06-.02.09-.1.15-.11.24-.06.48.04.64.2.17.18.25.42.2.66-.03-.2-.09-.37-.22-.52-.2-.21-.48-.28-.77-.23Z"/>
      <path class="cls-83" d="M14.59,21.09c.2-.29.34-.63.41-.97.04,0,.07.04.11.04-.08.38-.21.68-.42,1-.04-.02-.07-.04-.1-.07Z"/>
      <path class="cls-11" d="M12.18,22.25c0-.05,0-.11,0-.16.04-.02.06-.05.11-.09.14.12.27.05.31.1.01.01,0,.05-.02.05h-.15s-.03.09-.03.12c-.07,0-.14.01-.21,0Z"/>
      <path class="cls-42" d="M11.48,20.47c-.04-.17-.14-.32-.23-.46.07-.05-.12-.13-.12-.22.16-.04-.09-.27.07-.44.18-.19,0-.16.16-.32.03-.03,0-.09.01-.12.08-.17.26-.23.4-.32.12-.07.23-.09.37-.13.08-.02.15-.1.25-.11.17-.02.31.06.47.11.11.03.18.05.27.11.13.08.24.15.34.29.05.08.13.15.18.24.03.07.01.16.06.22.04.05.08.1.09.18.07.73-.2.53-.02.76-.09.06-.11.2-.2.24s-.12.07-.15.16c-.04.1-.18.14-.24.21-.08.09-.15.08-.26.09-.02,0-.4.22-.57.15-.3-.12-.23.11-.54-.14l-.12.15c-.05-.2.05-.3-.08-.53-.04-.07-.07-.15-.1-.23-.04.03-.02.06-.03.09Z"/>
      <path class="cls-64" d="M15.04,19.88c-.02.07.03.17-.05.21-.02-.03,0-.22.05-.21Z"/>
      <path class="cls-64" d="M15.06,19.42v.26c-.04-.07-.04-.19,0-.26Z"/>
    </g>
  </g>
  <g>
    <path class="cls-13" d="M19.19,18.19c.42-.23.61-.71.49-1.16-.01-.04,0-.09.01-.12s.06-.05.11-.05c1.26-.08,2.39.71,2.81,1.89.28.78.19,1.64-.22,2.34-.83,1.43-2.69,1.85-4.06.93-.89-.6-1.39-1.63-1.25-2.71.03-.28.39.06.76-.37.31-.36.03-.71.15-.79.03-.02.09-.03.12,0,.33.2.72.23,1.08.04Z"/>
    <g>
      <path class="cls-36" d="M17.29,19.39c.17.02.34-.02.51-.03.07-.04.13-.07.2-.07v.06c-.27.37-.13.73.03,1.12.01.12.03.19.07.29,0,.02.01.06-.01.06.07.08.14.15.21.23.28.17.54.37.79.59h.14c-.02.06-.02.06.02.02.16.06.33.06.48-.03.11.01.21,0,.3-.03.09-.07.14-.07.21.02.09-.06.16-.09.26-.1.13-.07.26-.11.39-.14.11-.19.27-.28.46-.37.02-.09.05-.17.09-.25.12-.06.17-.22.2-.35.05-.25.09-.59.08-.84.05-.14.04-.25-.04-.34-.03-.25-.11-.46-.29-.64-.08-.15-.24-.28-.36-.39-.05-.04-.11-.08-.17-.11-.11-.17-.27-.22-.47-.2-.12-.05-.23-.08-.37-.06l-.04-.04s-.02-.07-.02-.12c.03-.17,0-.34-.05-.51,0-.05.03-.08.1-.07,1.58.04,2.81,1.56,2.47,3.13-.27,1.27-1.37,2.05-2.6,2.07l-.07.04c-.13,0-.63-.06-.69-.14,0-.01-.02-.03-.02-.04-.02,0-.03.01-.05.01-.02,0-.03,0-.05,0-1.04-.37-1.86-1.58-1.76-2.68,0-.01,0-.03.02-.04,0-.02.02-.03.03-.04Z"/>
      <path class="cls-64" d="M22.23,21.1c-.47.75-1.37,1.27-2.26,1.24-.01,0-.03,0-.04-.02s-.03-.02-.04-.03c0-.04.06-.01.09-.02l.63-.12c.49-.09.88-.4,1.22-.76.71-.76.88-1.9.4-2.83-.39-.76-1.07-1.29-1.92-1.41-.14-.02-.27-.06-.39,0-.03-.05-.09-.09-.09-.17.49-.05,1.05.12,1.48.36.46.26.88.74,1.11,1.21.37.79.33,1.72-.1,2.48-.02.03-.06.05-.07.07Z"/>
      <path class="cls-5" d="M17.29,19.39c-.09,1.24.65,2.33,1.81,2.76.1.06.03.12-.07.09-.52-.19-.98-.49-1.33-.95-.41-.55-.6-1.23-.52-1.92.04-.02.08.01.11.02Z"/>
      <path class="cls-46" d="M19.1,22.15c.25.09.53.12.79.14.95.05,1.8-.42,2.35-1.19,0,.09-.08.14-.13.21-.72.96-1.97,1.33-3.08.93.02,0,.05,0,.06-.03.01-.02.01-.04,0-.07Z"/>
      <path class="cls-12" d="M19.23,18.47c-.05-.02-.1-.09-.07-.14.24-.12.43-.29.55-.52.15-.29.09-.39.11-.59,0,0,.01-.01.02,0,0,0,.02.01.02.03.09.27.03.56-.13.8-.12.2-.29.37-.5.43Z"/>
      <path class="cls-59" d="M19.96,17.66s.04.09.02.12c.05.03-.06.32-.08.34-.02.01-.04.01-.06.01.02.12-.16.32-.28.33.02.04-.03.08-.07.07.01.08-.21.18-.27.14.02.07-.2.13-.23.07-.03.05-.08.06-.14.05l-.45-.06c-.01.1-.08.34-.16.4-.02.01-.04.01-.07,0,.04.07-.1.21-.17.16-.05.04-.14.07-.2.07.01-.04.05-.05.09-.07.27-.14.4-.42.4-.73.36.16.76.14,1.11-.07.28-.16.5-.47.55-.82Z"/>
      <path class="cls-21" d="M18.2,18.46c.07.36-.15.73-.51.83-.13.04-.26.05-.39.02.52-.02.87-.43.79-.95.03.03.07.05.11.1Z"/>
      <path class="cls-43" d="M19.17,18.33s.07.08.07.14c-.26.14-.55.14-.82.04-.09-.03-.17-.05-.18-.17.17.09.33.08.5.09s.3-.03.44-.1Z"/>
      <path class="cls-20" d="M18,19.28c.06-.04.12-.11.17-.16.08-.04.18.16.16.25-.12.16-.14.36-.08.55.1.19.14.38.11.56.01.03.05.06.1.08-.03.06-.02.11.04.16,0,.08.06.14.16.18.1-.03.2,0,.27.12.11.04.14.08.18.18l.09-.05.26.13c.09.05.17.06.24.01.15,0,.3-.02.44-.07.12-.08.27-.12.44-.1.03-.12.1-.18.21-.2.09-.05.14-.11.13-.19l.3-.26c-.02-.08,0-.17.05-.26.05-.15.08-.3.12-.45-.04-.09-.04-.19-.02-.3-.11-.34-.25-.73-.53-.96-.02-.08-.07-.1-.14-.06-.04-.05-.1-.07-.19-.06-.15-.14-.31-.21-.48-.22-.08.06-.19.1-.2-.03.06-.1.08-.24.14-.35.46-.02.23.08.54.06.06,0,.15.05.21.06.08.02.11.14.17.16.14.06.21.16.31.25.06.06.13.08.17.16.05.12.16.21.23.33s.08.26.11.39c0,.04.05.07.06.09.06.1-.03.22,0,.31.03.11,0,.17,0,.27l-.05.35c-.02.15-.01.27-.1.4-.03.05-.03.11-.11.15-.09.04-.06.23-.13.27-.02.01-.34.15-.4.29-.04.09-.13.13-.23.12-.09,0-.16.07-.24.1-.06.02-.12,0-.17.04-.04.03-.07.06-.11.06-.03,0-.06-.05-.1-.07-.11.1-.26.1-.4.09-.23.15-.54.02-.52.02h-.16c-.04-.1-.13-.12-.2-.18l-.2-.17c-.39-.32-.29-.1-.61-.52.04-.05-.03-.11-.03-.14,0-.18-.08-.37-.15-.54-.13-.31-.04-.62.14-.86Z"/>
      <path class="cls-7" d="M18.16,19.12c.11-.12.17-.28.19-.46.21.05.42.08.63.06.13.11.07.31-.1.37-.06.05-.05.11,0,.19v.05c-.27.29-.11.78.14,1.03.03.09.1.15.2.19.07.1.15.14.24.13.22.1.52.2.71,0,.08.02.15.02.21,0,.1-.13.22-.25.36-.35l.07-.15c.07-.05.09-.12.06-.2.08-.3.02-.54-.13-.81-.09-.16-.27-.38-.46-.38-.22-.1-.53-.14-.77-.11-.02.07-.04.08-.06.04,0,.11-.31.06-.23-.06l.27-.14s.07-.02.07-.07c.1-.1.21-.21.28-.33.02.01.06.04.09.05.17-.2.45.06.6.16.04.03.15-.03.17.07.04-.02.08-.04.11-.02.02.01.03.05.05.08.06.07.17.13.2.23.02.07.21.34.21.38,0,.12.12.26.13.36.02.11-.05.19.01.31.05.1-.06.24-.08.34-.03.21-.12.31-.1.33l.04.06c-.09.1-.22.21-.33.29v.12c-.07,0-.11.06-.16.09-.06.03-.13,0-.14.09-.04.23-.27.02-.44.16-.08.07-.21.05-.3.1s-.12,0-.19,0c-.08,0-.05.17-.54-.14-.03.02-.07.06-.1.06-.03,0-.06-.03-.06-.07-.01-.08-.07-.08-.13-.11-.07-.03-.1-.12-.17-.14-.05-.01-.04.11-.28-.1,0-.15-.14-.15-.04-.26-.05,0-.08-.01-.1-.04-.07-.14.06-.08-.03-.33-.1-.27-.21-.4-.07-.77.02-.04.06-.06.06-.1,0-.03-.1-.18-.13-.2Z"/>
      <path class="cls-45" d="M18.98,18.73l.23-.07c.04.12.24.05.23.06,0,0,0-.04,0-.07.2-.07.41,0,.72.04.06,0,.11.08.18.06.08-.02.11.07.16.09.22.09.47.66.45.87-.01.09-.04.19-.04.29,0,.03.03.06.03.09,0,.03-.04.05-.07.08-.05.05-.05.15-.1.2l-.27.23c-.05.05-.06.12-.12.14s-.13,0-.2-.01c-.11.16-.43.13-.56.08l-.16-.07s-.11.01-.14-.02c-.06-.06-.12-.14-.21-.16-.08-.02-.09-.1-.13-.15s-.13-.09-.14-.18c-.01-.07-.06-.12-.09-.18-.06-.11-.03-.25-.05-.37-.03-.3.21-.27.12-.4-.03-.04-.04-.09-.02-.14.01-.04.06-.07.11-.09.14-.06.08-.16.08-.3Z"/>
      <path class="cls-45" d="M19.56,18.45s.02.02.03.02c.04.02-.07.09-.06.09-.02,0-.05-.02-.04-.04.01-.03.05-.05.07-.07Z"/>
    </g>
  </g>
  <g>
    <path class="cls-2" d="M18.44,14.85l-2.15-.57c-.15-.04-.23-.2-.19-.34l.14-.51c.04-.16.18-.24.34-.2.22.05.43.13.66.16l-1.52-2.64c-.08-.13.02-.28.13-.35l.51-.3c.13-.07.27-.02.34.1l1.52,2.62.19-.68c.04-.14.17-.21.32-.18.24.09.83.11.74.47l-.56,2.1c-.06.21-.22.36-.46.3Z"/>
    <g>
      <path class="cls-9" d="M16.24,13.96s.09.05.14,0l.05.03.04-.04,1.99.53c.07.01.11-.03.11-.14.18-.63.36-1.26.52-1.89l-.38-.1-.02-.05c-.07,0-.08-.04-.03-.08l.05-.1.52.13s.09.02.1.05c.02.04.03.08.01.13-.05.15-.08.3-.13.45l-.28,1.02-.18.66c-.03.1-.12.2-.24.18-.27-.04-.62-.16-.92-.24l-.88-.23c-.13-.04-.26-.08-.39-.11-.06-.01-.09-.03-.11-.07-.03-.05,0-.09.02-.13Z"/>
      <path class="cls-30" d="M18.26,13.17c.06.02.06.05,0,.07-.05.17-.19,0-.26-.08l-1.51-2.61s-.05-.08-.05-.12c-.04-.06,0-.19.07-.22.12.08.18.23.26.36l.67,1.16.55.95.29.5Z"/>
      <path class="cls-27" d="M16.03,10.64l.05.02,1.6,2.78c.03.1.08.26-.06.26-.06-.02-.1-.05-.12-.1,0-.05-.03-.09-.07-.15l-1.43-2.48c-.06-.1-.11-.18-.15-.28-.01-.13.1-.13.18-.06Z"/>
      <path class="cls-77" d="M17.49,13.6c.06.02.12.02.12.1.02.09-.13.12-.2.11-.29-.07-.58-.15-.86-.24l.02.04-.08.33-.05.05-.18.1c-.01-.06,0-.09,0-.13l.14-.52c.02-.07.09-.1.16-.08l.95.25Z"/>
      <path class="cls-31" d="M18.66,12.21s0,.06.03.08l.04.03-.24.82c-.05.09-.18.24-.23.1,0-.02,0-.05,0-.07.1-.35.18-.7.31-1.05.05.03.06.07.08.09Z"/>
      <path class="cls-34" d="M16.5,10.2c0,.08-.02.16-.07.22l-.03.06-.31.18-.06-.02s-.08,0-.14,0c-.02.02-.03.05-.05.07-.04-.08,0-.16.07-.2l.44-.25s.09-.04.13-.05Z"/>
      <path class="cls-10" d="M16.43,10.42s.07.05.09.1l1.05,1.8.44.75c.05.08.15.25.26.16.08.05.17-.06.2-.16l.23-.79.46.12-.27.99-.2.74c-.03.09-.07.18-.08.28,0,.08-.07.12-.15.1l-1.11-.29-.91-.25c.02-.14.06-.28.11-.45.28.06.56.14.84.22.09.03.18,0,.23-.05.07-.05.06-.16.01-.25l-.64-1.1-.93-1.62s-.03-.06-.03-.09c.14-.07.26-.17.4-.22Z"/>
    </g>
  </g>
  <g>
    <path class="cls-91" d="M8.66,14.29l-2.19.57c-.16.04-.33-.11-.37-.26l-.6-2.16c-.04-.14.06-.28.19-.31l.57-.16c.14-.04.25.05.29.18l.2.67,1.52-2.62c.07-.12.22-.17.34-.1l.5.28c.08.05.13.11.15.19.03.1,0,.17-.06.26l-1.47,2.54c.23-.03.42-.1.63-.15.14-.04.3,0,.34.16l.15.55c.04.14-.03.31-.2.35Z"/>
    <g>
      <path class="cls-82" d="M9.11,10.57c.06.1-.12.16-.17.08l-.04.03-.38-.21-1.61,2.78c-.05.1-.31.14-.23,0-.05-.04-.03-.12.04-.12.17-.26.31-.53.48-.81l1.18-2.02s.04-.07.07-.08c.08-.03.58.28.67.35Z"/>
      <path class="cls-9" d="M7.51,13.59c0,.07-.13.12-.17.05-.12-.01-.08-.14-.05-.23l1.6-2.77h.05c.06-.02.16,0,.17-.08.08.07,0,.18-.05.26-.09.13-.15.26-.23.4l-.8,1.38-.41.71s-.25.34-.12.28Z"/>
      <path class="cls-88" d="M6.28,14.68s.07-.06.08-.11l.04-.02c-.03-.08.01-.1.13-.06.12-.01.24-.05.35-.1l1.61-.43-.1-.39.04-.04s-.01-.07.02-.12l-.04-.05s.04-.05.08-.03c.02.01.06.03.07.07l.15.52c.01.05.06.17,0,.2-.37.14-.75.22-1.13.32l-1.02.27c-.1.03-.22.04-.29-.03Z"/>
      <path class="cls-35" d="M5.83,12.41s.04.05.04.09l.56,1.99s-.04.03-.03.05c0,.03-.02.08-.02.1-.01.04-.06.05-.1.03-.04-.05-.07-.12-.08-.19l-.39-1.42c-.06-.23-.13-.45-.17-.67.03-.13.14-.06.2.01Z"/>
      <path class="cls-39" d="M8.41,13.36s.05,0,.11,0c-.03.06-.05.12-.1.16v.05s-.88.23-.88.23c-.11,0-.26-.04-.21-.16.06,0,.11-.04.17-.05l.9-.23Z"/>
      <path class="cls-48" d="M6.71,13.12s-.02.08-.04.12c0,.13-.16.04-.19-.05-.09-.27-.18-.54-.22-.82v-.08c-.07-.03.02-.16.08-.18.03,0,.07.03.07.06.03.16.08.29.13.44.06.18.09.35.16.51Z"/>
      <path class="cls-71" d="M6.34,12.11c0,.07-.07.11-.07.18,0,.02,0,.05-.01.05-.05.02-.38.11-.41.09,0,0-.02-.01-.02-.03-.05.01-.1-.01-.14-.05-.03.01-.04.03-.06.04-.01-.07.02-.13.1-.14.21-.05.41-.12.61-.15Z"/>
      <path class="cls-40" d="M8.94,10.65l-1.6,2.78c-.06.1-.03.14,0,.22.04.09.12.14.24.11l.84-.23.11.47-1.64.43c-.15.04-.29.14-.44.1l-.06-.02s-.01.03-.01.04l-.57-2.03s0-.07,0-.1l.44-.12c.08.29.16.59.26.89.01.03.04.05.06.07.02.02.06.01.09,0,0,.04.05.05.08.04.03,0,.09-.03.11-.07l1.63-2.82.44.25Z"/>
    </g>
  </g>
  <g>
    <circle class="cls-58" cx="7.22" cy="17.62" r=".5"/>
    <path class="cls-52" d="M7.49,17.42h.03c.03.08.05.11.06.09.08.18-.06.36-.24.4-.08.02-.14.06-.23.09-.16-.08-.36-.36-.24-.51.04-.08.09-.11.13-.09l.06.03c.06.22.26.23.38.04-.02-.06,0-.1.06-.05Z"/>
    <path class="cls-4" d="M7.58,17.51s0,.02-.02.03c-.02-.06-.04-.09-.07-.12h-.05c-.11-.08-.28-.11-.39,0h-.05s-.13.08-.13.08c.04-.17.21-.28.37-.27s.3.13.34.29Z"/>
    <path class="cls-84" d="M7.49,17.42s-.02,0-.02.01c0,0,.02.03.02.05-.04.09-.16.19-.28.17-.13-.02-.18-.14-.21-.25.12-.15.37-.12.49.02Z"/>
  </g>
  <g>
    <path class="cls-16" d="M6.7,19.21c.49.53,1.06.24,1.15.31.02.01.04.04.05.09.09,1.38-.85,2.59-2.16,2.91-.89.22-1.81-.01-2.51-.6s-1.03-1.43-.98-2.33c.09-1.64,1.56-2.89,3.2-2.68.04,0,.08.02.09.04.06.07-.06.43.27.71s.68.08.76.14c.04.03.06.09.04.13l-.11.24c-.15.35-.05.77.21,1.04Z"/>
    <g>
      <path class="cls-80" d="M5.37,17.13c-.02.2.02.39.07.57.05.1.12.2.21.28l-.02.03-.05.03c-.2-.06-.41-.09-.61-.09-.15.08-.3.12-.46.13-.2.08-.4.17-.59.27l-.53.78c.1.1.12.27-.04.32,0,0,.01,0,.01.02-.03.32,0,.56.19.83l.03.1c.1.07.14.15.13.24.07.13.17.22.29.27.12.12.25.21.4.29h.15c.47.21.96.19,1.35-.16.16-.02.22-.05.3-.2.16-.1.27-.23.33-.41l.1-.11c-.07-.13-.01-.27.16-.41.02-.06.05-.1.09-.12v-.02c.08.03.15.03.21.02.1.01.2.02.3.02.02.06-.03.07-.09.08-.02.15-.04.29-.08.43.02.09.02.18-.08.2-.15.33-.37.64-.62.9-.09.09-.16.13-.28.16-.09.03-.17.07-.23.13-.11.03-.22.07-.31.13-.41.06-.89.1-1.28-.04-.08.03-.16,0-.24-.1-.1.02-.19,0-.27-.09-.19-.06-.36-.18-.5-.35-.13-.05-.21-.15-.27-.3-.37-.43-.47-1.04-.38-1.59-.02-.14-.01-.27,0-.4.04-.05.07-.09.09-.15.01-.03.11-.3.1-.3-.1.02-.11-.01-.09-.1,0-.02,0-.03,0-.05,0-.22.64-.76.85-.89.39-.25,1.12-.5,1.58-.41.01,0,.03,0,.04.02.01,0,.03.02.04.03Z"/>
      <path class="cls-24" d="M7.39,19.81c.07-.04.16-.04.24-.07h.05c.06,1.39-1.19,2.62-2.58,2.63s-2.64-1.19-2.61-2.6l-.02-.03c-.07,0-.07-.11,0-.12.03-.03.05.02.03.03.01-.18.04-.36.06-.54-.06-.04-.03-.16.04-.16l-.03-.07c.06-.15.14-.3.23-.43l.07-.03s.02.05.04.06c.01,0,.05-.03.07-.02.07.04,0,.1-.01.14-.01.08-.07.3-.14.35-.08.07,0,.31-.03.47-.07.38,0,.43,0,.6.05.67.32.71.46,1.07.03.07.14.08.19.14.04.06.1.09.15.14.31.28.2.07.47.29.07-.04.13-.03.18.03.02.03.05.05.07.06.03.02.09-.03.11-.02.11.09.27.07.4.09l.2.02c.09,0,.15-.01.23-.02.17,0,.39.02.52-.09.05-.04.19-.03.23-.09.05-.07.12-.04.17-.08.06-.04.1-.05.17-.07.05-.01.14-.09.17-.14.08-.11.19-.2.27-.31l.15-.2.18-.35s.06-.02.07-.04c.01-.02.02-.06.01-.09-.03-.08.03-.13.04-.19.02-.11-.01-.24.05-.34.04,0,.09-.02.12-.03Z"/>
      <path class="cls-94" d="M3.59,22.04c-.47-.36-.86-.83-1.05-1.41-.06-.19-.15-.62-.13-.81,0-.04,0-.06.05-.08.09-.05.02.25.05.37.03.15.05.3.12.44s.09.28.17.41c.23.36.44.65.81.9.8.55,1.8.63,2.66.16.6-.33,1.13-.94,1.29-1.61.03-.11.07-.22.07-.34,0-.11.04-.23,0-.33.05-.02.08-.07.17-.08-.03.23,0,.46-.07.68-.03.11-.04.22-.08.32-.06.16-.29.6-.38.71-.1.13-.21.24-.31.36-.08.09-.2.14-.29.23-.11.1-.23.16-.36.23-.86.46-1.93.4-2.72-.14Z"/>
      <path class="cls-70" d="M5.37,17.13c-1-.09-2.01.43-2.5,1.3-.1.17-.21.33-.27.53-.03.08-.12.06-.11-.02.12-.39.31-.74.6-1.06.59-.64,1.44-.97,2.31-.86,0,.06-.03.08-.03.11Z"/>
      <path class="cls-57" d="M2.6,18.95c-.02.05-.02.11-.04.16.01,0,0,.02,0,.03-.02.14-.05.33-.08.47,0,0-.01,0-.02,0-.01.03,0,.08,0,.12,0,.12,0,.24.02.37.05.52.25.99.57,1.4.15.2.33.35.53.5.01,0,.02.04,0,.03-1.03-.7-1.48-1.91-1.1-3.11.03.02.07.04.11.02Z"/>
      <path class="cls-89" d="M7.58,19.65c-.56.3-1.36-.28-1.39-.9,0-.04,0-.08.03-.09.14-.1.05.09.27.45s.63.6,1.1.54Z"/>
      <path class="cls-41" d="M6.4,17.92s-.08.1-.13.11c-.35.06-.69-.16-.8-.49-.05-.13-.06-.27-.03-.4.03.51.44.86.97.79Z"/>
      <path class="cls-94" d="M2.47,19.63c.03-.07.03-.36.09-.51.02,0,.03.02.02.05l-.05.28c-.01.08-.02.15-.02.24-.03-.01-.02-.04-.04-.05Z"/>
      <g>
        <path class="cls-17" d="M7.09,19.79c0,.06-.18,0-.21,0-.04.02-.13,0-.16-.02-.58-.31-.86-.88-.68-1.52l-.39-.18v-.06c-.11-.15-.15-.11-.2-.3.17.26.43.44.77.42-.16.35-.15.74.06,1.1.16.28.48.53.83.57Z"/>
        <path class="cls-60" d="M5.63,18c.15.07.28.18.47.19-.21.64.07,1.22.62,1.52.06.03.13.02.16.07,0,.21-.29.3-.24.45,0,.03.04.05.04.07,0,.02-.01.05-.04.07-.13.09-.05.19-.3.42-.05.05-.11.05-.14.13-.02.04-.08.1-.11.14-.09-.02-.18,0-.25.07-.05.07-.13.07-.2.11-.16.09-.31.15-.51.12-.15-.02-.34-.02-.48-.08-.08-.04-.16-.08-.26-.04-.03-.05-.12-.06-.16-.09-.07-.06-.15-.11-.2-.17-.06-.07-.1-.07-.18-.11-.07-.03-.12-.16-.19-.22-.02-.02.03-.09-.02-.13-.04-.03-.12-.09-.12-.15,0-.09-.05-.11-.09-.18-.23-.47-.1-.32-.13-.78.05-.04.1-.05.1-.09,0-.1-.02-.12-.06-.17-.05-.06.07-.12.09-.18.05-.14.15-.25.23-.38l.14-.21c.09-.13.2-.18.35-.22.12-.03.21-.14.34-.16.09-.01.19,0,.27-.05.12-.07.24-.12.38-.08.15.04.34.04.48.1Z"/>
        <g>
          <path class="cls-69" d="M5.53,20.71l-.21.11h-.48s-.07-.04-.09-.04c-.11.03-.16-.05-.25-.08-.1-.03-.19-.03-.22-.17-.02-.07-.04-.2-.12-.24-.18-.1-.24-.26-.19-.46.03-.12,0-.26,0-.38,0-.1.04-.19.05-.29,0-.05-.03-.1.03-.14.05-.03.06-.11.1-.15.05-.05.12-.09.15-.15.05-.09.29-.15.4-.16.08,0,.16-.11.25-.09.22.06.54-.03.65.07l.15.13c.06.05.1.07.13.14l.16.32s-.01.06,0,.09c.03.06.06-.1.19.2-.06.06-.08.13-.06.19.04.12-.03.19-.06.29-.02.07,0,.15-.08.2,0,.04.05.11.05.14.01.07-.11.09-.12.13-.08.23-.14.16-.45.33Z"/>
          <path class="cls-79" d="M5.69,20.02c-.24.13-.26.33-.42.26-.05-.03-.06.05-.09.06-.18.09-.35.01-.48-.12-.25-.25-.19-.09-.22-.32-.04-.25-.19-.38.13-.66.05-.04.1-.04.13-.11.04-.15.37-.07.48-.02.04.02.07.1.12.1.12-.03.22,0,.26.13.02.06.09.06.12.1.06.08.01.19.03.28.04.26-.1.07-.05.3Z"/>
        </g>
      </g>
    </g>
  </g>
  <g>
    <circle class="cls-73" cx="12.44" cy="5.6" r="4.2"/>
    <path class="cls-62" d="M15.33,2.97c.06.09.14.16.21.26.16.21.31.45.4.7.33.84.43,1.71.2,2.59s-.78,1.66-1.53,2.19c-.92.64-2.04.86-3.11.57-.43-.12-.83-.29-1.2-.54l-.16-.11c-.7-.48-1.27-1.38-1.45-2.21-.11-.55-.1-1.09.02-1.63,0-.02,0-.05-.02-.05.08-.28.16-.58.3-.84.3-.56.72-1.05,1.25-1.42,1.14-.81,2.61-.96,3.89-.39.47.21.85.53,1.21.89Z"/>
    <g>
      <path class="cls-33" d="M10.76,9.24c-.83-.38-1.47-1.04-1.86-1.85-.11-.23-.45-1.13-.35-1.33,0-.02.02-.03.03-.04-.06-.06-.06-.1,0-.12-.02-.11-.02-.24,0-.35l-.05-.07c0-.18.04-.51.1-.68l.06-.06s.07-.02.07.03c-.74,3.26,2.9,5.82,5.73,3.96,1.93-1.27,2.31-3.96.83-5.7v-.06c-.2-.23-.42-.45-.67-.64v-.07c.05,0,.09.02.15.07.33.25.62.53.89.86.1.13.16.27.25.4.29.45.48,1.1.53,1.63.09.96-.17,1.98-.74,2.75-.92,1.25-2.38,1.87-3.93,1.63-.31-.05-.6-.12-.89-.25-.06-.03-.1-.06-.14-.09Z"/>
      <path class="cls-29" d="M14.64,2.26c.21.23.52.44.69.72l-.1-.03c-1.77-1.88-4.91-1.35-6.14.88l-.1.08c-.07,0-.12-.03-.16-.07.97-2.03,3.49-2.86,5.49-1.79.12.07.21.17.32.22Z"/>
      <path class="cls-25" d="M9,3.9v.09c-.1.22-.17.45-.24.68l-.07.06c-.07.25-.12.55-.12.81-.02.11-.02.24,0,.35v.12c-.11.02-.15-.03-.17-.14-.05-.72.11-1.4.42-2.04.07-.01.14,0,.16.07Z"/>
      <path class="cls-51" d="M8.58,6.02c.02.91.58,1.94,1.25,2.6.28.27.6.44.93.63-.13,0-.53-.28-.66-.37-1-.7-1.6-1.8-1.69-3,.03,0,.01.07.03.08.05,0,.1.01.13.06Z"/>
      <path class="cls-51" d="M8.58,5.9s-.03-.02-.03-.05v-.26s0-.05.02-.05v.35Z"/>
      <g>
        <path class="cls-18" d="M13.5,8.14c-.11-.01-.33.16-.37.16-.08.01-.17-.02-.25-.03s-.11.02-.18.02h-.34c-.19,0-.09-.13-.38-.02-.12.05-.22.05-.34-.03-.09-.06-.22-.05-.3-.11-.17-.12-.21-.23-.34-.22-.2.02-.09-.19-.36-.24-.04,0-.07.03-.1,0-.07-.05-.02-.17-.12-.2-.08-.03-.18-.07-.21-.16-.01-.03.02-.09,0-.12-.04-.08-.16-.05-.21-.15-.04-.09.05-.12.02-.2-.01-.03-.12-.02-.15-.06-.02-.02,0-.09-.02-.11-.06-.04-.17-.09-.14-.18.06-.17-.17-.66-.17-.65l-.05-.18c-.02-.06,0-.15-.06-.21.13-.27-.04-.15.17-.41.06-.31-.03-.32.11-.49-.03.03.17-.33.2-.36.03-.02,0-.12.05-.14.11-.04.09-.14.07-.22-.01-.06.1-.1.12-.14.05-.1.11-.14.2-.2.07-.04.15-.11.22-.17.05-.04.03-.11.1-.13s.11-.02.17-.01c.09,0,.08-.14.13-.17.06-.02.15.02.18-.08.27.04.3-.17.6-.19.08,0,.17.05.25,0,.13-.09.37-.05.52-.01.02,0,.07-.04.09-.04.04,0,.07,0,.1.07.07-.11.18-.06.28-.02s.15.04.21.13c.04.06.15-.03.2-.03.08,0,.14.08.2.11.24.12.26.02.32.11.01.02,0,.06-.03.08,0,.11.06-.04.13-.03.09.02,0,.03.16.19.13.14.13-.01.23.09.06.06-.06.17.05.17.08,0,.1.07.14.11l.14.13s-.1.06-.06.1c.05.06.18.1.19.19,0,.03-.08.09-.02.1.06.01.1.02.14.04.05.04.01.1.03.16,0,.03.06.02.07.04.06.07-.04.25,0,.33.14.22-.06.3.19.44-.03.09.01.29-.03.4-.02.07,0,.13-.01.19-.04.26.04.33-.2.7-.02.04-.07.04-.06.1.01.13-.27.6-.37.51-.04.05.03.09.02.12-.04.11-.16.18-.24.27-.04.04-.05.1-.11.11-.04.01-.29.26-.37.3-.1.05-.25.02-.35.1-.02.02-.02.1-.06.1Z"/>
        <g>
          <path class="cls-49" d="M12.77,7.56c-.06.04-.15,0-.2.05-.15-.09-.32-.11-.49-.09-.1-.07-.21-.08-.33-.09-.1,0-.2-.05-.29-.08-.12-.03-.2-.09-.3-.17-.24-.2-.05,0-.18-.26-.02-.04-.06.04-.13-.01-.03-.02,0-.05,0-.09,0-.1-.17-.06-.22-.11-.06-.05.01-.18-.06-.23-.03-.02-.05-.02-.07-.04-.02-.03-.02-.06,0-.1s-.03-.05-.04-.07c-.08-.22.04-.33-.16-.36.08-.24-.1-.2.02-.39-.13-.11,0-.33.09-.43.05-.06-.02-.19.02-.25.13-.2-.03-.2.17-.23,0-.09,0-.2.08-.26.03-.02.09-.01.11-.04.03-.03.02-.08.04-.12.01-.04.1-.04.09-.08l-.02-.08c-.02-.08.3-.05.36-.12.16-.18.6-.29.59-.28l.07-.08s.09.02.13.03c.07.02.15-.06.22-.05.07.01.16-.03.22-.02.11.02.21.1.33.07.03,0,.07-.03.09-.01l.06.07c.06.07.29-.03.36.08.05.09.14.13.23.17.04.02.07.09.13.09.09,0,.11.07.16.13.03.03.16.01.17.09s-.02.13.05.19c.02.04,0,.12.01.17.18.1.02.11.25.38.15.18-.08.19.09.35.03-.03.02-.06.04-.08.05.07-.04.1-.05.14.08.44.16.3-.08.64.03.23-.06.35-.18.51-.02.03.07.15,0,.17-.1.03-.19.11-.22.21-.04.01-.09.04-.11.07-.04.04.04.09.02.12-.04.08-.18.06-.26.05-.06.05-.06.11-.1.16-.33.02-.31.23-.51.18-.09-.02-.14.02-.22.07Z"/>
          <path class="cls-50" d="M12.44,6.8c.04.09.08.02.14.03-.04.09-.12.09-.19.09-.21-.02-.13-.26-.47-.16-.22.06-.49-.33-.49-.39,0-.09-.07-.11-.13-.16-.04-.04-.11-.12-.11-.17-.03-.25-.19.06-.11-.47,0-.07-.02-.15.02-.2s.08-.07.1-.12c.03-.07-.02-.11-.02-.18.02-.16.1-.3.15-.44.05-.03.13-.07.17-.1.09-.06.23-.03.3-.1.32-.27.26.05.44-.19.1-.13.3.05.53.03.21.13.16.22.36.21.06,0,.08.21.17.25.02,0,.05-.05.08-.05.16.04.02.31.19.32.02,0,.05,0,.06.02.01.01.03.05.02.08-.03.17,0,.32-.02.48,0,.08-.01.17-.02.25-.03.31.09.04-.05.42-.02.06-.11.08-.13.15-.06.03-.11-.02-.18.05.08.03.09.06.09.12,0,.1-.08.07-.13.11-.44.27-.39-.03-.79.12Z"/>
        </g>
      </g>
    </g>
  </g>
</svg>