<?xml version="1.0" encoding="UTF-8"?>
<svg id="Layer_2" data-name="Layer 2" xmlns="http://www.w3.org/2000/svg" viewBox="0 0 24 24">
  <defs>
    <style>
      .cls-1 {
        fill: #193a74;
      }

      .cls-2 {
        fill: #4e80bb;
      }

      .cls-3 {
        fill: #1b3a69;
      }

      .cls-4 {
        fill: #7fc4e8;
      }

      .cls-5 {
        fill: #6aa9d4;
      }

      .cls-6 {
        fill: #28608f;
      }

      .cls-7 {
        fill: #4177b3;
      }

      .cls-8 {
        fill: #194f83;
      }

      .cls-9 {
        fill: #5971b2;
      }

      .cls-10 {
        fill: #6483bd;
      }

      .cls-11 {
        fill: #3957a3;
      }

      .cls-12 {
        fill: #2a59a1;
      }

      .cls-13 {
        fill: #1b4171;
      }

      .cls-14 {
        fill: #4995cb;
      }

      .cls-15 {
        fill: #6c87c7;
      }

      .cls-16 {
        fill: #3065ad;
      }

      .cls-17 {
        fill: #224397;
      }

      .cls-18 {
        fill: #5392c6;
      }

      .cls-19 {
        fill: #789ad7;
      }

      .cls-20 {
        fill: #408ac3;
      }

      .cls-21 {
        fill: #5370b1;
      }

      .cls-22 {
        fill: #468dc4;
      }

      .cls-23 {
        fill: #235f93;
      }

      .cls-24 {
        fill: #59a8d9;
      }

      .cls-25 {
        fill: #526bac;
      }

      .cls-26 {
        fill: #316ead;
      }

      .cls-27 {
        fill: #1b3969;
      }

      .cls-28 {
        fill: #244496;
      }

      .cls-29 {
        fill: #2e61a6;
      }

      .cls-30 {
        fill: #458dc2;
      }

      .cls-31 {
        fill: #4d68a8;
      }

      .cls-32 {
        fill: #75bde4;
      }

      .cls-33 {
        fill: #1d4d7d;
      }

      .cls-34 {
        fill: #286091;
      }

      .cls-35 {
        fill: #7db6e3;
      }

      .cls-36 {
        fill: #3a579f;
      }

      .cls-37 {
        fill: #7497d5;
      }

      .cls-38 {
        fill: #234494;
      }

      .cls-39 {
        fill: #183766;
      }

      .cls-40 {
        fill: #234495;
      }

      .cls-41 {
        fill: #609ecd;
      }

      .cls-42 {
        fill: #213f80;
      }

      .cls-43 {
        fill: #8cccef;
      }

      .cls-44 {
        fill: #4763aa;
      }

      .cls-45 {
        fill: #1b4983;
      }

      .cls-46 {
        fill: #5e8ec3;
      }

      .cls-47 {
        fill: #357cb7;
      }

      .cls-48 {
        fill: #67b2e0;
      }

      .cls-49 {
        fill: #25428c;
      }

      .cls-50 {
        fill: #84c3ec;
      }

      .cls-51 {
        fill: #1b3968;
      }

      .cls-52 {
        fill: #256498;
      }

      .cls-53 {
        fill: #8bc7e9;
      }

      .cls-54 {
        fill: #5ba8d9;
      }

      .cls-55 {
        fill: #3c56a0;
      }

      .cls-56 {
        fill: #3b82bd;
      }
    </style>
  </defs>
  <g>
    <circle class="cls-27" cx="22.53" cy="4.86" r=".65"/>
    <path class="cls-38" d="M23.02,4.82c.02.19-.08.38-.25.48-.18.1-.4.1-.56-.05-.11-.09-.24-.28-.19-.43.12-.54.87-.54,1,0Z"/>
    <path class="cls-25" d="M23.02,4.82c-.09-.21-.26-.36-.49-.36-.21,0-.43.15-.5.37.02-.25.22-.46.48-.47.28-.01.49.21.52.47Z"/>
  </g>
  <g>
    <circle class="cls-3" cx="22.48" cy="6.35" r=".4"/>
    <path class="cls-40" d="M22.7,6.26c.05.11.04.22-.07.31-.08.06-.21.08-.31,0-.06-.05-.12-.16-.09-.26.1-.2.34-.23.47-.04Z"/>
    <path class="cls-31" d="M22.7,6.26c-.07-.06-.15-.1-.23-.09-.1,0-.18.06-.24.14.04-.12.13-.19.24-.2.13,0,.19.06.23.16Z"/>
  </g>
  <g>
    <path class="cls-34" d="M10.41,15.81H1.42c-.26,0-.5-.22-.5-.48V4.97c0-.27.24-.51.5-.51h8.94c.28,0,.5.24.5.51v10.35c0,.26-.19.44-.45.49Z"/>
    <g>
      <path class="cls-24" d="M10.65,4.8v.06c-.12.15-.25.3-.4.43,0,.11-.02.22-.02.33l-.04.03s.02.04.02.06c-.01,3.04-.02,6.09-.01,9.15-.02.19-.09.28-.28.3-2.62.01-5.26.02-7.92.01v-.02c-.05.09-.33,0-.37-.04,0,0,0-.01,0-.02-.07.1-.35.37-.46.38-.02,0-.03,0-.05,0-.03-.06-.07-.1-.07-.19l.02-10.35h.04c0,1,0,2,0,2.99-.02.22-.03.44-.04.65h.04v2.34c0,.11-.02.22-.04.33h.04s0,3.98,0,3.98l.11-.06c.09-.1.19-.19.29-.27.05.04.07.05.06.02l-.02-.09c0-2.95,0-5.9,0-8.85l.04-.03c-.01-.17-.01-.33,0-.5-.07-.1.05-.28.16-.33.07-.03.71-.05.74-.02,0,0,.01.02.01.03.2,0,.4,0,.6.01l.02-.04h1.1s.02.05.02.05c.98.01,2,.01,2.98,0l.02-.04h1.08s.02.03.02.03c.16,0,.32-.01.48-.01,0-.01,0-.02,0-.03.01-.02.4,0,.45,0,0,0,0,0,.01.02.05,0,.08-.02.09-.04h.59s.11.03.11.03c.15-.14.3-.28.45-.42.06.03.08.08.11.12Z"/>
      <path class="cls-20" d="M1.12,15.47c.18-.11.35-.24.5-.41.12.08.24.1.37.1.02.01.03.02.04.02,2.61.05,5.27.04,7.9.02.17,0,.27-.15.29-.3l.05-4.79.04-.03h.05c0,.24.03.46.06.67-.03.16.02.22.13.19v-.13c0-.1.02-.15.09-.15v-5.69s.05-.03.05-.03v5.9s0,4.45,0,4.45c0,.18-.13.35-.33.35H1.42c-.14,0-.25-.09-.29-.19Z"/>
      <path class="cls-4" d="M10.55,4.68s-.02.1-.07.12c-.08.04-.11.11-.17.16l-.18.17s-.1,0-.13-.02h-.69s.09,0,.06-.02c-2.5-.04-5.01-.03-7.52.01-.23.02-.25.17-.28.36-.02.81-.03,1.63-.05,2.45l-.04.02-.02.02s-.27.01-.28.02c-.04.04-.02.27-.01.33l-.03.14c.02.1,0,.14-.06.13v-3.65c.03-.16.15-.32.34-.32h8.96c.08,0,.12.04.17.07Z"/>
      <path class="cls-14" d="M10.7,4.95v5.91c-.05-.06-.02-.11-.06-.16-.04-.02-.03.28-.03.28-.04.05-.22.02-.21-.06,0-.1,0-.16-.02-.25-.05-.21,0-.47-.05-.57h-.04c-.03-1.47-.05-2.92-.06-4.37l-.02-.06c0-.08.02-.16.01-.24-.01-.1,0-.14.08-.21l.14-.12c.09-.08.17-.18.23-.27.03.05.04.09.04.15Z"/>
      <path class="cls-23" d="M10.32,10.08l-.04,3.95v.85c-.01.19-.15.32-.34.35-2.41.04-4.82.03-7.24-.03-.24,0-.44-.02-.67,0-.02,0-.03,0-.04-.01,0,0,0-.02,0-.03l6.32-.03h1.61c.14,0,.24-.12.24-.26v-5.75s.03-3.02.03-3.02v-.44s.05.03.05.06c-.01.22.01.42.01.65l.07,3.72Z"/>
      <path class="cls-43" d="M9.3,5.11h-.47c-.16,0-.32.01-.48.02h-1.12c-.98.02-2,.02-2.98,0h-1.14c-.2-.01-.4-.02-.6-.02h-.58c-.21,0-.31.15-.33.32-.02.17-.02.33,0,.5l.02,2.65-.02,5.21v1.1c-.07.03-.09-.04-.09-.1l-.07-3.31.04-.03c-.04-.46-.06-.92-.05-1.39v-2.13s.05-.03.05-.03l.04-2.07.02-.51c0-.12.09-.25.2-.27.22-.03.42-.02.64-.03l3.6-.05,3.04.04c.13,0,.24.02.36.03-.03.03-.07,0-.08.03Z"/>
      <path class="cls-48" d="M1.47,11.47l.07,3.34s.02.07.04.09c.02.03.05.07.02.09,0-.03-.06-.1-.09-.06-.05.06-.09.1-.15.14-.06.05-.09.12-.17.14-.05.01-.04.08-.11.1v-4.09c.02-.1.03-.2.03-.31.01-.07.08-.08.19-.03.06-.03.11-.03.14,0,0,.19.02.38.04.56Z"/>
      <path class="cls-32" d="M1.48,7.93v2.15s0,1.39,0,1.39c-.08.03-.02-.41-.07-.56-.14.11-.21-.05-.25.02-.05.11,0,.23-.07.31v-2.67s0-.1.02-.14c.07-.24-.05-.18.05-.49.1,0,.16-.02.25-.04.03,0,.06.04.09.04Z"/>
      <path class="cls-4" d="M7.23,5.14s0,.02-.03.02h-2.93s-.03,0-.03-.02h2.98Z"/>
      <path class="cls-4" d="M3.11,5.13h-.58s-.03,0-.02-.01h.58s.02,0,.02.01Z"/>
      <path class="cls-4" d="M1.6,5.94c-.04-.09-.01-.39,0-.5v.5Z"/>
      <path class="cls-4" d="M8.83,5.12s0,.01-.02.01h-.45s.43-.01.48-.01Z"/>
    </g>
  </g>
  <g>
    <path class="cls-13" d="M18.87,15.81h-1.94c-.17,0-.32-.17-.32-.35V4.83c0-.2.15-.37.35-.37h1.86c.2,0,.38.14.38.36v10.64c0,.19-.15.32-.33.35Z"/>
    <g>
      <path class="cls-16" d="M19.02,4.72s0,.07,0,.11l-.25.31-.03.31-.03.05v.47s.01,0,.01,0c.02,3.05.02,6.09,0,9.11-.01.08-.06.14-.14.18-.35.04-.75.06-1.1.03,0,0-.01-.01-.01-.02h-.18c-.03.08-.16,0-.2-.05l-.04-.03c0-.07,0-.14.02-.2-.02-.1-.03-.19-.02-.29-.02-3.21-.02-6.41.02-9.59.03-.12.08-.15.19-.18.4,0,.8,0,1.2,0l.05.02c.02-.06.11-.04.13,0l.26-.27h.06s.03.03.04.04Z"/>
      <path class="cls-12" d="M16.79,15.55c.01-.06.05-.11.12-.16l.13-.15h.06s.07,0,.11.02c.09.03.18-.01.26.01.01.03-.01.02,0,.02.35,0,.7.02,1.04.01.1,0,.19-.1.21-.19.03-1.95.05-3.91.04-5.88l.04-.03c.06-.01.08.03.05.13l.02.13c-.04.2,0,.29.12.26v-4.82s.05-.03.05-.03c.02,0,.02.02.02.05v4.82s-.01,5.68-.01,5.68c0,.12-.08.22-.2.22h-1.9c-.08,0-.14-.05-.16-.11Z"/>
      <path class="cls-46" d="M18.98,4.68c-.12.08-.2.2-.32.3-.05-.02-.1-.03-.14-.03l-.06-.02c-.41-.01-.82-.01-1.22,0-.12,0-.17.15-.17.25l-.03,3.66-.04.02c-.02.13-.04.27-.04.41-.02.05-.06.06-.1.04,0,.14-.02.19-.09.16v-4.66c0-.11.09-.2.21-.2h1.9c.05,0,.09.04.11.07Z"/>
      <path class="cls-29" d="M19.05,4.89v4.9c-.09-.01-.22,0-.22-.08,0-.11.03-.22-.01-.35-.02-.05.03-.12-.02-.15h-.04c-.02-1.26-.04-2.52-.03-3.77,0-.05,0,.51,0,.51h-.02c-.02-.27-.01-.54.02-.83,0-.05.3-.32.3-.4.05.04.03.11.03.17Z"/>
      <path class="cls-7" d="M16.77,9.46h.04s0,2.25,0,2.25c.06-.03.09-.07.08-.11l.04-.18c-.01-.1,0-.15.07-.16l.04.02v.38s-.04.03-.04.03c0,.37,0,.73.01,1.1h.04c0,.75.01,1.48.02,2.21l.02-.02c0,.07.03.15.01.23-.09.12-.18.24-.31.33,0-.02-.04-.04-.04-.09v-3.56s0-7.1,0-7.1v4.66Z"/>
      <path class="cls-45" d="M18.8,9.21v.48s-.01,3.88-.01,3.88l-.02,1.51c0,.15-.13.27-.28.27-.41.01-.81-.01-1.2-.06l.19-.03,1.02-.03c.11,0,.2-.08.2-.2v-2.47s.02-6.6.02-6.6l.03-.52c.02.17,0,.33.01.5l.06,3.27Z"/>
      <path class="cls-35" d="M18.53,4.95l-1.24.02c-.11,0-.18.11-.18.21v1.06s-.02,7.86-.02,7.86c0,.31-.03.6,0,.89-.01.02,0,.05-.03.06.01-.14,0-.26,0-.39l-.03-1.87c0-.36-.01-.73-.01-1.1v-.43s-.04,0-.04-.01c-.02-.64-.02-1.33,0-1.97,0-.14.02-.29.04-.42l.04-2.79v-.93c0-.12.09-.25.22-.26.39-.02.78,0,1.17.03.05,0,.1,0,.1.04Z"/>
      <path class="cls-2" d="M17,11.26c-.06.15.02.03-.06.33,0,.03,0,.07,0,.1,0,.01-.06,0-.07.03l-.09.18v-2.45c.07,0,.01-.22.07-.27.12.32.08-.38.15-.33v2.4Z"/>
      <path class="cls-2" d="M17.01,12.8s-.02,0-.02-.02v-1.07s.02,0,.02.02v1.07Z"/>
    </g>
  </g>
  <g>
    <path class="cls-51" d="M21.67,5.55v9.93c0,.18-.15.32-.32.32h-1.04c-.16,0-.31-.14-.31-.32V4.79c.03-.21.18-.34.38-.33h.89s.07,0,.1.04c.07.09-.07.15.03.31.03.05.04.1.01.16-.07.15,0,.35.15.42.08.03.12.08.12.17Z"/>
    <g>
      <path class="cls-9" d="M21.06,4.81s-.01.02-.02,0c-.02.03-.04.03-.04.01-.16,0-.32.01-.48.04v.05c-.08.1-.11.23-.08.4l-.04.03c-.02,2.35-.02,4.73-.01,7.12l-.03.03h-.04c-.02-.69-.01-1.37.02-2.05h-.04c0-.81,0-1.61,0-2.39-.03.06-.1.14-.14.05v-3.32c0-.11.11-.18.2-.18h.79c-.04.08-.08.14-.08.21Z"/>
      <path class="cls-11" d="M20.35,12.49h.03c0,.57.01,1.14.02,1.71h.02s.03,0,.03,0c.02.35.02.7.01,1.06-.01.02-.03.03-.06.03l-.14.17s-.07.06-.11.04v-4.55s.05-.02.09.02c0-.17.03-.34.05-.51h.05s.02,2.05.02,2.05Z"/>
      <path class="cls-44" d="M20.33,10.44c-.07.08,0,.54-.1.59-.04-.04-.06-.08-.09-.09v-2.83c.09.02.1-.13.16-.1.02,0,.05.05.03.07-.04.07,0,.11,0,.17v2.19Z"/>
      <path class="cls-42" d="M21.51,5.96v-.21s-.02-.07-.03-.08c-.03-.03-.07-.01-.11-.02-.07-.03-.11-.09-.17-.12,0,.02-.02.01-.02,0-.21-.14-.24-.43-.17-.65-.04-.03-.01-.05.03-.06,0,0,.01,0,.02,0,.05.02.05-.05.11-.08.23.19-.14.41.27.75.08.23.14.15.08.48Z"/>
      <path class="cls-17" d="M21.18,5.52s.02,0,.02,0c0,.04.04.07.07.1.04.07-.02.45-.02.54v.51c-.02.13-.03.27-.03.4v.57c.01.25-.01.5,0,.75.03.05,0,.1,0,.15v1.14c0,.08-.02.13-.01.21.02.21-.01.2,0,.41,0,.1.02.23,0,.33-.02.12,0,.2,0,.32v2.75c0,.24.04.86.01,1.06l-.03.29c-.01.1-.04.16-.14.16h-.3c-.13.02-.25.07-.38.07.04-.04.02-.1.02-.17v-.93s-.02,0-.02,0c-.02-2.95-.02-5.9,0-8.83v-.28c0-.09.06-.15.12-.19.07-.02.43-.06.48-.04.01,0,.02.01.02.02-.08.23-.05.54.16.68Z"/>
      <g>
        <path class="cls-49" d="M21.51,5.96v1.51s0,2.26,0,2.26v1.07s0,.67,0,.67v4.03c0,.09-.09.15-.17.15h-1c-.1,0-.2-.07-.2-.17.07-.06.14-.13.2-.21h.05s.03-.04.03-.04c.23-.04.46-.07.69-.08.05-.13.08-.27.08-.42-.02-1.58-.03-3.15-.02-4.72,0-.52,0-1.04.02-1.57v-.04c-.02-.76-.01-1.51.01-2.26.02-.17.03-.33.03-.5-.07-.06-.08-.1-.03-.13l.04-.02c.07.07.14.11.22.11.06.1.08.21.05.35Z"/>
        <path class="cls-1" d="M21.31,15.17c0,.28-.48.19-.67.15.13-.09.61.06.61-.2v-1.53s0-3.21,0-3.21v-3.29c0-.18,0-.34.05-.52l.02,1.17.02,1.81v.22s0,2.52,0,2.52l-.02,1.57-.02,1.33Z"/>
      </g>
      <path class="cls-37" d="M20.41,14.18c-.05.07,0,.56-.03.66v-.94s-.03-1.43-.03-1.43v-4.3s0-1.62,0-1.62c0-.08,0-.14,0-.21v-.99s.02-.03.03-.02v1.25s.03,3.27.03,3.27v4.03s0,.29,0,.29Z"/>
      <path class="cls-15" d="M21.04,4.81c-.08.25-.04.52.14.71-.21-.05-.29-.43-.18-.67h-.48s.03-.02.07-.03c.02,0,.53-.06.46-.01Z"/>
    </g>
  </g>
  <g>
    <path class="cls-6" d="M3.6,19.55H1.19c-.17,0-.28-.13-.28-.29v-1.68c0-.12.06-.22.16-.28l1.17-.73c.11-.05.21-.05.31.02l1.14.71c.09.06.15.14.16.25v1.75c0,.13-.11.25-.25.25Z"/>
    <path class="cls-54" d="M3.57,17.39c.06.04.12.07.13.15.02.23,0,.44,0,.66l-.14.08-.03-.04s-.03-.03-.03-.05v.87c-.03.09-.05.11-.14.14-.61.02-1.23.02-1.83,0l-.03.04c-.12-.03-.23.01-.31.14-.03.01-.05.01-.07-.01-.02-.02-.04-.04-.04-.08v-1.45c0-.11-.03-.21.02-.29l.04.03v.18c.09-.01.14,0,.13.12-.02-.13,0-.24.08-.33l.94-.59c.08-.05.16-.04.24,0l.89.53c.05-.03.11-.07.17-.09Z"/>
    <path class="cls-53" d="M3.57,17.39c0,.09-.07.06-.15.15l-.91-.54c-.07-.04-.14-.07-.22-.02l-.9.56c-.06.03-.09.09-.09.16v1.37c-.07-.08-.04-.18-.04-.27-.03-.34-.04-.67-.04-1.01-.03-.03-.09,0-.12.03-.02-.09,0-.19-.01-.28.01-.05.04-.09.08-.11l1.14-.72c.06-.04.14-.02.2.02l1.07.67Z"/>
    <path class="cls-22" d="M3.69,18.2v1.08c0,.08-.05.13-.13.13H1.17s-.05-.03-.06-.04c.07,0,.18-.19.25-.18l.16.02c.6.02,1.2.03,1.8.02.09-.01.16-.04.17-.14,0-.26,0-.52,0-.78l.03-.06c.08,0,.07-.1.17-.04Z"/>
    <path class="cls-52" d="M3.52,18.24c0,.27.02.55,0,.84,0,.11-.11.18-.21.18l-1.39-.02c-.1,0-.35,0-.42-.04h.62s1.21-.03,1.21-.03c.06,0,.1-.06.1-.11l.02-1.02c0-.12-.01-.23,0-.35.01,0,.04.02.04.04-.02.18.01.35.02.51Z"/>
  </g>
  <g>
    <path class="cls-33" d="M15.45,15.8h-3.4c-.21,0-.39-.17-.39-.38V4.85c0-.22.18-.39.39-.4h3.35c.23,0,.39.14.42.37v10.61c-.03.19-.16.36-.37.36Z"/>
    <g>
      <path class="cls-56" d="M15.67,7.45c-.01.11-.03.21-.06.31.03.06.01.11-.05.15.06.08.07.17.05.26.04.14.02.36-.17.33-.04,0-.06-.03-.07-.07h-.04s-.03-1.13-.03-1.13c-.02,2.55-.03,5.1-.02,7.65-.01.16-.06.27-.23.3-.84.02-1.68.02-2.52.02l-.12-.02s-.12,0-.16-.02l-.32.33h-.08s-.05-.05-.05-.09v-.02c.05-.11.13-.2.23-.28.06-.05.11-.09.15-.12-.03-.11-.04-.22-.03-.34,0-3.17,0-6.35.02-9.49.04-.13.13-.19.26-.21.83-.01,1.66-.01,2.48,0l.06.02.03-.04c.08,0,.16.02.24.05.1-.1.2-.21.3-.32h.05s.06.08.06.15v2.61Z"/>
      <path class="cls-26" d="M15.67,11.87v3.54c0,.15-.1.26-.25.26h-3.31c-.11,0-.2-.02-.25-.11.17-.12.24-.26.39-.37.04.02.12.03.16.06.05.02.09.02.14.02.82.01,1.65.01,2.48.02.15,0,.25-.12.26-.26.03-1.35.04-2.7.04-4.04,0-.03.02-.04.06-.02l.04.02v1.3c.05.07.08.09.11.03,0-.11,0-.22.05-.33-.01-.11,0-.15.07-.12Z"/>
      <path class="cls-5" d="M15.6,4.7c-.04.08-.12.12-.18.2-.04.06-.12.16-.19.17-.1-.04-.17-.06-.26-.05l-.06-.02c-.83,0-1.67,0-2.5,0-.19,0-.23.16-.24.32l-.02,1.34c.02.09,0,.12-.05.11-.03,0-.03-.07-.02-.1,0-.03,0,.33-.02.36-.01.03-.03.04-.06.04.11.09.04.37-.1.23.02.08,0,.16-.03.25l-.03.4-.04.03c-.01-1.04-.01-2.08,0-3.13.02-.12.1-.21.23-.21h3.39c.09,0,.13.04.17.09Z"/>
      <path class="cls-47" d="M15.67,11.87c-.06.02-.02.08-.03.13-.03.11-.07.21-.05.33-.01.03-.05.06-.09.1-.09-.17-.09-.03-.09-.31v-1.16s-.05-.01-.05-.01l-.02-2.48.04-.03s.09.05.12.03c.14-.06.1-.18.08-.28,0-.06.05-.14-.03-.2-.02-.02-.03-.06-.03-.08,0-.03.04-.04.06-.06s-.02-.07,0-.09c.1-.13.02-.27.1-.29v4.41Z"/>
      <path class="cls-26" d="M11.81,7.95h.04v2.25c-.02.19-.03.37-.04.56h.04c0,.85,0,1.68,0,2.52,0,.11-.02.21-.04.32.02,0,.04,0,.04.01.01.51.01,1.07,0,1.59.01.08,0,.16-.04.22v.02c-.03-3.54-.03-7.09,0-10.63v3.13Z"/>
      <path class="cls-8" d="M15.38,8.43l.02,2.52s-.01,0-.01.02v1.55s-.04,2.49-.04,2.49c0,.16-.14.3-.3.3-.8.02-1.58,0-2.37-.04-.1,0-.18.01-.25-.04.2,0,.4,0,.62,0l2.01-.03c.13,0,.2-.13.2-.26v-4.99s.03-3.93.03-3.93c0-.2-.02-.37.02-.56.04.22.02.41.02.62l.06,2.34Z"/>
      <path class="cls-50" d="M14.98,5.01l-2.52.02c-.15,0-.25.12-.25.27v1.92s0,2.18,0,2.18l-.03,5.29v.34c-.06.02-.07-.05-.07-.11l-.02-.75.04-.03c0-.19-.01-.39-.01-.58l-.04-.02v-.43s.01,0,.01-.01c0-.08,0-.14-.02-.22,0-.02.02-.03.03-.03-.02,0-.04,0-.04-.01-.02-.86-.03-1.76-.01-2.63,0-.13.02-.26.04-.38-.02,0-.04,0-.04-.01,0-1,.01-2.04.04-3.04h.02s0-.08,0-.12l.03-1.45c0-.14.15-.25.3-.25.67-.01,1.33,0,2,.02.17,0,.32.01.49,0,.03,0,.06.02.06.04Z"/>
      <path class="cls-30" d="M12.1,12.84v.72c.01.2.02.39.02.58l.02.68c0,.07,0,.16.05.21,0,.01.02.02.02.03,0,.03-.04.03-.06.04-.18.14-.19.2-.34.32v-1.82c.04-.17.05-.35.03-.52.04-.04.11-.05.19-.03-.03-.05-.09-.3.02-.26.02,0,.03.02.04.04Z"/>
      <path class="cls-41" d="M12.11,6.75l-.02,3.07c-.01.09-.03.18-.04.28-.04.08-.08.14-.14.21,0,.15,0,.3-.04.44l-.04.02v-2.82l.03-.41c0-.08.06-.16.03-.25,0-.03.05-.07.05-.06l.05.06s.06-.08.06-.11c-.01-.15-.15-.06-.11-.17.03-.02.08.02.11,0,.06-.11,0-.4.07-.38,0,.05,0,.09,0,.12Z"/>
      <path class="cls-18" d="M12.1,12.84c-.2,0,.09.25-.08.27-.05,0-.1-.05-.15,0,.06.09.03.18,0,.28-.02.07,0,.16-.06.22v-2.84c0-.12.07-.27.04-.4-.02-.09.02-.12.08-.18.07-.07.09-.19.13-.27,0-.02-.02-.04-.02-.05,0-.02.02-.04.04-.05l.02,3.02Z"/>
      <path class="cls-18" d="M12.12,14.15s-.02,0-.02-.02c0-.19,0-.38,0-.56.01,0,.02,0,.02.02v.56Z"/>
    </g>
  </g>
  <g>
    <path class="cls-39" d="M21.4,19.55h-2.39c-.14,0-.26-.11-.26-.25v-1.7c0-.13.04-.24.16-.31l1.14-.7c.11-.07.23-.07.33,0l1.13.71c.08.05.16.13.16.23v1.77c0,.14-.12.25-.27.25Z"/>
    <g>
      <path class="cls-28" d="M21.04,17.41l.02-.02s.09.09.16.12c.08-.04.12.1.14.17-.02.15.02.21.11.16v-.26s.05-.03.05-.03c.04.11,0,.23,0,.35v.89c0,.16,0,.3,0,.46,0,.08-.04.15-.13.15h-2.36c-.05,0-.09-.03-.11-.05-.03-.04-.02-.08-.02-.12l.02-.04c.07,0,.2-.05.16-.14l.03-.04c-.03-.44-.04-.89-.03-1.33,0-.05.03-.1.07-.14.34-.23.69-.43,1.05-.62h.07c.26.16.52.32.78.49Z"/>
      <path class="cls-10" d="M20.64,16.94c.02.05-.07.13-.12.11l-.02.02c-.1-.06-.2-.11-.3-.14-.37.19-.72.41-1.06.64-.02.06-.05.09-.09.08-.05,0-.05-.04-.05-.08.01-.04,0-.08,0-.13l1.14-.72c.15-.09.41.15.52.22Z"/>
      <path class="cls-36" d="M18.98,17.43s.05.04.09.08c-.07.04-.03.09-.03.13l.03.06c0,.45.01.88.04,1.31.01.02.03.09.01.11-.05.08-.14.11-.22.11v-1.69c0-.07.05-.08.08-.11Z"/>
      <path class="cls-55" d="M21.51,17.56c-.01.11,0,.22-.01.32-.32.09-.06-.17-.28-.37-.07-.04-.14-.08-.2-.13.02-.09.06-.14.11-.15l.31.19c.05.03.08.08.07.14Z"/>
      <path class="cls-21" d="M21.14,17.23l-.08.18c.08.02.12.06.16.1-.07,0-.12-.08-.18-.11l-.53-.34v-.03s.08-.08.13-.11l.5.3Z"/>
      <path class="cls-19" d="M20.51,17.04l.53.37c-.25-.12-.48-.27-.73-.42-.07-.04-.14-.05-.22,0l-.86.53c-.06.04-.12.09-.12.17v1.32c-.04-.05-.03-.17-.04-.24-.04-.38-.03-.75-.04-1.13.03-.04.03-.1.08-.13l.62-.38.41-.24c.06-.03.15,0,.19.05.05.05.12.07.17.1Z"/>
    </g>
  </g>
</svg>